<?xml version="1.0" encoding="utf-8"?>
<!-- Generator: Adobe Illustrator 24.1.2, SVG Export Plug-In . SVG Version: 6.00 Build 0)  -->
<svg version="1.1" id="Layer_1" xmlns="http://www.w3.org/2000/svg" xmlns:xlink="http://www.w3.org/1999/xlink" x="0px" y="0px"
	 viewBox="0 0 460.1 180" style="enable-background:new 0 0 460.1 180;" xml:space="preserve">
<style type="text/css">
	.st0{fill:url(#SVGID_1_);}
	.st1{fill:url(#SVGID_2_);}
	.st2{fill:url(#SVGID_3_);}
	.st3{fill:url(#SVGID_4_);}
	.st4{fill:url(#SVGID_5_);}
	.st5{fill:url(#SVGID_6_);}
	.st6{fill:url(#SVGID_7_);}
	.st7{fill:url(#SVGID_8_);}
	.st8{fill:url(#SVGID_9_);}
	.st9{fill:url(#SVGID_10_);}
	.st10{fill:url(#SVGID_11_);}
	.st11{fill:url(#SVGID_12_);}
	.st12{fill:url(#SVGID_13_);}
	.st13{fill:url(#SVGID_14_);}
	.st14{fill:url(#SVGID_15_);}
	.st15{fill:url(#SVGID_16_);}
	.st16{fill:url(#SVGID_17_);}
	.st17{fill:url(#SVGID_18_);}
	.st18{fill:url(#SVGID_19_);}
	.st19{fill:url(#SVGID_20_);}
	.st20{fill:url(#SVGID_21_);}
	.st21{fill:url(#SVGID_22_);}
	.st22{fill:#FFFFFF;}
	.st23{opacity:0.4;fill:#A8C4E5;enable-background:new    ;}
	.st24{fill:#DBEAFF;}
	.st25{fill:#6090DB;}
	.st26{fill:#A8C9FF;}
	.st27{fill:#FFBA82;}
	.st28{fill:#FFCC46;}
	.st29{fill:#3F327A;}
	.st30{fill:#F2F2F2;}
	.st31{fill:#C0D8FA;}
	.st32{fill:#F0AD67;}
	.st33{fill:#0071BC;}
	.st34{fill:#005D9C;}
	.st35{fill:#7EB0E0;}
	.st36{fill:#A0CAF2;}
	.st37{fill:#FF9F65;}
	.st38{fill:#A3C4F0;}
	.st39{fill:#C4E2FF;}
	.st40{opacity:0.38;fill:#FFFFFF;}
</style>
<g>
	
		<linearGradient id="SVGID_1_" gradientUnits="userSpaceOnUse" x1="225.6626" y1="1619.6959" x2="225.6626" y2="1791.0549" gradientTransform="matrix(1 0 0 -1 0 1781.8896)">
		<stop  offset="0" style="stop-color:#E1F5FF"/>
		<stop  offset="1" style="stop-color:#F8FCFF"/>
	</linearGradient>
	<path class="st0" d="M164.8-1C148,5.8,143.4,9.9,124.6,19.8c-14.3,7.5-40-3.7-60.5,7.7C29,47,54.4,67.8,22.4,92.8
		c-31.3,24.3-25.3,63.2,40,66.3c20.8,1,109.9,1.6,164.4-0.9c38.9-1.8,164,3.3,185.2-1c44-8.9,40.1-38.5,24.4-60.3
		c-13-18.1-38.9-15.1-29.8-27.8c21.8-30.4-33.2-66.3-97.4-82.6C263.2-25.2,212.7-20.4,164.8-1z"/>
	<g>
		
			<linearGradient id="SVGID_2_" gradientUnits="userSpaceOnUse" x1="99.7852" y1="1676.1177" x2="99.7852" y2="1620.916" gradientTransform="matrix(1 0 0 -1 0 1781.8896)">
			<stop  offset="0" style="stop-color:#BAE2FF"/>
			<stop  offset="0.6042" style="stop-color:#C8DFFA"/>
			<stop  offset="0.9982" style="stop-color:#FFFFFF"/>
		</linearGradient>
		<polygon class="st1" points="105.8,128.7 102.4,128.7 102.4,132 95.3,132 95.3,126 92.6,126 92.6,132 90.1,132 90.1,163.7 
			109.5,163.7 109.5,132 105.8,132 		"/>
		
			<linearGradient id="SVGID_3_" gradientUnits="userSpaceOnUse" x1="81.1352" y1="1676.1177" x2="81.1352" y2="1620.9161" gradientTransform="matrix(1 0 0 -1 0 1781.8896)">
			<stop  offset="0" style="stop-color:#BAE2FF"/>
			<stop  offset="0.6042" style="stop-color:#C8DFFA"/>
			<stop  offset="0.9982" style="stop-color:#FFFFFF"/>
		</linearGradient>
		<polygon class="st2" points="78.1,122.6 78.2,163.4 84.2,163.4 84.1,126.7 		"/>
		
			<linearGradient id="SVGID_4_" gradientUnits="userSpaceOnUse" x1="119.0352" y1="1673.6139" x2="119.0352" y2="1620.7914" gradientTransform="matrix(1 0 0 -1 0 1781.8896)">
			<stop  offset="0" style="stop-color:#BAE2FF"/>
			<stop  offset="0.6042" style="stop-color:#C8DFFA"/>
			<stop  offset="0.9982" style="stop-color:#FFFFFF"/>
		</linearGradient>
		<polygon class="st3" points="122.7,124.6 122.7,121.7 121,121.7 121,117.3 119.8,117.3 119.1,109 118.5,117.3 117.4,117.3 
			117.4,121.7 115.4,121.7 115.4,124.6 113.4,124.6 113.4,163.9 124.7,163.9 124.7,124.6 		"/>
		
			<linearGradient id="SVGID_5_" gradientUnits="userSpaceOnUse" x1="68.2852" y1="1674.5166" x2="68.2852" y2="1619.3149" gradientTransform="matrix(1 0 0 -1 0 1781.8896)">
			<stop  offset="0" style="stop-color:#BAE2FF"/>
			<stop  offset="0.6042" style="stop-color:#C8DFFA"/>
			<stop  offset="0.9982" style="stop-color:#FFFFFF"/>
		</linearGradient>
		<polygon class="st4" points="73.2,142 71.6,142 71.6,141.1 70.4,141.1 70.4,136.8 71.3,136.8 71.3,136.1 70.1,136.1 68.3,133.2 
			66.6,136.1 65.4,136.1 65.4,136.8 66.2,136.8 66.2,141.1 65.1,141.1 65.1,142 63.4,142 63.4,147.7 62,147.7 62,163.5 74.6,163.5 
			74.6,147.7 73.2,147.7 		"/>
		
			<linearGradient id="SVGID_6_" gradientUnits="userSpaceOnUse" x1="161.9352" y1="1679.7037" x2="161.9352" y2="1617.84" gradientTransform="matrix(1 0 0 -1 0 1781.8896)">
			<stop  offset="0" style="stop-color:#BAE2FF"/>
			<stop  offset="0.6042" style="stop-color:#C8DFFA"/>
			<stop  offset="0.9982" style="stop-color:#FFFFFF"/>
		</linearGradient>
		<polygon class="st5" points="163.8,143.4 163.8,138.6 162.4,138.6 162.4,135.5 157.9,141 157.9,141 157.9,165.4 166,165.6 
			166,143.4 		"/>
		
			<linearGradient id="SVGID_7_" gradientUnits="userSpaceOnUse" x1="132.2852" y1="1676.1177" x2="132.2852" y2="1620.9158" gradientTransform="matrix(1 0 0 -1 0 1781.8896)">
			<stop  offset="0" style="stop-color:#BAE2FF"/>
			<stop  offset="0.6042" style="stop-color:#C8DFFA"/>
			<stop  offset="0.9982" style="stop-color:#FFFFFF"/>
		</linearGradient>
		<polygon class="st6" points="138.6,138.4 138.6,136.1 137.1,136.1 137.1,134.5 132.8,132.5 128,134.5 128,136.1 125.5,136.1 
			125.5,138.5 124.5,138.5 124.5,163.9 140.1,163.9 140.1,138.4 		"/>
		
			<linearGradient id="SVGID_8_" gradientUnits="userSpaceOnUse" x1="150.2352" y1="1677.3794" x2="150.2352" y2="1619.3834" gradientTransform="matrix(1 0 0 -1 0 1781.8896)">
			<stop  offset="0" style="stop-color:#BAE2FF"/>
			<stop  offset="0.6042" style="stop-color:#C8DFFA"/>
			<stop  offset="0.9982" style="stop-color:#FFFFFF"/>
		</linearGradient>
		<rect x="146.1" y="130.7" class="st7" width="8.3" height="34.4"/>
	</g>
	<g>
		
			<linearGradient id="SVGID_9_" gradientUnits="userSpaceOnUse" x1="207.6852" y1="1676.1177" x2="207.6852" y2="1620.916" gradientTransform="matrix(1 0 0 -1 0 1781.8896)">
			<stop  offset="0" style="stop-color:#BAE2FF"/>
			<stop  offset="0.6042" style="stop-color:#C8DFFA"/>
			<stop  offset="0.9982" style="stop-color:#FFFFFF"/>
		</linearGradient>
		<polygon class="st8" points="213.7,128.7 210.3,128.7 210.3,132 203.1,132 203.1,126 200.4,126 200.4,132 198,132 198,163.7 
			217.4,163.7 217.4,132 213.7,132 		"/>
		
			<linearGradient id="SVGID_10_" gradientUnits="userSpaceOnUse" x1="189.0352" y1="1676.1177" x2="189.0352" y2="1620.9161" gradientTransform="matrix(1 0 0 -1 0 1781.8896)">
			<stop  offset="0" style="stop-color:#BAE2FF"/>
			<stop  offset="0.6042" style="stop-color:#C8DFFA"/>
			<stop  offset="0.9982" style="stop-color:#FFFFFF"/>
		</linearGradient>
		<polygon class="st9" points="186,122.6 186.1,163.4 192.1,163.4 192,126.7 		"/>
		
			<linearGradient id="SVGID_11_" gradientUnits="userSpaceOnUse" x1="226.8852" y1="1673.6139" x2="226.8852" y2="1620.7914" gradientTransform="matrix(1 0 0 -1 0 1781.8896)">
			<stop  offset="0" style="stop-color:#BAE2FF"/>
			<stop  offset="0.6042" style="stop-color:#C8DFFA"/>
			<stop  offset="0.9982" style="stop-color:#FFFFFF"/>
		</linearGradient>
		<polygon class="st10" points="230.6,124.6 230.6,121.7 228.9,121.7 228.9,117.3 227.7,117.3 227,109 226.3,117.3 225.2,117.3 
			225.2,121.7 223.3,121.7 223.3,124.6 221.3,124.6 221.3,163.9 232.5,163.9 232.5,124.6 		"/>
		
			<linearGradient id="SVGID_12_" gradientUnits="userSpaceOnUse" x1="176.1852" y1="1674.5166" x2="176.1852" y2="1619.3149" gradientTransform="matrix(1 0 0 -1 0 1781.8896)">
			<stop  offset="0" style="stop-color:#BAE2FF"/>
			<stop  offset="0.6042" style="stop-color:#C8DFFA"/>
			<stop  offset="0.9982" style="stop-color:#FFFFFF"/>
		</linearGradient>
		<polygon class="st11" points="181.1,142 179.4,142 179.4,141.1 178.3,141.1 178.3,136.8 179.2,136.8 179.2,136.1 177.9,136.1 
			176.2,133.2 174.5,136.1 173.3,136.1 173.3,136.8 174.1,136.8 174.1,141.1 173,141.1 173,142 171.3,142 171.3,147.7 169.9,147.7 
			169.9,163.5 182.5,163.5 182.5,147.7 181.1,147.7 		"/>
		
			<linearGradient id="SVGID_13_" gradientUnits="userSpaceOnUse" x1="269.8352" y1="1679.7037" x2="269.8352" y2="1617.84" gradientTransform="matrix(1 0 0 -1 0 1781.8896)">
			<stop  offset="0" style="stop-color:#BAE2FF"/>
			<stop  offset="0.6042" style="stop-color:#C8DFFA"/>
			<stop  offset="0.9982" style="stop-color:#FFFFFF"/>
		</linearGradient>
		<polygon class="st12" points="271.6,143.4 271.6,138.6 270.2,138.6 270.2,135.5 265.8,141 265.8,141 265.8,165.4 273.9,165.6 
			273.9,143.4 		"/>
		
			<linearGradient id="SVGID_14_" gradientUnits="userSpaceOnUse" x1="240.1852" y1="1676.1177" x2="240.1852" y2="1620.9158" gradientTransform="matrix(1 0 0 -1 0 1781.8896)">
			<stop  offset="0" style="stop-color:#BAE2FF"/>
			<stop  offset="0.6042" style="stop-color:#C8DFFA"/>
			<stop  offset="0.9982" style="stop-color:#FFFFFF"/>
		</linearGradient>
		<polygon class="st13" points="246.5,138.4 246.5,136.1 245,136.1 245,134.5 240.7,132.5 235.9,134.5 235.9,136.1 233.4,136.1 
			233.4,138.5 232.4,138.5 232.4,163.9 248,163.9 248,138.4 		"/>
		
			<linearGradient id="SVGID_15_" gradientUnits="userSpaceOnUse" x1="258.1352" y1="1677.3794" x2="258.1352" y2="1619.3834" gradientTransform="matrix(1 0 0 -1 0 1781.8896)">
			<stop  offset="0" style="stop-color:#BAE2FF"/>
			<stop  offset="0.6042" style="stop-color:#C8DFFA"/>
			<stop  offset="0.9982" style="stop-color:#FFFFFF"/>
		</linearGradient>
		<rect x="254" y="130.7" class="st14" width="8.3" height="34.4"/>
	</g>
	<g>
		
			<linearGradient id="SVGID_16_" gradientUnits="userSpaceOnUse" x1="316.0852" y1="1676.1177" x2="316.0852" y2="1620.916" gradientTransform="matrix(1 0 0 -1 0 1781.8896)">
			<stop  offset="0" style="stop-color:#BAE2FF"/>
			<stop  offset="0.6042" style="stop-color:#C8DFFA"/>
			<stop  offset="0.9982" style="stop-color:#FFFFFF"/>
		</linearGradient>
		<polygon class="st15" points="322.1,128.7 318.7,128.7 318.7,132 311.5,132 311.5,126 308.8,126 308.8,132 306.4,132 306.4,163.7 
			325.8,163.7 325.8,132 322.1,132 		"/>
		
			<linearGradient id="SVGID_17_" gradientUnits="userSpaceOnUse" x1="297.4352" y1="1676.1177" x2="297.4352" y2="1620.9161" gradientTransform="matrix(1 0 0 -1 0 1781.8896)">
			<stop  offset="0" style="stop-color:#BAE2FF"/>
			<stop  offset="0.6042" style="stop-color:#C8DFFA"/>
			<stop  offset="0.9982" style="stop-color:#FFFFFF"/>
		</linearGradient>
		<polygon class="st16" points="294.4,122.6 294.5,163.4 300.5,163.4 300.4,126.7 		"/>
		
			<linearGradient id="SVGID_18_" gradientUnits="userSpaceOnUse" x1="335.2852" y1="1673.6139" x2="335.2852" y2="1620.7914" gradientTransform="matrix(1 0 0 -1 0 1781.8896)">
			<stop  offset="0" style="stop-color:#BAE2FF"/>
			<stop  offset="0.6042" style="stop-color:#C8DFFA"/>
			<stop  offset="0.9982" style="stop-color:#FFFFFF"/>
		</linearGradient>
		<polygon class="st17" points="339,124.6 339,121.7 337.3,121.7 337.3,117.3 336,117.3 335.4,109 334.7,117.3 333.6,117.3 
			333.6,121.7 331.7,121.7 331.7,124.6 329.7,124.6 329.7,163.9 340.9,163.9 340.9,124.6 		"/>
		
			<linearGradient id="SVGID_19_" gradientUnits="userSpaceOnUse" x1="284.5852" y1="1674.5166" x2="284.5852" y2="1619.3149" gradientTransform="matrix(1 0 0 -1 0 1781.8896)">
			<stop  offset="0" style="stop-color:#BAE2FF"/>
			<stop  offset="0.6042" style="stop-color:#C8DFFA"/>
			<stop  offset="0.9982" style="stop-color:#FFFFFF"/>
		</linearGradient>
		<polygon class="st18" points="289.5,142 287.8,142 287.8,141.1 286.7,141.1 286.7,136.8 287.5,136.8 287.5,136.1 286.3,136.1 
			284.6,133.2 282.9,136.1 281.6,136.1 281.6,136.8 282.5,136.8 282.5,141.1 281.4,141.1 281.4,142 279.7,142 279.7,147.7 
			278.3,147.7 278.3,163.5 290.9,163.5 290.9,147.7 289.5,147.7 		"/>
		
			<linearGradient id="SVGID_20_" gradientUnits="userSpaceOnUse" x1="378.1852" y1="1679.7037" x2="378.1852" y2="1617.84" gradientTransform="matrix(1 0 0 -1 0 1781.8896)">
			<stop  offset="0" style="stop-color:#BAE2FF"/>
			<stop  offset="0.6042" style="stop-color:#C8DFFA"/>
			<stop  offset="0.9982" style="stop-color:#FFFFFF"/>
		</linearGradient>
		<polygon class="st19" points="380,143.4 380,138.6 378.6,138.6 378.6,135.5 374.1,141 374.1,141 374.1,165.4 382.3,165.6 
			382.3,143.4 		"/>
		
			<linearGradient id="SVGID_21_" gradientUnits="userSpaceOnUse" x1="348.5852" y1="1676.1177" x2="348.5852" y2="1620.9158" gradientTransform="matrix(1 0 0 -1 0 1781.8896)">
			<stop  offset="0" style="stop-color:#BAE2FF"/>
			<stop  offset="0.6042" style="stop-color:#C8DFFA"/>
			<stop  offset="0.9982" style="stop-color:#FFFFFF"/>
		</linearGradient>
		<polygon class="st20" points="354.9,138.4 354.9,136.1 353.4,136.1 353.4,134.5 349.1,132.5 344.3,134.5 344.3,136.1 341.8,136.1 
			341.8,138.5 340.8,138.5 340.8,163.9 356.4,163.9 356.4,138.4 		"/>
		
			<linearGradient id="SVGID_22_" gradientUnits="userSpaceOnUse" x1="366.5352" y1="1677.3794" x2="366.5352" y2="1619.3834" gradientTransform="matrix(1 0 0 -1 0 1781.8896)">
			<stop  offset="0" style="stop-color:#BAE2FF"/>
			<stop  offset="0.6042" style="stop-color:#C8DFFA"/>
			<stop  offset="0.9982" style="stop-color:#FFFFFF"/>
		</linearGradient>
		<rect x="362.4" y="130.7" class="st21" width="8.3" height="34.4"/>
	</g>
	<path class="st22" d="M302.1-6.2c-3.5-1.2-7.3-1.4-10.9-0.6l-1.3,1.3c-4.5-1.6-27,3.8-27,4.7c0,1.2,34.5,0.2,42.6-0.8
		C308.9-2.7,304.3-5.4,302.1-6.2z"/>
	<path class="st22" d="M168.8,42.3c-3.5-1.2-7.3-1.4-10.9-0.6l-1.3,1.3c-4.5-1.6-27,3.8-27,4.7c0,1.2,34.5,0.2,42.6-0.8
		C175.6,45.8,171,43.1,168.8,42.3z"/>
</g>
<ellipse class="st23" cx="225.9" cy="160.7" rx="47.3" ry="5"/>
<g>
	<rect x="99.8" y="33.2" class="st22" width="72.4" height="92.2"/>
	<rect x="132.2" y="42" class="st24" width="9.1" height="1.8"/>
	<rect x="156.8" y="42" class="st24" width="5.1" height="1.8"/>
	<rect x="112.1" y="42" class="st24" width="5.1" height="1.8"/>
	<rect x="151.9" y="42" class="st24" width="2.6" height="1.8"/>
	<rect x="111.5" y="72" class="st24" width="9.5" height="1.8"/>
	<rect x="147.3" y="72" class="st24" width="9.5" height="1.8"/>
	<rect x="107.1" y="75.6" class="st24" width="5.4" height="1.8"/>
	<rect x="131.7" y="75.6" class="st24" width="5.4" height="1.8"/>
	<rect x="123.2" y="72" class="st24" width="5.4" height="1.8"/>
	<rect x="159.1" y="72" class="st24" width="5.4" height="1.8"/>
	<rect x="120.2" y="75.6" class="st24" width="8.4" height="1.8"/>
	<rect x="144.8" y="75.6" class="st24" width="8.4" height="1.8"/>
	<rect x="130.8" y="72" class="st24" width="8.4" height="1.8"/>
	<rect x="115.1" y="75.6" class="st24" width="2.3" height="1.8"/>
	<rect x="139.7" y="75.6" class="st24" width="2.3" height="1.8"/>
	<rect x="106.9" y="72" class="st24" width="2.6" height="1.8"/>
	<rect x="142" y="72" class="st24" width="2.6" height="1.8"/>
	<path class="st25" d="M118.7,48.7c-2.4-1.8-5.6-2-8.2-0.5l3.6,6.2L118.7,48.7z"/>
	<path class="st26" d="M110.6,50.3c-3.6,1.9-5,6.3-3.1,9.9c1.7,3.4,5.7,4.8,9.2,3.4l-2.5-7.2L110.6,50.3z"/>
	<path class="st27" d="M121.6,56.7c0-2.3-1.1-4.5-2.9-5.9l-4.6,5.7l2.5,7.2C119.6,62.7,121.6,59.9,121.6,56.7z"/>
	<path class="st25" d="M127.8,54.3c-1.1,2.8-0.4,5.9,1.7,8l5-5.1L127.8,54.3z"/>
	<path class="st26" d="M132.3,61.8c2.6,3.1,7.2,3.5,10.3,1c3.1-2.6,3.5-7.2,1-10.3l-6.2,4.3L132.3,61.8z"/>
	<path class="st27" d="M135.5,49.4c-2.2,0.6-4.1,2.2-4.9,4.4l6.7,2.9l6.2-4.3C141.8,49.8,138.6,48.6,135.5,49.4z"/>
	<path class="st25" d="M157.9,66c3,0.4,5.9-1.1,7.3-3.7l-6.2-3.6L157.9,66z"/>
	<path class="st26" d="M164,60.4c2.2-3.4,1.2-8-2.2-10.1c-3.2-2-7.4-1.3-9.7,1.7l5.8,4.9L164,60.4z"/>
	<path class="st27" d="M151.2,60.5c1.2,2,3.2,3.3,5.5,3.6l1.1-7.3l-5.8-4.9C150,54.3,149.6,57.7,151.2,60.5z"/>
</g>
<g>
	<ellipse class="st28" cx="225.7" cy="92" rx="54.8" ry="56.4"/>
	<path class="st22" d="M198.4,93.8c-0.1,0-0.2,0-0.4,0c-2.2-0.2-3.8-2.2-3.6-4.4c1.6-17.8,17-30.9,34.4-29.2c10,1,19,6.8,24.1,15.8
		c1.2,1.9,0.6,4.4-1.3,5.6c-1.9,1.2-4.3,0.6-5.4-1.3c0,0-0.1-0.1-0.1-0.2c-4.3-7.4-12-11.9-20.3-11.9c-12.2-0.1-22.4,9.5-23.5,22
		C202.2,92.2,200.5,93.8,198.4,93.8z"/>
	<path class="st22" d="M256.2,85.2l-14.1-0.7c-2.2-0.1-3.9-2-3.8-4.3c0.1-2.2,2-4,4.2-3.9l0,0l6.4,0.3l0.5-6.1
		c0.1-2.2,2-3.9,4.2-3.8c2.2,0.1,3.8,2.1,3.7,4.3c0,0,0,0.1,0,0.1L256.2,85.2z"/>
	<path class="st22" d="M225.4,123.9c-11.1,0-21.4-6.1-27.1-15.9c-1.1-1.9-0.5-4.4,1.4-5.6c1.9-1.1,4.3-0.5,5.4,1.4
		c6.6,11.5,21.1,15.4,32.3,8.6c6.1-3.7,10.3-10,11.3-17.2c0.3-2.2,2.3-3.8,4.5-3.4s3.7,2.4,3.3,4.6
		C254.3,112.1,240.9,123.9,225.4,123.9z"/>
	<path class="st22" d="M198,117.2c-0.1,0-0.2,0-0.3,0c-2.2-0.2-3.8-2.1-3.6-4.4l1.1-14l14.1,0.7c2.2,0.1,3.9,2,3.8,4.3
		c-0.1,2.2-2,4-4.2,3.9l-6.4-0.3l-0.5,6.1C201.7,115.5,200,117.2,198,117.2z"/>
	<path class="st29" d="M225.7,158.8c-35.8,0-65-30-65-66.8s29.2-66.8,65-66.8s65,30,65,66.8S261.5,158.8,225.7,158.8z M225.7,31.6
		c-32.4,0-58.6,27-58.6,60.3s26.3,60.3,58.6,60.3s58.6-27,58.6-60.3c0,0,0,0,0,0C284.3,58.7,258,31.7,225.7,31.6z"/>
</g>
<g>
	<path class="st22" d="M288.2,91.8c0,0-8.4,2.6-10.1,3.5c-1.7,0.9-3.4,6.1-4.2,8.6c-0.8,2.6-3.7,9.3-5,12.1c-2.5,5.2,0,6.1,3.4,7.8
		s11.9,2.6,15.1,3.5c3.4,0.9,6.7,6.1,6.7,6.1h13.5l3.9,0.4l2-10c0,0,1.7,4.3,2.5,5.2c0.8,0.9,5,8.6,5,8.6l5.3,3.3l4-1.6
		c0,0-7.6-13.8-8.4-16.4c-0.8-2.6-3.4-11.2-5-15.6s-4.2-10.4-5.9-11.2c-1.7-0.9-11.8-5.2-11.8-5.2L288.2,91.8z"/>
	<path class="st30" d="M278.1,95.3c1.2,2.8,2.1,5.7,2.5,8.6c0.8,5.1,0,8.6,0,8.6l-4.2,5.2l8.4,1.7c4.2,0.9,10.9,1.7,10.9,1.7
		s-9.2-2.6-11.8-3.5c-1.4-0.5-2.8-1.1-4.2-1.7c0,0,0.9-0.2,1.7-1.7c0.8-1.7,0.8-8.8-0.8-13.8C280,98.6,279.2,96.9,278.1,95.3z"/>
	<polygon class="st31" points="282.3,112.6 283.2,117.8 279.8,116 	"/>
	<path class="st30" d="M310.9,96.1c0,0-4.2,9.5-0.8,17.3l0.8-0.9C310.9,112.6,307.5,107.4,310.9,96.1z"/>
	<path class="st27" d="M300,91l-5.9,3.5l-5.9-2.6c0,0,2.5-0.9,2.5-2.6c0-0.2,0-0.5,0-0.7c-0.2-1.2-0.4-2.4-0.8-3.6c0,0,0,0,0,0h8.4
		c-0.3,0.9-0.4,1.8-0.4,2.6c0,0.6,0.1,1.2,0.4,1.7C299.1,91,300,91,300,91z"/>
	<path class="st30" d="M294.5,94.8c0.6,2.8,1.2,5.6,1.7,8.4c0.5,2.8,0.9,5.7,1.2,8.5c0.3,2.9,0.6,5.7,0.8,8.6
		c0.2,2.9,0.2,5.7,0.1,8.6c0-0.7-0.1-1.4-0.1-2.1c0-0.7-0.1-1.4-0.2-2.1c-0.1-1.4-0.2-2.9-0.4-4.3c-0.3-2.8-0.6-5.7-1-8.5
		c-0.3-2.8-0.7-5.7-1.1-8.5L294.5,94.8z"/>
	<path class="st32" d="M297.9,87.5c-1.3,2-2.7,2.5-3.5,2.5c-1.4,0.1-2.7-0.5-3.7-1.5c-0.2-1.2-0.4-2.4-0.8-3.6c0,0,0,0,0,0h8.4
		C298,85.8,297.9,86.7,297.9,87.5z"/>
	<polygon class="st30" points="287.5,92 286.5,97 291.9,94 	"/>
	<path class="st27" d="M293.8,88.9c1.8,0,2.5-0.9,4-2.8c1.3-1.5,1.8-2.4,1.9-4.5c0-1.2,0.9-3.4,0.8-4.7c-0.4-4.4-2.7-7.4-7.5-7.4
		c-3.1,0-6.4,2.8-7,6.6c-0.3,1.9,1.4,4.1,1.6,5.8c0.3,2.5,1.3,3.3,2.2,4.4C291.5,88.5,292,88.9,293.8,88.9z"/>
	<polygon class="st30" points="300.8,91.8 301.9,96.8 295.8,93.5 300,91 	"/>
	<polygon class="st30" points="294.1,94.4 293.3,92.7 289,93.5 289,93.5 	"/>
	<path class="st22" d="M289.9,89.2c0,0,0,3.6,3.2,3.6c-1.9,0.9-3.8,1.8-5.8,2.5l0.4-3.6L289.9,89.2z"/>
	<polygon class="st30" points="294.1,94.4 294.9,92.7 299.1,93.5 300,92.7 	"/>
	<path class="st22" d="M299.1,89.2c0,0-0.8,3.6-4.1,3.6c1.9,0.9,3.8,1.8,5.8,2.5l-0.4-3.6L299.1,89.2z"/>
	<path class="st33" d="M277.3,125.5c0,0,2.5,19,7.6,24.2c2.5,2.6,8.4,3.5,8.4,3.5l-1.7,0.9l-0.3,2.1l2,4l20.2-3.5
		c0,0,17.7-3.5,18.5-4.3c0.8-0.9,2.5-5.2,1.7-6.9c0,0-6.9-5-13.6-8.5s-12-3.7-17.9-4c-4.2-0.2-5.4,0-5.4,0s-4.3-4.8-7.6-5.7
		C285.7,126.4,277.3,125.5,277.3,125.5z"/>
	<path class="st34" d="M313.4,150.6L313.4,150.6c-1,0.7-0.9,2.1-2,3.2c-1.5,1.6-3.9,2.9-3.9,2.9s-3.5-2.6-7.5-5.6
		c-0.4-0.3-0.9-0.7-1.4-1c-3.8-2.9-7.7-6-8.9-7.2c-1.5-1.6-3-3.3-4.2-5.2c0,0-3.4-2.6-5-4.3l3.4,2.6l-1.7-3.5l8.4,9.5l9.8,7.1
		l1.7,1.2l5.3,3.8c0,0,0.8,0.5,2.4-0.3C311.6,152.9,313.4,150.6,313.4,150.6z"/>
	<path class="st34" d="M286.5,148.9c-4.2-3.5-7.6-16.4-7.6-16.4l-0.1,0.7c1.2,6.2,3.3,13.8,6,16.6c1.6,1.7,4.6,2.6,6.6,3.1l0.9,0.2
		l0,0C292.3,153.1,290.7,152.3,286.5,148.9z"/>
	<path class="st34" d="M300.5,149l1.7,1.2c-0.7,0.2-1.4,0.5-2.2,0.8c-4.6,1.7-8.4,3.6-8.4,3.6c2.2-1.7,4.6-3.2,7-4.6
		C299.3,149.7,299.9,149.4,300.5,149z"/>
	<path class="st34" d="M324.4,145.4c0,0-6.7,1.1-12.8,2.4c-0.4,0.1-0.8,0.2-1.2,0.3l-2-2.3c0.3-0.1,0.7-0.2,1-0.3
		c3.8-1.1,7.8-1.7,11.7-1.8L324.4,145.4z"/>
	<polygon class="st34" points="313.4,150.6 312.6,150.6 308.3,145.8 297.7,133.6 	"/>
	<path class="st35" d="M298.3,114.3c1.1,1.7,1.8,3.6,1.8,5.7c0,0.7,0,1.4-0.2,2.1c-0.8,4.3,4.2-6.9,4.2-6.9l-1.7-1.7L298.3,114.3z"
		/>
	<polygon class="st36" points="302.5,112.6 297.5,131.6 310.1,129.9 316,111.7 	"/>
	<path class="st34" d="M300.2,133.4c0.4,0.2,0.7,0.5,1,0.9c0.3,0.4,0.5,0.8,0.6,1.2c0.1,0.4,0.2,0.9,0.3,1.3c0,0.2,0,0.4,0,0.7
		c0,0.2,0,0.4-0.1,0.7c-0.1-0.4-0.1-0.9-0.2-1.3c-0.1-0.4-0.2-0.8-0.4-1.2C301.2,134.8,300.7,134,300.2,133.4z"/>
	<path class="st34" d="M321.3,144.3c-0.1,0-5.7-5.2-19.1-5.6v-0.4c13.5,0.4,19.2,5.6,19.3,5.7L321.3,144.3z"/>
	<path class="st30" d="M295.8,121.2c0,0-2.5,3.5-0.8,6.1c-10.1-0.9-10.4-0.8-10.4-0.8l11.2,1.7L295.8,121.2z"/>
	<path class="st33" d="M288.4,73.8c0,0-3.5-5.3-0.2-6.1c3.3-0.8,8.3,0.2,10.8,1.9c2.5,1.7,2.1,7.3,2.1,7.3s-0.6,2.9-1,3.8
		c0-3.7-0.8-3.7-1-4.4c-0.3-0.8-0.4-2.1-0.8-2.5c-0.4-0.4-2.6,0.9-4.9,0.9C291.6,74.8,290,74.4,288.4,73.8z"/>
	<path class="st33" d="M288.2,73.9c-1.6,1.7-0.8,2.8-1.2,3.6c-0.4,1,0,1.8,0,3.2c-0.7-2.7-2.7-4.3-2-7.8
		C285.9,68.4,289,73.1,288.2,73.9z"/>
	<path class="st27" d="M295.6,121.7l1.8,0.9l2.7-1.1c0,0,4.3-2.1,4.3-1.3s-4.7,3.2-4.7,3.2s6.2-3.5,6.2-2.4c0,0.8-6.2,4-6.2,4
		s5.4-3.2,6.2-2.4s-7,4-7,4s7-3.2,7-2.4c0,0.8-5.4,3.2-5.4,3.2l-6-0.9l0.1-2.9L295.6,121.7z"/>
	<polygon class="st27" points="297.5,121.8 300.1,120.4 300.1,121.7 297.5,122.6 295.9,121.8 	"/>
	<path class="st27" d="M330.1,139.4c0,0,2.3,0.8,3.1,1.6c0.8,0.8,0.8,4.8,0.8,5.6c0,0.8-3.1-3.2-3.1-3.2s1.6,2.4,0.8,2.4
		c-0.8,0-4.7-4.8-4.7-4.8L330.1,139.4z"/>
	<path class="st31" d="M285.4,152.8c0,0-2-0.7-2.8,0.1c-0.8,0.8-2.3,4.8-3.1,6.4c-0.8,1.6-3.9,5.6-3.9,8.8c0,2.4,0.8,4,2.3,4.8
		c0.7,0.4,3.1,0.5,3.9-0.8C282.7,170.9,285.4,152.8,285.4,152.8z"/>
	<path class="st37" d="M292,153.8c0,0-5.4-1.6-7-0.8c-1.6,0.8-3.1,5.6-4.7,8c-1.6,2.4-5.4,11.2-0.8,12s6.2-6.4,7.8-8
		c1.6-1.6,6.2-4.8,6.2-4.8s-0.8-0.8-1.6-3.2C291.5,155.5,292,153.8,292,153.8z"/>
	<path class="st31" d="M325.9,160.2c0,0,3.7,2.5,3.5,4.6c-0.2,1.8-2,3.1-4.5,3.6c-2.5,0.5-6-0.7-8.2-2.3s-5.3-2.2-6-2.7
		c-2.3-1.5-0.8-4.8-0.8-4.8L325.9,160.2z"/>
	<path class="st37" d="M313,150.6c0,0,0.2,0.8,2.3,2.4c4.2,3.2,12.5,7.4,13,10s-3.7,4.1-5.7,3.9c-2-0.2-4.2-1.8-5.7-2.8
		c-1.5-1-7.6-1.8-7.8-3.9c-0.5-4.6-1.6-4-1.6-4s1.9-0.4,3.1-1.6C311.9,153.4,313,150.6,313,150.6z"/>
</g>
<g>
	<path class="st38" d="M133.3,120c1.2-3.3,4.6-5.8,8-7.7c-2.9-1.8-3.7-5.2-4.3-8.4c-0.2-1.1-0.4-2.2,0-3.3c1.2-3.2,6.6-3.9,9.3-2
		c1.5,1.1,2.3,2.7,2.8,4.4c0.3-1.4,1.3-2.9,2.6-3.9c2.7-2.1,6.7-2.4,9.6-1.3c0.8,0.3,1.5,0.7,2,1.3c0.4,0.5,0.6,1.1,0.8,1.7
		c1.5,5.3,1.1,11.2-1.3,16.7c1.2-2.8,5.6-4.3,8.5-3.1s4.1,4.2,3.7,7.1c-0.4,2.9-2.3,5.7-4.3,8.2l-15.3,13.7
		c-4.1-4.2-16.6-3.7-18.1-7.5c-1.1-2.8-0.2-6.2,1.1-9.2C134.5,127.2,132.1,123.3,133.3,120z"/>
	<path class="st39" d="M154.4,135.2l-0.9-0.5c0.6-1.3,1.6-2.9,2.6-4.4c0.4-0.6,0.8-1,1.2-1.5s0.8-0.9,1.2-1.4
		c0.2-0.3,0.4-0.6,0.6-0.8c0.6-0.8,1.3-1.2,2.2-1.8c0.2-0.2,0.5-0.3,0.7-0.4c0.4-0.2,1.1-0.7,1.3-1.1l0.4,0.2
		c-0.4,0.9-1.1,1.2-1.7,1.6c-0.2,0.1-0.4,0.2-0.6,0.3c-0.6,0.4-1,1.1-1.5,1.8c-0.2,0.3-0.4,0.6-0.6,0.9c-0.4,0.6-0.8,1.1-1.3,1.6
		c-0.4,0.4-0.8,0.9-1.1,1.3C155.8,132.4,154.9,133.9,154.4,135.2z"/>
	<path class="st39" d="M160.3,168l2.3-0.8c-2.3-7.4-7-25.1-8-33c-0.7-5.3-0.7-10.2,0.1-14.8c0.5-3,0.9-6,2-8.7l-0.7-0.3
		c-0.7,1.7-1.7,3.4-2.2,5.2c-1.4,5.7-1.7,12-0.8,18.9C154,142.6,157.9,160.6,160.3,168z"/>
	<path class="st39" d="M152.9,135.2l1.5-0.8c-0.7-1.5-1.9-3.2-3.3-4.8c-0.5-0.6-1.1-1.1-1.6-1.5c-0.6-0.5-1.1-0.9-1.6-1.5
		c-0.2-0.3-0.5-0.6-0.7-0.9c-0.7-0.9-1.8-1.2-3-1.7c-0.3-0.2-0.7-0.3-1.1-0.4c-0.7-0.2-1.6-0.6-1.8-1l-0.7,0.4
		c0.5,0.9,1.5,1.3,2.3,1.5c0.3,0.1,0.6,0.2,0.8,0.3c0.8,0.3,1.4,1.1,2,2c0.2,0.3,0.5,0.7,0.8,1c0.6,0.6,1.1,1.1,1.7,1.6
		c0.6,0.4,1.1,0.9,1.5,1.4C151.1,132.2,152.2,133.9,152.9,135.2z"/>
	<path class="st39" d="M150.5,111.6c0,0,0.6,1.7,1.3,3.5c0.7,1.7,1.5,4,1.5,4l1.4-1.4c0,0-0.9-1.6-1.8-3.1c-0.9-1.6-1.7-3.2-1.7-3.2
		L150.5,111.6z"/>
	<path class="st39" d="M158.8,117.5c0,0-0.1,0.1-0.3,0.1c-0.2,0.1-0.4,0.2-0.8,0.4c-0.6,0.3-1.4,0.9-2.2,1.5
		c-0.7,0.6-1.4,1.3-1.9,1.9c-0.4,0.6-0.7,1-0.7,1l1.3,1.4c0,0,0.3-1,0.7-1.6c0.3-0.6,0.8-1.3,1.4-2c0.6-0.7,1.3-1.2,1.8-1.7
		c0.5-0.4,0.9-0.7,0.9-0.7L158.8,117.5z"/>
	<path class="st39" d="M140.1,127.6c0.1,0,0.1,0,0.2-0.1c0.2-0.1,0.4-0.1,0.8-0.1c0.3-0.1,0.7-0.1,1.1-0.1c0.4-0.1,0.8-0.1,1.2-0.1
		c0.8,0,1.7,0.1,2.3,0.1c0.6,0.1,1.1,0.2,1.1,0.2l0.1-1.6c0,0-0.4,0.1-1.1,0.2c-0.7,0.1-1.6,0.2-2.4,0.3c-0.4,0.1-0.9,0.1-1.3,0.2
		c-0.4,0.1-0.8,0.1-1.1,0.2c-0.3,0.1-0.6,0.1-0.8,0.2c-0.1,0-0.2,0.1-0.2,0.1l-0.1-0.1C139.9,126.8,140,127.6,140.1,127.6z"/>
</g>
<g>
	<circle class="st25" cx="324.3" cy="98.8" r="8.7"/>
	<path class="st25" d="M317,98.1c0,0-3.8,1.5-5.5,6.7c2.6-3.2,7.8-1.5,7.8-1.5L317,98.1z"/>
	<path class="st26" d="M329.1,95l-5.8,7.6l-3.8-4.3l1.4-1l2.4,2.5l4.5-5.8L329.1,95z"/>
</g>
<path class="st40" d="M278.3,92.1c0,30.7-24.9,55.6-55.6,55.6V36.5C253.4,36.6,278.3,61.4,278.3,92.1z"/>
</svg>
