<?xml version="1.0" encoding="utf-8"?>
<!-- Generator: Adobe Illustrator 24.1.2, SVG Export Plug-In . SVG Version: 6.00 Build 0)  -->
<svg version="1.1" id="Layer_1" xmlns="http://www.w3.org/2000/svg" xmlns:xlink="http://www.w3.org/1999/xlink" x="0px" y="0px"
	 viewBox="0 0 460.1 180" style="enable-background:new 0 0 460.1 180;" xml:space="preserve">
<style type="text/css">
	.st0{fill:url(#SVGID_1_);}
	.st1{fill:url(#SVGID_2_);}
	.st2{fill:url(#SVGID_3_);}
	.st3{fill:url(#SVGID_4_);}
	.st4{fill:url(#SVGID_5_);}
	.st5{fill:url(#SVGID_6_);}
	.st6{fill:url(#SVGID_7_);}
	.st7{fill:url(#SVGID_8_);}
	.st8{fill:url(#SVGID_9_);}
	.st9{fill:url(#SVGID_10_);}
	.st10{fill:url(#SVGID_11_);}
	.st11{fill:url(#SVGID_12_);}
	.st12{fill:url(#SVGID_13_);}
	.st13{fill:url(#SVGID_14_);}
	.st14{fill:url(#SVGID_15_);}
	.st15{fill:url(#SVGID_16_);}
	.st16{fill:url(#SVGID_17_);}
	.st17{fill:url(#SVGID_18_);}
	.st18{fill:url(#SVGID_19_);}
	.st19{fill:url(#SVGID_20_);}
	.st20{fill:url(#SVGID_21_);}
	.st21{fill:url(#SVGID_22_);}
	.st22{fill:#FFFFFF;}
	.st23{fill:#A3C4F0;}
	.st24{fill:#C4E2FF;}
	.st25{fill:#C1D9FA;}
	.st26{fill:#A1CCF5;}
	.st27{opacity:0.4;fill:#A8C4E5;enable-background:new    ;}
	.st28{fill:#E4E0FF;}
	.st29{fill:#FFCC46;}
	.st30{fill:#3F327A;}
	.st31{fill:#322666;}
	.st32{fill:#FF96A9;}
	.st33{fill:#ED7E94;}
	.st34{fill:#DB4A87;}
	.st35{fill:#E5649A;}
	.st36{fill:#CC3977;}
	.st37{fill:#2E2363;}
	.st38{fill:#7860DC;}
</style>
<g>
	
		<linearGradient id="SVGID_1_" gradientUnits="userSpaceOnUse" x1="230.6245" y1="-1443.189" x2="230.6245" y2="-1614.548" gradientTransform="matrix(1 0 0 1 0 1601.9999)">
		<stop  offset="0" style="stop-color:#E1F5FF"/>
		<stop  offset="1" style="stop-color:#F8FCFF"/>
	</linearGradient>
	<path class="st0" d="M169.7-4.4c-16.8,6.8-21.4,10.9-40.2,20.8c-14.3,7.5-40-3.7-60.5,7.7c-35.1,19.5-9.7,40.3-41.7,65.3
		C-4,113.7,2,152.6,67.3,155.7c20.8,1,109.9,1.6,164.4-0.9c38.9-1.8,164,3.3,185.2-1c44-8.9,40.1-38.5,24.4-60.3
		c-13-18.1-38.9-15.1-29.8-27.8c21.8-30.4-33.2-66.3-97.4-82.6C268.1-28.6,217.6-23.8,169.7-4.4z"/>
	<g>
		
			<linearGradient id="SVGID_2_" gradientUnits="userSpaceOnUse" x1="104.707" y1="-1499.6107" x2="104.707" y2="-1444.4091" gradientTransform="matrix(1 0 0 1 0 1601.9999)">
			<stop  offset="0" style="stop-color:#BAE2FF"/>
			<stop  offset="0.6042" style="stop-color:#C8DFFA"/>
			<stop  offset="0.9982" style="stop-color:#FFFFFF"/>
		</linearGradient>
		<polygon class="st1" points="110.7,125.3 107.3,125.3 107.3,128.6 100.2,128.6 100.2,122.6 97.5,122.6 97.5,128.6 95,128.6 
			95,160.3 114.4,160.3 114.4,128.6 110.7,128.6 		"/>
		
			<linearGradient id="SVGID_3_" gradientUnits="userSpaceOnUse" x1="86.0857" y1="-1499.6107" x2="86.0857" y2="-1444.4092" gradientTransform="matrix(1 0 0 1 0 1601.9999)">
			<stop  offset="0" style="stop-color:#BAE2FF"/>
			<stop  offset="0.6042" style="stop-color:#C8DFFA"/>
			<stop  offset="0.9982" style="stop-color:#FFFFFF"/>
		</linearGradient>
		<polygon class="st2" points="83,119.2 83.1,160 89.1,160 89,123.3 		"/>
		
			<linearGradient id="SVGID_4_" gradientUnits="userSpaceOnUse" x1="123.9519" y1="-1497.1069" x2="123.9519" y2="-1444.2844" gradientTransform="matrix(1 0 0 1 0 1601.9999)">
			<stop  offset="0" style="stop-color:#BAE2FF"/>
			<stop  offset="0.6042" style="stop-color:#C8DFFA"/>
			<stop  offset="0.9982" style="stop-color:#FFFFFF"/>
		</linearGradient>
		<polygon class="st3" points="127.6,121.2 127.6,118.3 125.9,118.3 125.9,113.9 124.7,113.9 124,105.6 123.4,113.9 122.3,113.9 
			122.3,118.3 120.3,118.3 120.3,121.2 118.3,121.2 118.3,160.5 129.6,160.5 129.6,121.2 		"/>
		
			<linearGradient id="SVGID_5_" gradientUnits="userSpaceOnUse" x1="73.2361" y1="-1498.0096" x2="73.2361" y2="-1442.808" gradientTransform="matrix(1 0 0 1 0 1601.9999)">
			<stop  offset="0" style="stop-color:#BAE2FF"/>
			<stop  offset="0.6042" style="stop-color:#C8DFFA"/>
			<stop  offset="0.9982" style="stop-color:#FFFFFF"/>
		</linearGradient>
		<polygon class="st4" points="78.1,138.6 76.5,138.6 76.5,137.7 75.3,137.7 75.3,133.4 76.2,133.4 76.2,132.7 75,132.7 73.2,129.8 
			71.5,132.7 70.3,132.7 70.3,133.4 71.1,133.4 71.1,137.7 70,137.7 70,138.6 68.3,138.6 68.3,144.3 66.9,144.3 66.9,160.1 
			79.5,160.1 79.5,144.3 78.1,144.3 		"/>
		
			<linearGradient id="SVGID_6_" gradientUnits="userSpaceOnUse" x1="166.8484" y1="-1503.1968" x2="166.8484" y2="-1441.333" gradientTransform="matrix(1 0 0 1 0 1601.9999)">
			<stop  offset="0" style="stop-color:#BAE2FF"/>
			<stop  offset="0.6042" style="stop-color:#C8DFFA"/>
			<stop  offset="0.9982" style="stop-color:#FFFFFF"/>
		</linearGradient>
		<polygon class="st5" points="168.7,140 168.7,135.2 167.3,135.2 167.3,132.1 162.8,137.6 162.8,137.6 162.8,162 170.9,162.2 
			170.9,140 		"/>
		
			<linearGradient id="SVGID_7_" gradientUnits="userSpaceOnUse" x1="137.2144" y1="-1499.6107" x2="137.2144" y2="-1444.4088" gradientTransform="matrix(1 0 0 1 0 1601.9999)">
			<stop  offset="0" style="stop-color:#BAE2FF"/>
			<stop  offset="0.6042" style="stop-color:#C8DFFA"/>
			<stop  offset="0.9982" style="stop-color:#FFFFFF"/>
		</linearGradient>
		<polygon class="st6" points="143.5,135 143.5,132.7 142,132.7 142,131.1 137.7,129.1 132.9,131.1 132.9,132.7 130.4,132.7 
			130.4,135.1 129.4,135.1 129.4,160.5 145,160.5 145,135 		"/>
		
			<linearGradient id="SVGID_8_" gradientUnits="userSpaceOnUse" x1="155.1701" y1="-1500.8724" x2="155.1701" y2="-1442.8765" gradientTransform="matrix(1 0 0 1 0 1601.9999)">
			<stop  offset="0" style="stop-color:#BAE2FF"/>
			<stop  offset="0.6042" style="stop-color:#C8DFFA"/>
			<stop  offset="0.9982" style="stop-color:#FFFFFF"/>
		</linearGradient>
		<rect x="151" y="127.3" class="st7" width="8.3" height="34.4"/>
	</g>
	<g>
		
			<linearGradient id="SVGID_9_" gradientUnits="userSpaceOnUse" x1="212.5845" y1="-1499.6107" x2="212.5845" y2="-1444.4091" gradientTransform="matrix(1 0 0 1 0 1601.9999)">
			<stop  offset="0" style="stop-color:#BAE2FF"/>
			<stop  offset="0.6042" style="stop-color:#C8DFFA"/>
			<stop  offset="0.9982" style="stop-color:#FFFFFF"/>
		</linearGradient>
		<polygon class="st8" points="218.6,125.3 215.2,125.3 215.2,128.6 208,128.6 208,122.6 205.3,122.6 205.3,128.6 202.9,128.6 
			202.9,160.3 222.3,160.3 222.3,128.6 218.6,128.6 		"/>
		
			<linearGradient id="SVGID_10_" gradientUnits="userSpaceOnUse" x1="193.9632" y1="-1499.6107" x2="193.9632" y2="-1444.4092" gradientTransform="matrix(1 0 0 1 0 1601.9999)">
			<stop  offset="0" style="stop-color:#BAE2FF"/>
			<stop  offset="0.6042" style="stop-color:#C8DFFA"/>
			<stop  offset="0.9982" style="stop-color:#FFFFFF"/>
		</linearGradient>
		<polygon class="st9" points="190.9,119.2 191,160 197,160 196.9,123.3 		"/>
		
			<linearGradient id="SVGID_11_" gradientUnits="userSpaceOnUse" x1="231.821" y1="-1497.1069" x2="231.821" y2="-1444.2844" gradientTransform="matrix(1 0 0 1 0 1601.9999)">
			<stop  offset="0" style="stop-color:#BAE2FF"/>
			<stop  offset="0.6042" style="stop-color:#C8DFFA"/>
			<stop  offset="0.9982" style="stop-color:#FFFFFF"/>
		</linearGradient>
		<polygon class="st10" points="235.5,121.2 235.5,118.3 233.8,118.3 233.8,113.9 232.6,113.9 231.9,105.6 231.2,113.9 230.1,113.9 
			230.1,118.3 228.2,118.3 228.2,121.2 226.2,121.2 226.2,160.5 237.4,160.5 237.4,121.2 		"/>
		
			<linearGradient id="SVGID_12_" gradientUnits="userSpaceOnUse" x1="181.1051" y1="-1498.0096" x2="181.1051" y2="-1442.808" gradientTransform="matrix(1 0 0 1 0 1601.9999)">
			<stop  offset="0" style="stop-color:#BAE2FF"/>
			<stop  offset="0.6042" style="stop-color:#C8DFFA"/>
			<stop  offset="0.9982" style="stop-color:#FFFFFF"/>
		</linearGradient>
		<polygon class="st11" points="186,138.6 184.3,138.6 184.3,137.7 183.2,137.7 183.2,133.4 184.1,133.4 184.1,132.7 182.8,132.7 
			181.1,129.8 179.4,132.7 178.2,132.7 178.2,133.4 179,133.4 179,137.7 177.9,137.7 177.9,138.6 176.2,138.6 176.2,144.3 
			174.8,144.3 174.8,160.1 187.4,160.1 187.4,144.3 186,144.3 		"/>
		
			<linearGradient id="SVGID_13_" gradientUnits="userSpaceOnUse" x1="274.7175" y1="-1503.1968" x2="274.7175" y2="-1441.333" gradientTransform="matrix(1 0 0 1 0 1601.9999)">
			<stop  offset="0" style="stop-color:#BAE2FF"/>
			<stop  offset="0.6042" style="stop-color:#C8DFFA"/>
			<stop  offset="0.9982" style="stop-color:#FFFFFF"/>
		</linearGradient>
		<polygon class="st12" points="276.5,140 276.5,135.2 275.1,135.2 275.1,132.1 270.7,137.6 270.7,137.6 270.7,162 278.8,162.2 
			278.8,140 		"/>
		
			<linearGradient id="SVGID_14_" gradientUnits="userSpaceOnUse" x1="245.0919" y1="-1499.6107" x2="245.0919" y2="-1444.4088" gradientTransform="matrix(1 0 0 1 0 1601.9999)">
			<stop  offset="0" style="stop-color:#BAE2FF"/>
			<stop  offset="0.6042" style="stop-color:#C8DFFA"/>
			<stop  offset="0.9982" style="stop-color:#FFFFFF"/>
		</linearGradient>
		<polygon class="st13" points="251.4,135 251.4,132.7 249.9,132.7 249.9,131.1 245.6,129.1 240.8,131.1 240.8,132.7 238.3,132.7 
			238.3,135.1 237.3,135.1 237.3,160.5 252.9,160.5 252.9,135 		"/>
		
			<linearGradient id="SVGID_15_" gradientUnits="userSpaceOnUse" x1="263.0391" y1="-1500.8724" x2="263.0391" y2="-1442.8765" gradientTransform="matrix(1 0 0 1 0 1601.9999)">
			<stop  offset="0" style="stop-color:#BAE2FF"/>
			<stop  offset="0.6042" style="stop-color:#C8DFFA"/>
			<stop  offset="0.9982" style="stop-color:#FFFFFF"/>
		</linearGradient>
		<rect x="258.9" y="127.3" class="st14" width="8.3" height="34.4"/>
	</g>
	<g>
		
			<linearGradient id="SVGID_16_" gradientUnits="userSpaceOnUse" x1="320.9676" y1="-1499.6107" x2="320.9676" y2="-1444.4091" gradientTransform="matrix(1 0 0 1 0 1601.9999)">
			<stop  offset="0" style="stop-color:#BAE2FF"/>
			<stop  offset="0.6042" style="stop-color:#C8DFFA"/>
			<stop  offset="0.9982" style="stop-color:#FFFFFF"/>
		</linearGradient>
		<polygon class="st15" points="327,125.3 323.6,125.3 323.6,128.6 316.4,128.6 316.4,122.6 313.7,122.6 313.7,128.6 311.3,128.6 
			311.3,160.3 330.7,160.3 330.7,128.6 327,128.6 		"/>
		
			<linearGradient id="SVGID_17_" gradientUnits="userSpaceOnUse" x1="302.3546" y1="-1499.6107" x2="302.3546" y2="-1444.4092" gradientTransform="matrix(1 0 0 1 0 1601.9999)">
			<stop  offset="0" style="stop-color:#BAE2FF"/>
			<stop  offset="0.6042" style="stop-color:#C8DFFA"/>
			<stop  offset="0.9982" style="stop-color:#FFFFFF"/>
		</linearGradient>
		<polygon class="st16" points="299.3,119.2 299.4,160 305.4,160 305.3,123.3 		"/>
		
			<linearGradient id="SVGID_18_" gradientUnits="userSpaceOnUse" x1="340.2125" y1="-1497.1069" x2="340.2125" y2="-1444.2844" gradientTransform="matrix(1 0 0 1 0 1601.9999)">
			<stop  offset="0" style="stop-color:#BAE2FF"/>
			<stop  offset="0.6042" style="stop-color:#C8DFFA"/>
			<stop  offset="0.9982" style="stop-color:#FFFFFF"/>
		</linearGradient>
		<polygon class="st17" points="343.9,121.2 343.9,118.3 342.2,118.3 342.2,113.9 340.9,113.9 340.3,105.6 339.6,113.9 338.5,113.9 
			338.5,118.3 336.6,118.3 336.6,121.2 334.6,121.2 334.6,160.5 345.8,160.5 345.8,121.2 		"/>
		
			<linearGradient id="SVGID_19_" gradientUnits="userSpaceOnUse" x1="289.4966" y1="-1498.0096" x2="289.4966" y2="-1442.808" gradientTransform="matrix(1 0 0 1 0 1601.9999)">
			<stop  offset="0" style="stop-color:#BAE2FF"/>
			<stop  offset="0.6042" style="stop-color:#C8DFFA"/>
			<stop  offset="0.9982" style="stop-color:#FFFFFF"/>
		</linearGradient>
		<polygon class="st18" points="294.4,138.6 292.7,138.6 292.7,137.7 291.6,137.7 291.6,133.4 292.4,133.4 292.4,132.7 291.2,132.7 
			289.5,129.8 287.8,132.7 286.5,132.7 286.5,133.4 287.4,133.4 287.4,137.7 286.3,137.7 286.3,138.6 284.6,138.6 284.6,144.3 
			283.2,144.3 283.2,160.1 295.8,160.1 295.8,144.3 294.4,144.3 		"/>
		
			<linearGradient id="SVGID_20_" gradientUnits="userSpaceOnUse" x1="383.109" y1="-1503.1968" x2="383.109" y2="-1441.333" gradientTransform="matrix(1 0 0 1 0 1601.9999)">
			<stop  offset="0" style="stop-color:#BAE2FF"/>
			<stop  offset="0.6042" style="stop-color:#C8DFFA"/>
			<stop  offset="0.9982" style="stop-color:#FFFFFF"/>
		</linearGradient>
		<polygon class="st19" points="384.9,140 384.9,135.2 383.5,135.2 383.5,132.1 379,137.6 379,137.6 379,162 387.2,162.2 387.2,140 
					"/>
		
			<linearGradient id="SVGID_21_" gradientUnits="userSpaceOnUse" x1="353.4833" y1="-1499.6107" x2="353.4833" y2="-1444.4088" gradientTransform="matrix(1 0 0 1 0 1601.9999)">
			<stop  offset="0" style="stop-color:#BAE2FF"/>
			<stop  offset="0.6042" style="stop-color:#C8DFFA"/>
			<stop  offset="0.9982" style="stop-color:#FFFFFF"/>
		</linearGradient>
		<polygon class="st20" points="359.8,135 359.8,132.7 358.3,132.7 358.3,131.1 354,129.1 349.2,131.1 349.2,132.7 346.7,132.7 
			346.7,135.1 345.7,135.1 345.7,160.5 361.3,160.5 361.3,135 		"/>
		
			<linearGradient id="SVGID_22_" gradientUnits="userSpaceOnUse" x1="371.4306" y1="-1500.8724" x2="371.4306" y2="-1442.8765" gradientTransform="matrix(1 0 0 1 0 1601.9999)">
			<stop  offset="0" style="stop-color:#BAE2FF"/>
			<stop  offset="0.6042" style="stop-color:#C8DFFA"/>
			<stop  offset="0.9982" style="stop-color:#FFFFFF"/>
		</linearGradient>
		<rect x="367.3" y="127.3" class="st21" width="8.3" height="34.4"/>
	</g>
	<path class="st22" d="M307-9.6c-3.5-1.2-7.3-1.4-10.9-0.6l-1.3,1.3c-4.5-1.6-27,3.8-27,4.7c0,1.2,34.5,0.2,42.6-0.8
		C313.8-6.1,309.2-8.8,307-9.6z"/>
	<path class="st22" d="M173.7,38.9c-3.5-1.2-7.3-1.4-10.9-0.6l-1.3,1.3c-4.5-1.6-27,3.8-27,4.7c0,1.2,34.5,0.2,42.6-0.8
		C180.5,42.4,175.9,39.7,173.7,38.9z"/>
</g>
<g>
	<path class="st23" d="M146.1,136.9c1.2-3.3,4.6-5.8,8-7.7c-2.9-1.8-3.7-5.2-4.3-8.4c-0.2-1.1-0.4-2.2,0-3.3c1.2-3.2,6.6-3.9,9.3-2
		c1.5,1.1,2.3,2.7,2.8,4.4c0.3-1.4,1.3-2.9,2.6-3.9c2.7-2.1,6.7-2.4,9.6-1.3c0.8,0.3,1.5,0.7,2,1.3c0.4,0.5,0.6,1.1,0.8,1.7
		c1.5,5.3,1.1,11.2-1.3,16.7c1.2-2.8,5.6-4.3,8.5-3.1c2.9,1.2,4.1,4.2,3.7,7.1c-0.4,2.9-2.3,5.7-4.3,8.2l-15.3,13.7
		c-4.1-4.2-16.6-3.7-18.1-7.5c-1.1-2.8-0.2-6.2,1.1-9.2C147.3,144.1,144.9,140.2,146.1,136.9z"/>
	<path class="st24" d="M167.2,152.1l-0.9-0.5c0.6-1.3,1.6-2.9,2.6-4.4c0.4-0.6,0.8-1,1.2-1.5c0.4-0.5,0.8-0.9,1.2-1.4
		c0.2-0.3,0.4-0.6,0.6-0.8c0.6-0.8,1.3-1.2,2.2-1.8c0.2-0.2,0.5-0.3,0.7-0.4c0.4-0.2,1.1-0.7,1.3-1.1l0.4,0.2
		c-0.4,0.9-1.1,1.2-1.7,1.6c-0.2,0.1-0.4,0.2-0.6,0.3c-0.6,0.4-1,1.1-1.5,1.8c-0.2,0.3-0.4,0.6-0.6,0.9c-0.4,0.6-0.8,1.1-1.3,1.6
		c-0.4,0.4-0.8,0.9-1.1,1.3C168.6,149.3,167.7,150.8,167.2,152.1z"/>
	<path class="st24" d="M173.1,184.9l2.3-0.8c-2.3-7.4-7-25.1-8-33c-0.7-5.3-0.7-10.2,0.1-14.8c0.5-3,0.9-6,2-8.7l-0.7-0.3
		c-0.7,1.7-1.7,3.4-2.2,5.2c-1.4,5.7-1.7,12-0.8,18.9C166.8,159.5,170.7,177.5,173.1,184.9z"/>
	<path class="st24" d="M165.7,152.1l1.5-0.8c-0.7-1.5-1.9-3.2-3.3-4.8c-0.5-0.6-1.1-1.1-1.6-1.5c-0.6-0.5-1.1-0.9-1.6-1.5
		c-0.2-0.3-0.5-0.6-0.7-0.9c-0.7-0.9-1.8-1.2-3-1.7c-0.3-0.2-0.7-0.3-1.1-0.4c-0.7-0.2-1.6-0.6-1.8-1l-0.7,0.4
		c0.5,0.9,1.5,1.3,2.3,1.5c0.3,0.1,0.6,0.2,0.8,0.3c0.8,0.3,1.4,1.1,2,2c0.2,0.3,0.5,0.7,0.8,1c0.6,0.6,1.1,1.1,1.7,1.6
		c0.6,0.4,1.1,0.9,1.5,1.4C163.9,149.1,165,150.8,165.7,152.1z"/>
	<path class="st24" d="M163.3,128.5c0,0,0.6,1.7,1.3,3.5c0.7,1.7,1.5,4,1.5,4l1.4-1.4c0,0-0.9-1.6-1.8-3.1c-0.9-1.6-1.7-3.2-1.7-3.2
		L163.3,128.5z"/>
	<path class="st24" d="M171.6,134.4c0,0-0.1,0.1-0.3,0.1c-0.2,0.1-0.4,0.2-0.8,0.4c-0.6,0.3-1.4,0.9-2.2,1.5
		c-0.7,0.6-1.4,1.3-1.9,1.9c-0.4,0.6-0.7,1-0.7,1l1.3,1.4c0,0,0.3-1,0.7-1.6c0.3-0.6,0.8-1.3,1.4-2c0.6-0.7,1.3-1.2,1.8-1.7
		c0.5-0.4,0.9-0.7,0.9-0.7L171.6,134.4z"/>
	<path class="st24" d="M152.9,144.5c0.1,0,0.1,0,0.2-0.1c0.2-0.1,0.4-0.1,0.8-0.1c0.3-0.1,0.7-0.1,1.1-0.1c0.4-0.1,0.8-0.1,1.2-0.1
		c0.8,0,1.7,0.1,2.3,0.1c0.6,0.1,1.1,0.2,1.1,0.2l0.1-1.6c0,0-0.4,0.1-1.1,0.2c-0.7,0.1-1.6,0.2-2.4,0.3c-0.4,0.1-0.9,0.1-1.3,0.2
		c-0.4,0.1-0.8,0.1-1.1,0.2c-0.3,0.1-0.6,0.1-0.8,0.2c-0.1,0-0.2,0.1-0.2,0.1l-0.1-0.1C152.7,143.7,152.8,144.5,152.9,144.5z"/>
</g>
<g>
	<path class="st25" d="M334.9,123.5c-1.8-2.9-4.7-4.8-7.4-6.6c3-1.3,3.9-6.2,2.1-9.2c-1.8-3-5.3-4.2-8.6-4c-3.3,0.3-6.3,1.8-9.3,3.3
		c-0.1-5.4-0.3-11-2.1-16c-1.8-5-5.9-9.5-10.8-9.9c-5.5-0.5-10.6,4.2-12.8,9.8c-2.2,5.6-2.3,11.9-2.3,18c-3.1-0.5-6.2-0.8-9.2-0.1
		c-3,0.7-6,2.6-7.3,5.7c-0.9,2-1,4.2-1,6.4c0.3,9.3,5,18.4,12.1,23.5c5.9,4.2,13.5,5.9,17.7,12l3-0.9c2.6-1,5.3-2.1,7.9-3.1
		c1.1-0.4,2.2-0.9,3-1.8c1-1,1.4-2.5,2-3.8c1.8-4.4,5.6-7.7,9.8-8.7c4.9-1.2,11-0.2,13.8-4.7C337.4,130.5,336.7,126.4,334.9,123.5z"
		/>
	<path class="st26" d="M291.9,185.9l-3.7-1.2c4.1-13.3,6.5-18.6,8.4-32.6c1.3-9.5,1.5-18.3,0.4-26.4c-0.7-5.3-1.1-10.7-2.8-15.4
		l1.2-0.5c1,3,2.5,5.9,3.2,9.2c2.1,10.1,2.3,21.3,0.6,33.6C297.1,166.8,295.9,172.5,291.9,185.9z"/>
	<path class="st26" d="M300,141.4l-2.3-1.3c1.2-2.7,3.2-5.9,5.5-8.7c0.9-1,1.8-1.9,2.6-2.8c0.9-0.9,1.8-1.8,2.6-2.7
		c0.4-0.5,0.8-1,1.2-1.7c1.2-1.7,3-2.2,4.9-3.2c0.6-0.3,1.2-0.5,1.7-0.7c1-0.4,2.6-1.2,2.9-1.8l1.1,0.6c-0.8,1.8-2.5,2.3-3.8,2.8
		c-0.5,0.2-1,0.4-1.4,0.6c-1.3,0.7-2.3,2.1-3.3,3.6c-0.4,0.6-0.9,1.2-1.3,1.8c-0.9,1.1-1.8,2.1-2.8,3c-0.9,0.9-1.7,1.7-2.5,2.6
		C303,136,301.1,139,300,141.4z"/>
	<path class="st26" d="M304,111.3c0,0-1,3.1-2.2,6.2c-1.2,3.1-2.6,7.1-2.6,7.1l-2.2-2.4c0,0,1.5-2.8,3-5.7c1.5-2.9,2.8-5.8,2.8-5.8
		L304,111.3z"/>
	<path class="st26" d="M290.6,122.3c0,0,0.2,0.1,0.4,0.3c0.3,0.1,0.7,0.4,1.2,0.7c1,0.6,2.3,1.5,3.4,2.6c1.2,1.1,2.2,2.3,2.9,3.3
		c0.7,1,1.1,1.7,1.1,1.7l-2.2,2.5c0,0-0.4-1.8-1-2.8c-0.5-1-1.3-2.2-2.2-3.4c-0.9-1.2-2-2.2-2.8-2.8c-0.8-0.7-1.5-1.1-1.5-1.1
		L290.6,122.3z"/>
	<path class="st26" d="M320.8,127.3c-0.1,0-0.2-0.1-0.4-0.1c-0.3-0.1-0.7-0.1-1.2-0.2c-0.5-0.1-1.1-0.1-1.7-0.2
		c-0.6-0.1-1.3-0.1-2-0.1c-1.3,0-2.7,0.2-3.8,0.3c-1,0.2-1.7,0.3-1.7,0.3l-0.1-2.9c0,0,0.7,0.1,1.8,0.2c1,0.1,2.5,0.3,3.9,0.4
		c0.7,0.1,1.4,0.2,2,0.3c0.7,0.1,1.3,0.2,1.8,0.3c0.5,0.1,0.9,0.2,1.2,0.3c0.1,0,0.3,0.1,0.4,0.1c0,0,0.1-0.1,0.1-0.1
		C321.1,125.8,320.9,127.3,320.8,127.3z"/>
</g>
<ellipse class="st27" cx="235.8" cy="184.5" rx="67.9" ry="16.6"/>
<g>
	<g>
		<g>
			<path class="st28" d="M198.8,80.5c0.4,2.3,0.8,4.5,1.3,6.7c5.8,24.5,21.7,42,40.4,42c18.8,0,34.7-17.6,40.4-42
				c0.6-2.3,1-4.7,1.3-7.1c-0.1,0-0.3-0.1-0.4-0.1h-82C199.5,80.1,199.1,80.2,198.8,80.5z"/>
			<path class="st29" d="M270.9,110.7c-7.8,11.4-18.5,18.5-30.4,18.5c-16.3,0-30.6-13.4-37.7-33.1c15.1,1.2,26.5,20.8,39.7,12.3
				C250.8,102.9,263.2,107.1,270.9,110.7z"/>
			<path class="st30" d="M197.5,83.6c0,1,0.3,1.9,0.7,2.5c0.4,0.7,1,1,1.7,1h82c1.3,0,2.5-1.6,2.5-3.6c0-1-0.3-1.9-0.7-2.5
				c-0.4-0.5-0.8-0.9-1.3-1c-0.1,0-0.3-0.1-0.4-0.1h-82c-0.4,0-0.9,0.2-1.2,0.4C198,81.1,197.5,82.3,197.5,83.6z"/>
			<path class="st31" d="M198.2,83.9c0.4,0.7,1,1,1.7,1h82c1.1,0,2-1,2.3-2.5c0.1,0.4,0.1,0.7,0.1,1.1c0,2-1.1,3.6-2.5,3.6h-82
				c-0.7,0-1.3-0.4-1.7-1c-0.4-0.7-0.7-1.5-0.7-2.5c0-0.4,0.1-0.7,0.1-1.1C197.7,83,197.9,83.5,198.2,83.9z"/>
			<path class="st22" d="M273.7,91.8c0,0-6.5,26.4-25.3,32.6c0,0,15.6-19.4,17.3-32.6H273.7z"/>
			<path class="st28" d="M198.6,184.6c0.4-2.3,0.8-4.5,1.3-6.7c5.8-24.5,21.7-42,40.4-42s34.7,17.6,40.4,42c0.6,2.3,1,4.7,1.3,7.1
				c-0.1,0-0.3,0.1-0.4,0.1h-82C199.4,185,199,184.8,198.6,184.6z"/>
			<path class="st29" d="M205.6,185c6.1-10.8,21-34.3,35.7-34.3c14.3,0,27,22.8,32.5,34.3H205.6z"/>
			<path class="st30" d="M197.4,181.5c0-1,0.3-1.9,0.7-2.5c0.4-0.7,1-1,1.7-1h82c1.3,0,2.5,1.6,2.5,3.6c0,1-0.3,1.9-0.7,2.5
				c-0.4,0.5-0.8,0.9-1.3,1c-0.1,0-0.3,0.1-0.4,0.1h-82c-0.4,0-0.9-0.2-1.2-0.4C197.9,184,197.4,182.8,197.4,181.5z"/>
			<path class="st31" d="M198.6,182.4c0.4,0.3,0.7,0.4,1.2,0.4h82c0.1,0,0.3,0,0.4-0.1c0.5-0.1,1-0.5,1.3-1c0.3-0.4,0.5-0.9,0.6-1.5
				c0.1,0.3,0.1,0.7,0.1,1c0,1-0.3,1.9-0.7,2.5c-0.4,0.5-0.8,0.9-1.3,1c-0.1,0-0.3,0.1-0.4,0.1h-82c-0.4,0-0.9-0.2-1.2-0.4
				c-0.7-0.6-1.3-1.8-1.3-3.1c0-0.4,0.1-0.7,0.1-1C197.7,181.3,198.1,182,198.6,182.4z"/>
			<path class="st28" d="M247.5,125.1c-1-0.4-5.5,0.9-5.3,8.1c0.1,7.1,5.7,10.6,5.7,10.6l-14.7,0.6c0,0,7.6-3.8,7.6-11.3
				c-0.1-7.5-4.5-8.7-4.5-8.7L247.5,125.1z"/>
			<path class="st29" d="M247.7,122.6l0.6,4.1l-5.5,2.5c0,0-0.9,2.6-0.2,6.7l-0.1,15.4h-2.2l0.1-15.6c0,0,0.8-3-0.2-6.6l-5.8-5.6
				L247.7,122.6z"/>
			<path class="st22" d="M273.7,173.6h-12.6c0,0-0.5-20-12.7-30.3C248.4,143.3,263.9,145.8,273.7,173.6z"/>
			<path class="st22" d="M224.8,120.6c0,0-10.5-12.1-11.3-24.4h-6.7C206.8,96.2,213.7,112.3,224.8,120.6z"/>
			<path class="st22" d="M222.3,147.6c0,0-10.7,7.5-16.7,25.9h9.3C214.9,173.6,212.9,163.3,222.3,147.6z"/>
		</g>
	</g>
	<g>
		<path class="st32" d="M223.4,31.2l-2.7-3.6c-0.2,0.6-0.4,1.1-0.7,1.6c0.9,0.7,1.7,1.8,1.9,3.2c0.4,3.3,0.3,3.1,2,2.1
			C225.6,33.4,223.4,31.2,223.4,31.2z"/>
		<path class="st33" d="M219.5,26l-1.9,1.8c0,0,1.3,0.4,2.5,1.3c0.3-0.5,0.5-1,0.7-1.6L219.5,26z"/>
		<path class="st32" d="M217.7,24.1c-1.2,1.1-2.8,2.2-4.4,1.8c0.1,1.6,0.6,4.1,1.4,4.2c0.6,0.1,1.7-0.4,2.8-1.1
			C218.1,27.5,218.6,25.9,217.7,24.1z"/>
		<path class="st33" d="M213.1,24.6c0,0,0,0.6,0.1,1.3c1.7,0.3,3.3-0.8,4.4-1.8c1,1.8,0.4,3.4-0.2,5c1.6-1,3.3-2.7,3.8-4.4
			C222.1,21.7,219.1,17.8,213.1,24.6z"/>
		<path class="st30" d="M218,23.1c0,0-5.1,5.8-10.3-0.5s10.9-15.1,14.1-3.1c0,0,8.7-3.3,8.9,6.9c0,0,22.6,1.7,13.9,20.9
			c-7,15.5-22-6.3-21-16.2l-4.7-6.3c0,0,1.3-1.9,0.3-2.3C218.1,22.1,218,23.1,218,23.1z"/>
		<path class="st33" d="M197.7,68.2c-0.1,0.7,0.4,1,0.4,1s15.1-5.3,19.1-12l3.7-13.3c-0.6,0-1.1-0.1-1.6-0.3
			c-1.1,4.5-0.7,10.1-3.4,13.5C211.2,62.9,204.6,65.8,197.7,68.2z"/>
		<path class="st32" d="M213.1,54.9c0,0-8.2,8.4-12.5,10.7c-2,1.1-2.7,2-2.8,2.6c6.8-2.3,13.5-5.2,18.1-11.1c2.8-3.4,2.3-9,3.4-13.5
			c-0.9-0.3-1.7-0.7-2.5-1.2C215.6,46.9,214.5,51.7,213.1,54.9z"/>
		<path class="st32" d="M223.3,36.1c2-0.8,3.2-3.3,3.8-5.8c-1.3-0.3-2.8,0.1-4.5,1.2c-1,0.7-1.9,1.7-2.6,2.9
			C220.5,35.8,222,36.5,223.3,36.1z"/>
		<path class="st34" d="M219.2,43.6c0.6,0.2,1,0.3,1.6,0.3l0.3-0.8l1.3-1.1c-0.3-0.9-0.6-1.8-1-2.8
			C220.4,40.3,219.7,41.8,219.2,43.6z"/>
		<path class="st35" d="M227,30.3c-0.6,2.6-1.8,5-3.8,5.8c-1.3,0.4-2.7-0.4-3.4-1.7c-1.2,2.2-2.2,5-3,8c0.8,0.5,1.6,0.9,2.5,1.2
			c0.4-1.7,1-3.3,2.2-4.5c0.4,1,0.7,1.9,1,2.8l4.1-3.3c0,0,0.4,0.6,0.9,1.5c1.9-0.4,3.6-1.4,5.1-2.8c-0.7-2-1.7-3.9-2.8-5.7
			C228.9,31,228,30.5,227,30.3z"/>
		<path class="st34" d="M229.7,31.6c1.1,1.8,2,3.6,2.8,5.7c0.3-0.3,0.5-0.5,0.7-0.7C232.2,34.5,231.1,32.8,229.7,31.6z"/>
		<path class="st36" d="M217.3,77c7.1-2,14.7-5.3,20.7-11.1c0,0-8.8-2.4-11.5,1.3c0,0-7.8,0-18.4,1.8C211.9,70.5,215,73.4,217.3,77z
			"/>
		<path class="st33" d="M217.3,77c-2.3-3.6-5.3-6.5-9.2-8c-8.1,1.3-17.7,3.8-26.7,8.1l30.7,36c0,0-9.4-28.7-14.4-33.4
			C197.7,79.7,206.8,79.9,217.3,77z"/>
		<path class="st34" d="M217.7,49.8c0.3,1.2,2.6,3.8,4.7,2.5c0,0,0.3,0.4,0.6,0.9c0.3-0.4,0.6-0.7,0.9-1.2c-0.1-0.3-0.2-0.4-0.3-0.7
			c0.1,0.3,0.2,0.4,0.3,0.7c0.4-0.6,0.7-1.2,1-1.8C222.5,51.6,219.8,51.2,217.7,49.8z"/>
		<path class="st35" d="M227.7,36l-7.4,3.3l0.8,3.8c0,0-3.8,4.2-3.5,6.7c0,0.1,0,0.1,0,0.1c2.2,1.4,4.9,1.7,7.1,0.4
			c-0.3,0.6-0.6,1.2-1,1.8c-0.3,0.4-0.6,0.8-0.9,1.2c1.3,2.4,4.7,8.8,3.6,13.9c0,0,3.8,4.9,11-0.9c0.2-0.1,0.3-0.3,0.5-0.4
			C238,65.8,235.4,45.3,227.7,36z"/>
		<path class="st34" d="M230.1,45.5c0,0.2,2,6.4-3.8,5.2C226.3,50.7,229.6,51,230.1,45.5z"/>
		<path class="st32" d="M236.8,54.7c-1.3-5.8-2.3-11.9-4.4-17.3c-1.5,1.4-3.2,2.4-5.1,2.8c1.3,2.5,3.6,7.5,3.8,12.7
			c0,0-9.7,10.8-15.6,13c0,0-2.3-1.8-4.8-0.8c-1.2,0.5-2,1.4-2.6,2.3c3.3-0.7,6.6,0.1,9.7-1.2C224.5,63.2,230.4,58.5,236.8,54.7z"/>
		<path class="st33" d="M233.2,36.5c-0.3,0.3-0.5,0.5-0.7,0.7c2,5.5,3,11.6,4.4,17.3c-6.4,3.8-12.3,8.5-18.9,11.5
			c-3,1.3-6.4,0.5-9.7,1.2c-0.7,1-1,1.8-1,1.8l9.2-0.8c0,0,16.5-7.7,21.6-13.2C238,55.2,236.8,44,233.2,36.5z"/>
		<g>
			<path class="st37" d="M222.9,68.9l-35.2,2.6c-0.2,0-0.4-0.2-0.4-0.4l-0.1-0.8c0-0.3,0.1-0.4,0.4-0.4l35.2-2.6
				c0.2,0,0.4,0.2,0.4,0.4l0.1,0.8C223.3,68.6,223.1,68.9,222.9,68.9z"/>
			<path class="st30" d="M223,68.9l-18.6,1.3c-0.1,0-0.3-0.1-0.3-0.3l-0.1-1c0-0.2,0.1-0.3,0.3-0.3l18.6-1.3c0.1,0,0.3,0.1,0.3,0.3
				l0.1,1C223.3,68.7,223.1,68.9,223,68.9z"/>
			<polygon class="st37" points="188,69.8 181.9,53.3 199,52 204.7,68.6 			"/>
			<path class="st38" d="M194.5,60.5c0.4,1.5-0.1,3-1,3.3c-0.9,0.3-1.9-0.7-2.3-2.3c-0.4-1.5,0.1-3,1-3.3
				C193.1,57.9,194.1,59,194.5,60.5z"/>
		</g>
		<path class="st34" d="M240.2,69.6c-0.5-1.2-1.2-2.4-2.2-3.8c0,0-12.2,1.9-25.4,5.7c3.1,2.5,5.5,6.2,7.1,10.3
			c6.6-0.5,13.1-2,18.6-6.9C239.9,73.7,240.3,71.7,240.2,69.6z"/>
		<path class="st36" d="M240.2,69.6c0.2,2.1-0.3,4.1-1.8,5.3c-5.5,4.9-11.9,6.5-18.6,6.9c0.2,0.5,0.4,1,0.6,1.5
			C231.4,82.5,244,79.4,240.2,69.6z"/>
		<path class="st33" d="M202.5,82c4,11.6,7.5,23.8,10.1,36c0.1,0.2,0.3,0.3,0.4,0.5c0,0-2.3-24.4-7.8-35c0,0,7.1,0.5,14.9-0.1
			c-0.2-0.5-0.4-1-0.6-1.5C214,82.3,208.1,81.9,202.5,82z"/>
		<path class="st32" d="M212.6,71.6c-7.2,2.1-14.7,4.7-20.8,7.9c0,0,9.1,24.3,20.9,38.5c-2.6-12.2-6.1-24.4-10.1-36
			c5.6-0.1,11.4,0.3,17.2-0.1C218.1,77.8,215.8,74.1,212.6,71.6z"/>
	</g>
</g>
</svg>
