<?xml version="1.0" encoding="utf-8"?>
<!-- Generator: Adobe Illustrator 24.1.2, SVG Export Plug-In . SVG Version: 6.00 Build 0)  -->
<svg version="1.1" id="Layer_1" xmlns="http://www.w3.org/2000/svg" xmlns:xlink="http://www.w3.org/1999/xlink" x="0px" y="0px"
	 viewBox="0 0 460.1 180" style="enable-background:new 0 0 460.1 180;" xml:space="preserve">
<style type="text/css">
	.st0{fill:url(#SVGID_1_);}
	.st1{fill:url(#SVGID_2_);}
	.st2{fill:url(#SVGID_3_);}
	.st3{fill:url(#SVGID_4_);}
	.st4{fill:url(#SVGID_5_);}
	.st5{fill:url(#SVGID_6_);}
	.st6{fill:url(#SVGID_7_);}
	.st7{fill:url(#SVGID_8_);}
	.st8{fill:url(#SVGID_9_);}
	.st9{fill:url(#SVGID_10_);}
	.st10{fill:url(#SVGID_11_);}
	.st11{fill:url(#SVGID_12_);}
	.st12{fill:url(#SVGID_13_);}
	.st13{fill:url(#SVGID_14_);}
	.st14{fill:url(#SVGID_15_);}
	.st15{fill:url(#SVGID_16_);}
	.st16{fill:url(#SVGID_17_);}
	.st17{fill:url(#SVGID_18_);}
	.st18{fill:url(#SVGID_19_);}
	.st19{fill:url(#SVGID_20_);}
	.st20{fill:url(#SVGID_21_);}
	.st21{fill:url(#SVGID_22_);}
	.st22{fill:#FFFFFF;}
	.st23{opacity:0.4;fill:#A8C4E5;enable-background:new    ;}
	.st24{opacity:0.9;}
	.st25{fill:#9EC9FF;}
	.st26{fill:#6B9CE8;}
	.st27{fill:#76A5F0;}
	.st28{fill:#6597E6;}
	.st29{fill:#FF9F65;}
	.st30{fill:#0071BC;}
	.st31{fill:#70A0EB;}
	.st32{fill:#FFBA82;}
	.st33{fill:#3BD7DB;}
	.st34{fill:#58E3E8;}
	.st35{fill:#E1E5F2;}
	.st36{fill:#F2F2F2;}
	.st37{fill:#A8C9FF;}
	.st38{fill:#E0F6FF;}
	.st39{fill:#ED7E94;}
	.st40{fill:#FF96A9;}
	.st41{fill:#322666;}
	.st42{fill:#EAC7ED;}
	.st43{fill:#F6DEF8;}
	.st44{fill:#3F327A;}
	.st45{fill:#DB4A87;}
	.st46{fill:#E5649A;}
	.st47{fill:#FF5B41;}
	.st48{fill:#EA4332;}
</style>
<g>
	
		<linearGradient id="SVGID_1_" gradientUnits="userSpaceOnUse" x1="230.5775" y1="1623.0787" x2="230.5775" y2="1794.4377" gradientTransform="matrix(1 0 0 -1 0 1781.8896)">
		<stop  offset="0" style="stop-color:#E1F5FF"/>
		<stop  offset="1" style="stop-color:#F8FCFF"/>
	</linearGradient>
	<path class="st0" d="M169.7-4.4c-16.8,6.8-21.4,10.9-40.2,20.8c-14.3,7.5-40-3.7-60.5,7.7c-35.1,19.5-9.7,40.3-41.7,65.3
		C-4,113.7,2,152.6,67.3,155.7c20.8,1,109.9,1.6,164.4-0.9c38.9-1.8,164,3.3,185.2-1c44-8.9,40.1-38.5,24.4-60.3
		c-13-18.1-38.9-15.1-29.8-27.8c21.8-30.4-33.2-66.3-97.4-82.6C268.1-28.6,217.6-23.8,169.7-4.4z"/>
	<g>
		
			<linearGradient id="SVGID_2_" gradientUnits="userSpaceOnUse" x1="104.7" y1="1679.5005" x2="104.7" y2="1624.2988" gradientTransform="matrix(1 0 0 -1 0 1781.8896)">
			<stop  offset="0" style="stop-color:#BAE2FF"/>
			<stop  offset="0.6042" style="stop-color:#C8DFFA"/>
			<stop  offset="0.9982" style="stop-color:#FFFFFF"/>
		</linearGradient>
		<polygon class="st1" points="110.7,125.3 107.3,125.3 107.3,128.6 100.2,128.6 100.2,122.6 97.5,122.6 97.5,128.6 95,128.6 
			95,160.3 114.4,160.3 114.4,128.6 110.7,128.6 		"/>
		
			<linearGradient id="SVGID_3_" gradientUnits="userSpaceOnUse" x1="86.05" y1="1679.5005" x2="86.05" y2="1624.299" gradientTransform="matrix(1 0 0 -1 0 1781.8896)">
			<stop  offset="0" style="stop-color:#BAE2FF"/>
			<stop  offset="0.6042" style="stop-color:#C8DFFA"/>
			<stop  offset="0.9982" style="stop-color:#FFFFFF"/>
		</linearGradient>
		<polygon class="st2" points="83,119.2 83.1,160 89.1,160 89,123.3 		"/>
		
			<linearGradient id="SVGID_4_" gradientUnits="userSpaceOnUse" x1="123.95" y1="1676.9967" x2="123.95" y2="1624.1742" gradientTransform="matrix(1 0 0 -1 0 1781.8896)">
			<stop  offset="0" style="stop-color:#BAE2FF"/>
			<stop  offset="0.6042" style="stop-color:#C8DFFA"/>
			<stop  offset="0.9982" style="stop-color:#FFFFFF"/>
		</linearGradient>
		<polygon class="st3" points="127.6,121.2 127.6,118.3 125.9,118.3 125.9,113.9 124.7,113.9 124,105.6 123.4,113.9 122.3,113.9 
			122.3,118.3 120.3,118.3 120.3,121.2 118.3,121.2 118.3,160.5 129.6,160.5 129.6,121.2 		"/>
		
			<linearGradient id="SVGID_5_" gradientUnits="userSpaceOnUse" x1="73.2" y1="1677.8994" x2="73.2" y2="1622.6978" gradientTransform="matrix(1 0 0 -1 0 1781.8896)">
			<stop  offset="0" style="stop-color:#BAE2FF"/>
			<stop  offset="0.6042" style="stop-color:#C8DFFA"/>
			<stop  offset="0.9982" style="stop-color:#FFFFFF"/>
		</linearGradient>
		<polygon class="st4" points="78.1,138.6 76.5,138.6 76.5,137.7 75.3,137.7 75.3,133.4 76.2,133.4 76.2,132.7 75,132.7 73.2,129.8 
			71.5,132.7 70.3,132.7 70.3,133.4 71.1,133.4 71.1,137.7 70,137.7 70,138.6 68.3,138.6 68.3,144.3 66.9,144.3 66.9,160.1 
			79.5,160.1 79.5,144.3 78.1,144.3 		"/>
		
			<linearGradient id="SVGID_6_" gradientUnits="userSpaceOnUse" x1="166.85" y1="1683.0865" x2="166.85" y2="1621.2228" gradientTransform="matrix(1 0 0 -1 0 1781.8896)">
			<stop  offset="0" style="stop-color:#BAE2FF"/>
			<stop  offset="0.6042" style="stop-color:#C8DFFA"/>
			<stop  offset="0.9982" style="stop-color:#FFFFFF"/>
		</linearGradient>
		<polygon class="st5" points="168.7,140 168.7,135.2 167.3,135.2 167.3,132.1 162.8,137.6 162.8,137.6 162.8,162 170.9,162.2 
			170.9,140 		"/>
		
			<linearGradient id="SVGID_7_" gradientUnits="userSpaceOnUse" x1="137.2" y1="1679.5005" x2="137.2" y2="1624.2986" gradientTransform="matrix(1 0 0 -1 0 1781.8896)">
			<stop  offset="0" style="stop-color:#BAE2FF"/>
			<stop  offset="0.6042" style="stop-color:#C8DFFA"/>
			<stop  offset="0.9982" style="stop-color:#FFFFFF"/>
		</linearGradient>
		<polygon class="st6" points="143.5,135 143.5,132.7 142,132.7 142,131.1 137.7,129.1 132.9,131.1 132.9,132.7 130.4,132.7 
			130.4,135.1 129.4,135.1 129.4,160.5 145,160.5 145,135 		"/>
		
			<linearGradient id="SVGID_8_" gradientUnits="userSpaceOnUse" x1="155.15" y1="1680.7622" x2="155.15" y2="1622.7662" gradientTransform="matrix(1 0 0 -1 0 1781.8896)">
			<stop  offset="0" style="stop-color:#BAE2FF"/>
			<stop  offset="0.6042" style="stop-color:#C8DFFA"/>
			<stop  offset="0.9982" style="stop-color:#FFFFFF"/>
		</linearGradient>
		<rect x="151" y="127.3" class="st7" width="8.3" height="34.4"/>
	</g>
	<g>
		
			<linearGradient id="SVGID_9_" gradientUnits="userSpaceOnUse" x1="212.6" y1="1679.5005" x2="212.6" y2="1624.2988" gradientTransform="matrix(1 0 0 -1 0 1781.8896)">
			<stop  offset="0" style="stop-color:#BAE2FF"/>
			<stop  offset="0.6042" style="stop-color:#C8DFFA"/>
			<stop  offset="0.9982" style="stop-color:#FFFFFF"/>
		</linearGradient>
		<polygon class="st8" points="218.6,125.3 215.2,125.3 215.2,128.6 208,128.6 208,122.6 205.3,122.6 205.3,128.6 202.9,128.6 
			202.9,160.3 222.3,160.3 222.3,128.6 218.6,128.6 		"/>
		
			<linearGradient id="SVGID_10_" gradientUnits="userSpaceOnUse" x1="193.95" y1="1679.5005" x2="193.95" y2="1624.299" gradientTransform="matrix(1 0 0 -1 0 1781.8896)">
			<stop  offset="0" style="stop-color:#BAE2FF"/>
			<stop  offset="0.6042" style="stop-color:#C8DFFA"/>
			<stop  offset="0.9982" style="stop-color:#FFFFFF"/>
		</linearGradient>
		<polygon class="st9" points="190.9,119.2 191,160 197,160 196.9,123.3 		"/>
		
			<linearGradient id="SVGID_11_" gradientUnits="userSpaceOnUse" x1="231.8" y1="1676.9967" x2="231.8" y2="1624.1742" gradientTransform="matrix(1 0 0 -1 0 1781.8896)">
			<stop  offset="0" style="stop-color:#BAE2FF"/>
			<stop  offset="0.6042" style="stop-color:#C8DFFA"/>
			<stop  offset="0.9982" style="stop-color:#FFFFFF"/>
		</linearGradient>
		<polygon class="st10" points="235.5,121.2 235.5,118.3 233.8,118.3 233.8,113.9 232.6,113.9 231.9,105.6 231.2,113.9 230.1,113.9 
			230.1,118.3 228.2,118.3 228.2,121.2 226.2,121.2 226.2,160.5 237.4,160.5 237.4,121.2 		"/>
		
			<linearGradient id="SVGID_12_" gradientUnits="userSpaceOnUse" x1="181.1" y1="1677.8994" x2="181.1" y2="1622.6978" gradientTransform="matrix(1 0 0 -1 0 1781.8896)">
			<stop  offset="0" style="stop-color:#BAE2FF"/>
			<stop  offset="0.6042" style="stop-color:#C8DFFA"/>
			<stop  offset="0.9982" style="stop-color:#FFFFFF"/>
		</linearGradient>
		<polygon class="st11" points="186,138.6 184.3,138.6 184.3,137.7 183.2,137.7 183.2,133.4 184.1,133.4 184.1,132.7 182.8,132.7 
			181.1,129.8 179.4,132.7 178.2,132.7 178.2,133.4 179,133.4 179,137.7 177.9,137.7 177.9,138.6 176.2,138.6 176.2,144.3 
			174.8,144.3 174.8,160.1 187.4,160.1 187.4,144.3 186,144.3 		"/>
		
			<linearGradient id="SVGID_13_" gradientUnits="userSpaceOnUse" x1="274.75" y1="1683.0865" x2="274.75" y2="1621.2228" gradientTransform="matrix(1 0 0 -1 0 1781.8896)">
			<stop  offset="0" style="stop-color:#BAE2FF"/>
			<stop  offset="0.6042" style="stop-color:#C8DFFA"/>
			<stop  offset="0.9982" style="stop-color:#FFFFFF"/>
		</linearGradient>
		<polygon class="st12" points="276.5,140 276.5,135.2 275.1,135.2 275.1,132.1 270.7,137.6 270.7,137.6 270.7,162 278.8,162.2 
			278.8,140 		"/>
		
			<linearGradient id="SVGID_14_" gradientUnits="userSpaceOnUse" x1="245.1" y1="1679.5005" x2="245.1" y2="1624.2986" gradientTransform="matrix(1 0 0 -1 0 1781.8896)">
			<stop  offset="0" style="stop-color:#BAE2FF"/>
			<stop  offset="0.6042" style="stop-color:#C8DFFA"/>
			<stop  offset="0.9982" style="stop-color:#FFFFFF"/>
		</linearGradient>
		<polygon class="st13" points="251.4,135 251.4,132.7 249.9,132.7 249.9,131.1 245.6,129.1 240.8,131.1 240.8,132.7 238.3,132.7 
			238.3,135.1 237.3,135.1 237.3,160.5 252.9,160.5 252.9,135 		"/>
		
			<linearGradient id="SVGID_15_" gradientUnits="userSpaceOnUse" x1="263.05" y1="1680.7622" x2="263.05" y2="1622.7662" gradientTransform="matrix(1 0 0 -1 0 1781.8896)">
			<stop  offset="0" style="stop-color:#BAE2FF"/>
			<stop  offset="0.6042" style="stop-color:#C8DFFA"/>
			<stop  offset="0.9982" style="stop-color:#FFFFFF"/>
		</linearGradient>
		<rect x="258.9" y="127.3" class="st14" width="8.3" height="34.4"/>
	</g>
	<g>
		
			<linearGradient id="SVGID_16_" gradientUnits="userSpaceOnUse" x1="321" y1="1679.5005" x2="321" y2="1624.2988" gradientTransform="matrix(1 0 0 -1 0 1781.8896)">
			<stop  offset="0" style="stop-color:#BAE2FF"/>
			<stop  offset="0.6042" style="stop-color:#C8DFFA"/>
			<stop  offset="0.9982" style="stop-color:#FFFFFF"/>
		</linearGradient>
		<polygon class="st15" points="327,125.3 323.6,125.3 323.6,128.6 316.4,128.6 316.4,122.6 313.7,122.6 313.7,128.6 311.3,128.6 
			311.3,160.3 330.7,160.3 330.7,128.6 327,128.6 		"/>
		
			<linearGradient id="SVGID_17_" gradientUnits="userSpaceOnUse" x1="302.35" y1="1679.5005" x2="302.35" y2="1624.299" gradientTransform="matrix(1 0 0 -1 0 1781.8896)">
			<stop  offset="0" style="stop-color:#BAE2FF"/>
			<stop  offset="0.6042" style="stop-color:#C8DFFA"/>
			<stop  offset="0.9982" style="stop-color:#FFFFFF"/>
		</linearGradient>
		<polygon class="st16" points="299.3,119.2 299.4,160 305.4,160 305.3,123.3 		"/>
		
			<linearGradient id="SVGID_18_" gradientUnits="userSpaceOnUse" x1="340.2" y1="1676.9967" x2="340.2" y2="1624.1742" gradientTransform="matrix(1 0 0 -1 0 1781.8896)">
			<stop  offset="0" style="stop-color:#BAE2FF"/>
			<stop  offset="0.6042" style="stop-color:#C8DFFA"/>
			<stop  offset="0.9982" style="stop-color:#FFFFFF"/>
		</linearGradient>
		<polygon class="st17" points="343.9,121.2 343.9,118.3 342.2,118.3 342.2,113.9 340.9,113.9 340.3,105.6 339.6,113.9 338.5,113.9 
			338.5,118.3 336.6,118.3 336.6,121.2 334.6,121.2 334.6,160.5 345.8,160.5 345.8,121.2 		"/>
		
			<linearGradient id="SVGID_19_" gradientUnits="userSpaceOnUse" x1="289.5" y1="1677.8994" x2="289.5" y2="1622.6978" gradientTransform="matrix(1 0 0 -1 0 1781.8896)">
			<stop  offset="0" style="stop-color:#BAE2FF"/>
			<stop  offset="0.6042" style="stop-color:#C8DFFA"/>
			<stop  offset="0.9982" style="stop-color:#FFFFFF"/>
		</linearGradient>
		<polygon class="st18" points="294.4,138.6 292.7,138.6 292.7,137.7 291.6,137.7 291.6,133.4 292.4,133.4 292.4,132.7 291.2,132.7 
			289.5,129.8 287.8,132.7 286.5,132.7 286.5,133.4 287.4,133.4 287.4,137.7 286.3,137.7 286.3,138.6 284.6,138.6 284.6,144.3 
			283.2,144.3 283.2,160.1 295.8,160.1 295.8,144.3 294.4,144.3 		"/>
		
			<linearGradient id="SVGID_20_" gradientUnits="userSpaceOnUse" x1="383.1" y1="1683.0865" x2="383.1" y2="1621.2228" gradientTransform="matrix(1 0 0 -1 0 1781.8896)">
			<stop  offset="0" style="stop-color:#BAE2FF"/>
			<stop  offset="0.6042" style="stop-color:#C8DFFA"/>
			<stop  offset="0.9982" style="stop-color:#FFFFFF"/>
		</linearGradient>
		<polygon class="st19" points="384.9,140 384.9,135.2 383.5,135.2 383.5,132.1 379,137.6 379,137.6 379,162 387.2,162.2 387.2,140 
					"/>
		
			<linearGradient id="SVGID_21_" gradientUnits="userSpaceOnUse" x1="353.5" y1="1679.5005" x2="353.5" y2="1624.2986" gradientTransform="matrix(1 0 0 -1 0 1781.8896)">
			<stop  offset="0" style="stop-color:#BAE2FF"/>
			<stop  offset="0.6042" style="stop-color:#C8DFFA"/>
			<stop  offset="0.9982" style="stop-color:#FFFFFF"/>
		</linearGradient>
		<polygon class="st20" points="359.8,135 359.8,132.7 358.3,132.7 358.3,131.1 354,129.1 349.2,131.1 349.2,132.7 346.7,132.7 
			346.7,135.1 345.7,135.1 345.7,160.5 361.3,160.5 361.3,135 		"/>
		
			<linearGradient id="SVGID_22_" gradientUnits="userSpaceOnUse" x1="371.45" y1="1680.7622" x2="371.45" y2="1622.7662" gradientTransform="matrix(1 0 0 -1 0 1781.8896)">
			<stop  offset="0" style="stop-color:#BAE2FF"/>
			<stop  offset="0.6042" style="stop-color:#C8DFFA"/>
			<stop  offset="0.9982" style="stop-color:#FFFFFF"/>
		</linearGradient>
		<rect x="367.3" y="127.3" class="st21" width="8.3" height="34.4"/>
	</g>
	<path class="st22" d="M307-9.6c-3.5-1.2-7.3-1.4-10.9-0.6l-1.3,1.3c-4.5-1.6-27,3.8-27,4.7c0,1.2,34.5,0.2,42.6-0.8
		C313.8-6.1,309.2-8.8,307-9.6z"/>
	<path class="st22" d="M173.7,38.9c-3.5-1.2-7.3-1.4-10.9-0.6l-1.3,1.3c-4.5-1.6-27,3.8-27,4.7c0,1.2,34.5,0.2,42.6-0.8
		C180.5,42.4,175.9,39.7,173.7,38.9z"/>
</g>
<ellipse class="st23" cx="234" cy="163" rx="96.8" ry="5.9"/>
<g>
	<g class="st24">
		<path class="st25" d="M302,127.4c18.2,0,32.9-15.5,32.9-34.6S320.2,58.3,302,58.3c-2.2,0-4.3,0.2-6.5,0.7c0.1-0.8,0.1-1.5,0.1-2.3
			c0-15-11.7-27.2-26-27.2c-4.6,0-9.1,1.3-12.9,3.6c-3.1-7.2-7.9-13.6-13.9-18.5c-8-6.5-17.6-9.8-27.7-9.8
			c-10.4,0-20.7,3.8-28.8,10.7c-6.8,5.9-11.9,13.6-14.6,22.3c-0.7-0.1-1.3-0.1-2-0.1c-12.1,0-22,10.4-22,23.1c0,1.3,0.1,2.7,0.3,3.9
			c-13.3,3.4-23,16-23,30.9c0,17.6,13.6,31.8,30.3,31.8H302V127.4z"/>
		<path class="st26" d="M154.1,68.6c-1-2.4-1.7-5-1.7-7.8c0-10.1,7.8-18.3,17.4-18.3c1.9,0,3.6,0.3,5.3,0.9
			c4-19.3,20.4-33.8,40.1-33.8c18.8,0,34.6,13.2,39.5,31.3c3.9-4,9.2-6.5,15.1-6.5c11.8,0,21.4,10,21.4,22.4c0,3.5-0.8,6.8-2.1,9.7
			c3.9-2.1,8.3-3.3,13-3.3c15.7,0,28.4,13.3,28.4,29.8c0,16.5-12.7,29.8-28.4,29.8H155.5c-14.2,0-25.7-12.1-25.7-27
			C129.7,81.2,140.5,69.3,154.1,68.6z"/>
		<path class="st27" d="M174.2,76.6c-0.8-1.8-1.2-3.7-1.2-5.8c0-7.5,5.8-13.6,12.9-13.6c1.4,0,2.7,0.2,3.9,0.7
			c3-14.4,15.1-25.1,29.7-25.1c13.9,0,25.6,9.8,29.2,23.1c2.9-3,6.8-4.9,11.2-4.9c8.7,0,15.8,7.5,15.8,16.6c0,2.6-0.6,5-1.5,7.2
			c2.9-1.5,6.2-2.5,9.7-2.5c11.6,0,21,9.9,21,22c0,12.2-9.4,22-21,22H175.3c-10.5,0-19-8.9-19-20C156.1,86,164.2,77.2,174.2,76.6z"
			/>
		<path class="st28" d="M155.4,96.6c0-10.7,7.7-19.5,17.7-20.7c-0.6-1.7-0.9-3.4-0.9-5.1c0-7.9,6.1-14.3,13.6-14.3
			c1.2,0,2.3,0.2,3.4,0.4c1.6-6.8,5.4-13.1,10.6-17.6c5.5-4.7,12.5-7.3,19.6-7.3c13.5,0,25.5,9.2,29.6,22.5c3-2.8,6.8-4.3,10.8-4.3
			c9.1,0,16.6,7.8,16.6,17.3c0,2-0.3,3.9-0.9,5.7c2.7-1.2,5.4-1.7,8.3-1.7c12,0,21.7,10.2,21.7,22.8s-9.7,22.8-21.7,22.8H175.3
			C164.3,117.4,155.4,108.1,155.4,96.6z M274.5,75.6l-1.9,1l0.9-2c1-2.2,1.5-4.5,1.5-6.9c0-8.8-6.8-15.9-15.1-15.9
			c-4,0-7.8,1.7-10.7,4.6l-0.8,0.9l-0.3-1.2c-3.6-13.3-15.4-22.6-28.5-22.6c-13.9,0-26.1,10.3-29,24.5l-0.2,0.8l-0.7-0.2
			c-1.2-0.4-2.4-0.6-3.7-0.6c-6.7,0-12.2,5.7-12.2,12.8c0,1.9,0.4,3.8,1.2,5.5l0.4,1l-1,0.1c-9.8,0.6-17.4,9-17.4,19.3
			c0,10.7,8.2,19.3,18.4,19.3H284c11.2,0,20.3-9.6,20.3-21.3s-9.1-21.3-20.3-21.3C280.6,73.3,277.4,74.1,274.5,75.6z"/>
		<polygon class="st28" points="308,122 308.3,120.5 285.1,116 284.9,117.4 		"/>
		<polygon class="st28" points="151,122.2 170.1,116.4 169.7,115 150.6,120.8 		"/>
		<polygon class="st28" points="174,77.5 174.5,76.1 154,67.9 153.4,69.2 		"/>
		<polygon class="st28" points="189.4,58.6 190.4,57.5 175.6,42.8 174.6,43.9 		"/>
		<polygon class="st28" points="249.5,56.5 255.6,40.9 254.3,40.4 248.2,55.9 		"/>
		<polygon class="st28" points="274.5,75.6 288.9,66.9 288.2,65.6 273.8,74.4 		"/>
		<g>
			<g>
				<polygon class="st29" points="196.8,113.3 198.7,112.9 195.1,89.4 193.2,89.9 				"/>
				<rect x="175.7" y="89.7" class="st30" width="1.9" height="23.9"/>
				<polygon class="st30" points="200.4,113.5 202.3,112.9 197.4,89.8 195.6,90.3 				"/>
				<polygon class="st22" points="187.8,113.5 189.7,113.4 188.2,88.1 186.4,88.3 				"/>
				<g>
					<rect x="170" y="89.2" class="st22" width="5.1" height="24.4"/>
					<rect x="172" y="91.2" class="st31" width="1.3" height="6.9"/>
					<rect x="172" y="99.1" class="st31" width="1.3" height="1.9"/>
					<rect x="172" y="101.9" class="st31" width="1.3" height="3.1"/>
				</g>
				<g>
					<rect x="178.1" y="87.8" class="st32" width="3.8" height="25.7"/>
					<rect x="179.2" y="89.6" class="st22" width="0.9" height="9.2"/>
					<rect x="179.2" y="101.4" class="st22" width="0.9" height="9.2"/>
				</g>
				<g>
					<polygon class="st33" points="191.6,113.6 195.6,112.9 192.7,88.1 188.7,88.7 					"/>
					<polygon class="st22" points="190.2,93.1 191.3,93 190.9,89.6 189.8,89.8 					"/>
					<polygon class="st22" points="190.7,97.6 191.8,97.4 191.4,94 190.3,94.2 					"/>
					<polygon class="st22" points="191.7,106.1 192.8,105.9 191.9,98.7 190.9,98.8 					"/>
					<polygon class="st22" points="192.4,111.4 193.4,111.3 192.5,104 191.5,104.2 					"/>
				</g>
				<g>
					<polygon class="st30" points="183.5,113.5 187.2,113.2 185.9,89.4 182.1,89.7 					"/>
					<polygon class="st22" points="184.3,98.5 185.3,98.4 184.9,91.2 183.9,91.2 					"/>
					<polygon class="st22" points="184.5,102.4 185.5,102.3 185.4,99.6 184.4,99.6 					"/>
				</g>
			</g>
			<g>
				<path class="st34" d="M193.9,92.7h12c1.5,0.2,3,0.2,4.4,0h11.9c0.6,0,1,0.4,1,1v19.7c0,0.6-0.4,1-1,1h-11.9
					c-1.5,0.2-3,0.2-4.4,0h-12c-0.6,0-1-0.4-1-1V93.7C192.9,93.1,193.3,92.7,193.9,92.7z"/>
				<path class="st35" d="M194.9,93.8c4.3-0.3,8.6-0.3,12.9,0.1h0.6l0,0c4.2-0.3,8.4-0.3,12.6-0.1c0.4,0,0.8,0.4,0.8,0.8
					c0,5.9,0,11.8,0,17.7c0,0.4-0.3,0.8-0.8,0.7c-4.2-0.3-8.4-0.2-12.6,0.1h-0.6l0,0c-4.3-0.3-8.6-0.3-12.9-0.1
					c-0.4,0-0.8-0.3-0.8-0.7c0-5.9,0-11.8,0-17.7C194.1,94.2,194.5,93.9,194.9,93.8z"/>
				<path class="st22" d="M219.7,93.8c0.4,0,0.7,0.4,0.7,0.8c0,5.9,0,11.8,0,17.7c0,0.4-0.3,0.8-0.7,0.7c-3.8-0.3-8,0.1-11.3,0.1
					c0-6.4,0-12.9,0-19.3C212.1,93.6,215.9,93.5,219.7,93.8z"/>
				<path class="st22" d="M196.2,93.8c3.9-0.3,7.7-0.3,11.7,0.1c0,6.4,0,12.9,0,19.3c-4.1,0-7.7-0.3-11.7-0.1
					c-0.4,0-0.7-0.3-0.7-0.7c0-5.9,0-11.8,0-17.7C195.6,94.2,195.8,93.9,196.2,93.8z"/>
				<rect x="207.9" y="93.9" class="st36" width="0.5" height="19.3"/>
				<rect x="207.9" y="93.9" class="st37" width="0.5" height="19.3"/>
				<g>
					<rect x="209.2" y="94.9" class="st38" width="9.7" height="0.5"/>
					<rect x="209.2" y="96.1" class="st38" width="9.7" height="0.5"/>
					<rect x="209.2" y="97.4" class="st38" width="9.7" height="0.5"/>
					<rect x="209.2" y="98.6" class="st38" width="9.7" height="0.5"/>
					<rect x="209.2" y="99.8" class="st38" width="9.7" height="0.5"/>
					<rect x="209.2" y="101.1" class="st38" width="9.7" height="0.5"/>
					<rect x="209.2" y="102.3" class="st38" width="9.7" height="0.5"/>
					<rect x="209.2" y="103.5" class="st38" width="9.7" height="0.5"/>
					<rect x="209.2" y="104.8" class="st38" width="9.7" height="0.5"/>
					<rect x="209.2" y="106" class="st38" width="9.7" height="0.5"/>
					<rect x="209.2" y="107.2" class="st38" width="9.7" height="0.5"/>
					<rect x="209.2" y="108.5" class="st38" width="9.7" height="0.5"/>
					<rect x="209.2" y="109.7" class="st38" width="9.7" height="0.5"/>
					<rect x="209.2" y="110.9" class="st38" width="9.7" height="0.5"/>
					<rect x="197.2" y="94.9" class="st38" width="9.7" height="0.5"/>
					<rect x="197.2" y="96.1" class="st38" width="9.7" height="0.5"/>
					<rect x="197.2" y="97.4" class="st38" width="9.7" height="0.5"/>
					<rect x="197.2" y="98.6" class="st38" width="9.7" height="0.5"/>
					<rect x="197.2" y="99.8" class="st38" width="9.7" height="0.5"/>
					<rect x="197.2" y="101.1" class="st38" width="9.7" height="0.5"/>
					<rect x="197.2" y="102.3" class="st38" width="9.7" height="0.5"/>
					<rect x="197.2" y="103.5" class="st38" width="9.7" height="0.5"/>
					<rect x="197.2" y="104.8" class="st38" width="9.7" height="0.5"/>
					<rect x="197.2" y="106" class="st38" width="9.7" height="0.5"/>
					<rect x="197.2" y="107.2" class="st38" width="9.7" height="0.5"/>
					<rect x="197.2" y="108.5" class="st38" width="9.7" height="0.5"/>
					<rect x="197.2" y="109.7" class="st38" width="9.7" height="0.5"/>
					<rect x="197.2" y="110.9" class="st38" width="9.7" height="0.5"/>
				</g>
				<polygon class="st32" points="202.8,109.7 204,108.2 205.2,109.7 205.2,93.5 202.8,93.5 				"/>
			</g>
		</g>
	</g>
	<g>
		<path class="st39" d="M287.9,67.2c0,0,0.1,0.3,0.2,0.8c0.3-0.3,0.5-0.7,0.7-1L287.9,67.2z"/>
		<path class="st39" d="M291.3,66.9l-0.2-0.7l-2.2,0.7c-0.2,0.4-0.4,0.7-0.7,1c0.1,0.3,0.2,0.8,0.3,1.4
			C289.4,68.7,290.4,67.8,291.3,66.9z"/>
		<path class="st40" d="M287.6,63.1c-1.5-0.8-3.2,0.4-4.9,0.7l-0.5,3l0.8-0.3c0.1,1.4,0.4,2.7,1,3c0.7,0.4,2-0.2,3.4-0.9
			c0.1-0.1,0.2-0.1,0.3-0.2C289,66.6,289.8,64.2,287.6,63.1z"/>
		<path class="st39" d="M291.9,59.1c-1.2-1.5-8.9,3.1-8.9,3.1l-0.3,1.7c1.7-0.4,3.4-1.5,4.9-0.7c2.2,1.1,1.4,3.4,0.2,5.4
			c1.7-1,3.3-2.3,3.3-2.3S293.1,60.6,291.9,59.1z"/>
		<path class="st41" d="M292.8,56.5c-11.9,1.7-18.2,7.8-18.2,7.8c8,0,15-2.7,15-2.7s-0.4-2.4,1-1.2c1.4,1.2,0,2.5,0,2.5l0.4,3.5
			C295.1,62.6,292.8,56.5,292.8,56.5z"/>
		<path class="st41" d="M299.2,105.8c0,0,14.1,11.7-30.3,22.7c0,0-6.2,21.3-21.5,32.9l8.9-39.9l30.1-12.8
			C286.4,108.6,295.7,102.9,299.2,105.8z"/>
		<path class="st42" d="M282,87.8c0,0,0.9,2.9,1.9,6.5c-0.2-2.4-0.4-4.7-1-7.1C282.3,87.6,282,87.8,282,87.8z"/>
		<path class="st43" d="M299.9,79.4c-3.8-0.4-14.1,6-17.1,7.8c0.7,2.3,0.9,4.7,1,7.1c0.3,1.3,0.7,2.7,1,4.1c4-0.1,7.9-0.6,11.6-2.3
			C297.9,90.7,299.6,85.1,299.9,79.4z"/>
		<path class="st42" d="M300,101.3c1.2-7,2.9-19.5,0.9-21.4c-0.2-0.2-0.6-0.3-1-0.4c-0.3,5.7-1.9,11.3-3.5,16.8
			c-3.7,1.6-7.6,2.2-11.6,2.3c0.5,2.3,0.9,4.5,1,6.5C290.8,105.1,295.5,103.3,300,101.3z"/>
		<path class="st43" d="M285.9,104.9c0.1,0.8,0.1,1.5,0.1,2.1c-0.3,5.9,13.3-1.2,13.3-1.2s0.3-1.8,0.8-4.5
			C295.5,103.3,290.8,105.1,285.9,104.9z"/>
		<path class="st42" d="M274.9,99.8c-5,2.2-9.7,5.6-15.2,6.7l0.2,0.9c0,0,11.4-2.8,16.4-6.5c0,0,4.3-6.3,5.8-13.1l0.9-0.3
			c-0.2-0.8-0.5-1.6-0.8-2.4C280.4,90.4,277.8,95.2,274.9,99.8z"/>
		<path class="st44" d="M286.4,108.6c0,0-34.3-0.6-48.5,7.8c0,0,20.6,17.7,53.9,17.9c0,0-19.7-15.5-27-16.5L286.4,108.6z"/>
		<path class="st45" d="M298.3,107.6c-3.4-4.1-6.2-12.4-7.4-18.2c-0.8,0.2-1.6,0.3-2.4,0.4c0.1,3.6,0.3,7.2,0.5,10.9
			c0.4,4.6,1.4,9.1,2.5,13.5C292.1,113.8,298.3,107.6,298.3,107.6z"/>
		<path class="st46" d="M288.5,89.8c-0.6,0.1-1.3,0.2-1.9,0.4c-1.5,9.4-3.1,17.2-3.1,17.2s7.7,6.5,7.9,6.8c0,0,0,0,0.1,0
			c-1-4.5-2-8.9-2.5-13.5C288.8,97,288.5,93.4,288.5,89.8z"/>
		<path class="st39" d="M280.9,106.8c-1.5-0.2-2.4-1.6-2.9-3c-2.2,1.3-4,3.5-6.3,4.6c0.8,0.3,2.4,0.1,5.6-3.1c0,0,1.9,6.3,8.5,1.8
			c0,0,1.5,0.1,3.7-0.1c0-0.6,0-1.2-0.1-1.8c-1.4,0.2-2.8,0.3-4.2,0.5C284.2,105.8,282.7,107.3,280.9,106.8z"/>
		<path class="st40" d="M285.8,100c-4.5,0-6.5-0.2-7.5,0.3c-0.9,0.5-7.3,7.1-7.3,7.1s0.1,0.7,0.7,0.9c2.3-1.1,4.1-3.3,6.3-4.6
			c0.5,1.4,1.4,2.7,2.9,3c1.7,0.5,3.2-1,4.5-1.1c1.4-0.2,2.8-0.3,4.2-0.5c-0.2-1.9-1-3.8-2.2-5.3C286.8,99.9,286.3,100,285.8,100z"
			/>
		<path class="st42" d="M289.6,106.9c0.6,0,1.3-0.1,1.9-0.1c-0.1-0.7-0.1-1.3-0.2-1.9c-0.6,0.1-1.2,0.2-1.8,0.2
			C289.6,105.8,289.7,106.4,289.6,106.9z"/>
		<path class="st42" d="M287.4,99.9c1.2,1.5,1.9,3.4,2.2,5.3c0.6-0.1,1.2-0.2,1.8-0.2c-0.3-1.9-0.9-3.8-2.1-5.3
			C288.7,99.7,288,99.8,287.4,99.9z"/>
		<path class="st42" d="M306.2,75.9c-0.8-1.1-1.6-2-2.5-2.8c1.3,1.5,2.3,3.2,2.8,5.2c1.5,5.5,0.6,10.7-0.7,16
			c-0.7,2.9-2,5.5-2.2,8.3c-3.9,1-8,1.7-12,2.3c0.1,0.6,0.2,1.3,0.2,1.9c4.1-0.3,9.4-1,12.7-2.8C304.3,104,311.5,83.8,306.2,75.9z"
			/>
		<polygon class="st41" points="289,132.2 295.3,130.1 287.4,149.2 		"/>
		<polygon class="st41" points="249.9,159.3 253.8,163.4 230.1,170.1 		"/>
		<path class="st43" d="M305.7,94.3c1.4-5.4,2.2-10.5,0.7-16c-0.5-2-1.5-3.7-2.8-5.2c-5.6-4.5-13.5-2.3-13.5-2.3s-5.7,1.4-9.3,3.5
			l-9.1,20.9l-12.5,8.3l0.4,2.9c5.5-1,10.2-4.4,15.2-6.7c3-4.6,5.6-9.4,7.2-14.6c0.3,0.8,0.6,1.5,0.8,2.4l16.2-4.9
			c0,0,0,13.5-0.9,14.6c0,0-4.6,1.5-8.8,2.3c1.2,1.5,1.8,3.4,2.1,5.3c4-0.6,8.1-1.3,12-2.3C303.7,99.8,304.9,97.2,305.7,94.3z"/>
		<path class="st40" d="M288.4,69.3c0.3,1.5,0.7,3.8,0.8,6.1c0,0,1.8-2,2.9-5l-0.9-3.6C290.4,67.8,289.4,68.7,288.4,69.3z"/>
		<polygon class="st45" points="289.2,75.9 288.4,77.5 289.2,79.3 290.1,77.6 		"/>
		<path class="st46" d="M289.2,77.8c-1.1,4.3-1.9,8.5-2.5,12.4c0.6-0.2,1.2-0.3,1.9-0.4C288.4,85.8,288.6,81.8,289.2,77.8z"/>
		<path class="st45" d="M289.3,77.6c0,0.1-0.1,0.2-0.1,0.2c-0.6,4-0.7,8-0.7,12c0.8-0.1,1.6-0.2,2.4-0.4
			C289.6,83,289.3,77.6,289.3,77.6z"/>
		<polygon class="st42" points="289.2,75.9 291.4,80 294,70.9 291.3,78.3 		"/>
		<polygon class="st42" points="289.2,75.9 287.5,79.6 287.3,72.1 287.8,77.6 		"/>
		<g>
			<path class="st47" d="M285.6,110h-39.7v-1.7c0-0.2,0.2-0.4,0.4-0.4h38.9c0.2,0,0.4,0.2,0.4,0.4L285.6,110L285.6,110z"/>
			<rect x="245.9" y="109.1" class="st48" width="39.7" height="0.8"/>
			<polygon class="st47" points="247,107.8 237.1,88.4 264.7,88.4 274.2,107.8 			"/>
			<polygon class="st48" points="264.7,88.4 264.2,88.4 273.5,107.3 246.6,107.3 247,107.8 274.2,107.8 			"/>
			<path class="st48" d="M258.2,98c0.8,1.5,0.4,3.2-0.8,3.8c-1.2,0.6-2.8-0.1-3.5-1.5c-0.8-1.5-0.4-3.2,0.8-3.8
				C255.9,95.8,257.5,96.5,258.2,98z"/>
		</g>
		<g>
			<path class="st42" d="M291.4,86.8c-0.1,0-0.2-0.1-0.2-0.2c-0.1-0.1,0.1-0.3,0.2-0.3l6.2-1.4c0.1-0.1,0.3,0.1,0.3,0.2
				c0.1,0.1-0.1,0.3-0.2,0.3L291.4,86.8C291.4,86.8,291.4,86.8,291.4,86.8z"/>
		</g>
		<path class="st43" d="M290.9,106.1c0,0.2-0.2,0.4-0.3,0.4c-0.2,0-0.3-0.2-0.3-0.4c0-0.2,0.2-0.4,0.3-0.4S290.9,105.9,290.9,106.1z
			"/>
	</g>
</g>
</svg>
