<?xml version="1.0" encoding="utf-8"?>
<!-- Generator: Adobe Illustrator 24.1.2, SVG Export Plug-In . SVG Version: 6.00 Build 0)  -->
<svg version="1.1" id="Layer_1" xmlns="http://www.w3.org/2000/svg" xmlns:xlink="http://www.w3.org/1999/xlink" x="0px" y="0px"
	 viewBox="0 0 460.1 180" style="enable-background:new 0 0 460.1 180;" xml:space="preserve">
<style type="text/css">
	.st0{fill:url(#SVGID_1_);}
	.st1{fill:url(#SVGID_2_);}
	.st2{fill:url(#SVGID_3_);}
	.st3{fill:url(#SVGID_4_);}
	.st4{fill:url(#SVGID_5_);}
	.st5{fill:url(#SVGID_6_);}
	.st6{fill:url(#SVGID_7_);}
	.st7{fill:url(#SVGID_8_);}
	.st8{fill:url(#SVGID_9_);}
	.st9{fill:url(#SVGID_10_);}
	.st10{fill:url(#SVGID_11_);}
	.st11{fill:url(#SVGID_12_);}
	.st12{fill:url(#SVGID_13_);}
	.st13{fill:url(#SVGID_14_);}
	.st14{fill:url(#SVGID_15_);}
	.st15{fill:url(#SVGID_16_);}
	.st16{fill:url(#SVGID_17_);}
	.st17{fill:url(#SVGID_18_);}
	.st18{fill:url(#SVGID_19_);}
	.st19{fill:url(#SVGID_20_);}
	.st20{fill:url(#SVGID_21_);}
	.st21{fill:url(#SVGID_22_);}
	.st22{fill:#FFFFFF;}
	.st23{opacity:0.4;fill:#A8C4E5;enable-background:new    ;}
	.st24{fill:#C1D9FA;}
	.st25{fill:#A1CCF5;}
	.st26{fill:#A3C4F0;}
	.st27{fill:#C4E2FF;}
	.st28{fill:#F7BE97;}
	.st29{fill:#091A4C;}
	.st30{fill:#FFA92F;}
	.st31{fill:#EF8E1B;}
	.st32{fill:#E8A679;}
	.st33{fill:#0D9CD3;}
	.st34{fill:#EE5830;}
	.st35{fill:#D83B1D;}
	.st36{fill:#20A8F8;}
	.st37{fill:none;stroke:#FFCC71;stroke-width:11.9024;stroke-linecap:round;stroke-miterlimit:10;}
</style>
<g>
	
		<linearGradient id="SVGID_1_" gradientUnits="userSpaceOnUse" x1="230.5775" y1="-113.189" x2="230.5775" y2="-284.548" gradientTransform="matrix(1 0 0 1 0 277.9999)">
		<stop  offset="0" style="stop-color:#E1F5FF"/>
		<stop  offset="1" style="stop-color:#F8FCFF"/>
	</linearGradient>
	<path class="st0" d="M169.7,1.6c-16.8,6.8-21.4,10.9-40.2,20.8c-14.3,7.5-40-3.7-60.5,7.7c-35.1,19.5-9.7,40.3-41.7,65.3
		C-4,119.7,2,158.6,67.3,161.7c20.8,1,109.9,1.6,164.4-0.9c38.9-1.8,164,3.3,185.2-1c44-8.9,40.1-38.5,24.4-60.3
		c-13-18.1-38.9-15.1-29.8-27.8c21.8-30.4-33.2-66.3-97.4-82.6C268.1-22.6,217.6-17.8,169.7,1.6z"/>
	<g>
		
			<linearGradient id="SVGID_2_" gradientUnits="userSpaceOnUse" x1="104.7" y1="-169.6107" x2="104.7" y2="-114.4091" gradientTransform="matrix(1 0 0 1 0 277.9999)">
			<stop  offset="0" style="stop-color:#BAE2FF"/>
			<stop  offset="0.6042" style="stop-color:#C8DFFA"/>
			<stop  offset="0.9982" style="stop-color:#FFFFFF"/>
		</linearGradient>
		<polygon class="st1" points="110.7,131.3 107.3,131.3 107.3,134.6 100.2,134.6 100.2,128.6 97.5,128.6 97.5,134.6 95,134.6 
			95,166.3 114.4,166.3 114.4,134.6 110.7,134.6 		"/>
		
			<linearGradient id="SVGID_3_" gradientUnits="userSpaceOnUse" x1="86.05" y1="-169.6107" x2="86.05" y2="-114.4092" gradientTransform="matrix(1 0 0 1 0 277.9999)">
			<stop  offset="0" style="stop-color:#BAE2FF"/>
			<stop  offset="0.6042" style="stop-color:#C8DFFA"/>
			<stop  offset="0.9982" style="stop-color:#FFFFFF"/>
		</linearGradient>
		<polygon class="st2" points="83,125.2 83.1,166 89.1,166 89,129.3 		"/>
		
			<linearGradient id="SVGID_4_" gradientUnits="userSpaceOnUse" x1="123.95" y1="-167.1068" x2="123.95" y2="-114.2844" gradientTransform="matrix(1 0 0 1 0 277.9999)">
			<stop  offset="0" style="stop-color:#BAE2FF"/>
			<stop  offset="0.6042" style="stop-color:#C8DFFA"/>
			<stop  offset="0.9982" style="stop-color:#FFFFFF"/>
		</linearGradient>
		<polygon class="st3" points="127.6,127.2 127.6,124.3 125.9,124.3 125.9,119.9 124.7,119.9 124,111.6 123.4,119.9 122.3,119.9 
			122.3,124.3 120.3,124.3 120.3,127.2 118.3,127.2 118.3,166.5 129.6,166.5 129.6,127.2 		"/>
		
			<linearGradient id="SVGID_5_" gradientUnits="userSpaceOnUse" x1="73.2" y1="-168.0096" x2="73.2" y2="-112.8081" gradientTransform="matrix(1 0 0 1 0 277.9999)">
			<stop  offset="0" style="stop-color:#BAE2FF"/>
			<stop  offset="0.6042" style="stop-color:#C8DFFA"/>
			<stop  offset="0.9982" style="stop-color:#FFFFFF"/>
		</linearGradient>
		<polygon class="st4" points="78.1,144.6 76.5,144.6 76.5,143.7 75.3,143.7 75.3,139.4 76.2,139.4 76.2,138.7 75,138.7 73.2,135.8 
			71.5,138.7 70.3,138.7 70.3,139.4 71.1,139.4 71.1,143.7 70,143.7 70,144.6 68.3,144.6 68.3,150.3 66.9,150.3 66.9,166.1 
			79.5,166.1 79.5,150.3 78.1,150.3 		"/>
		
			<linearGradient id="SVGID_6_" gradientUnits="userSpaceOnUse" x1="166.85" y1="-173.1967" x2="166.85" y2="-111.333" gradientTransform="matrix(1 0 0 1 0 277.9999)">
			<stop  offset="0" style="stop-color:#BAE2FF"/>
			<stop  offset="0.6042" style="stop-color:#C8DFFA"/>
			<stop  offset="0.9982" style="stop-color:#FFFFFF"/>
		</linearGradient>
		<polygon class="st5" points="168.7,146 168.7,141.2 167.3,141.2 167.3,138.1 162.8,143.6 162.8,143.6 162.8,168 170.9,168.2 
			170.9,146 		"/>
		
			<linearGradient id="SVGID_7_" gradientUnits="userSpaceOnUse" x1="137.2" y1="-169.6107" x2="137.2" y2="-114.4088" gradientTransform="matrix(1 0 0 1 0 277.9999)">
			<stop  offset="0" style="stop-color:#BAE2FF"/>
			<stop  offset="0.6042" style="stop-color:#C8DFFA"/>
			<stop  offset="0.9982" style="stop-color:#FFFFFF"/>
		</linearGradient>
		<polygon class="st6" points="143.5,141 143.5,138.7 142,138.7 142,137.1 137.7,135.1 132.9,137.1 132.9,138.7 130.4,138.7 
			130.4,141.1 129.4,141.1 129.4,166.5 145,166.5 145,141 		"/>
		
			<linearGradient id="SVGID_8_" gradientUnits="userSpaceOnUse" x1="155.15" y1="-170.8723" x2="155.15" y2="-112.8765" gradientTransform="matrix(1 0 0 1 0 277.9999)">
			<stop  offset="0" style="stop-color:#BAE2FF"/>
			<stop  offset="0.6042" style="stop-color:#C8DFFA"/>
			<stop  offset="0.9982" style="stop-color:#FFFFFF"/>
		</linearGradient>
		<rect x="151" y="133.3" class="st7" width="8.3" height="34.4"/>
	</g>
	<g>
		
			<linearGradient id="SVGID_9_" gradientUnits="userSpaceOnUse" x1="212.6" y1="-169.6107" x2="212.6" y2="-114.4091" gradientTransform="matrix(1 0 0 1 0 277.9999)">
			<stop  offset="0" style="stop-color:#BAE2FF"/>
			<stop  offset="0.6042" style="stop-color:#C8DFFA"/>
			<stop  offset="0.9982" style="stop-color:#FFFFFF"/>
		</linearGradient>
		<polygon class="st8" points="218.6,131.3 215.2,131.3 215.2,134.6 208,134.6 208,128.6 205.3,128.6 205.3,134.6 202.9,134.6 
			202.9,166.3 222.3,166.3 222.3,134.6 218.6,134.6 		"/>
		
			<linearGradient id="SVGID_10_" gradientUnits="userSpaceOnUse" x1="193.95" y1="-169.6107" x2="193.95" y2="-114.4092" gradientTransform="matrix(1 0 0 1 0 277.9999)">
			<stop  offset="0" style="stop-color:#BAE2FF"/>
			<stop  offset="0.6042" style="stop-color:#C8DFFA"/>
			<stop  offset="0.9982" style="stop-color:#FFFFFF"/>
		</linearGradient>
		<polygon class="st9" points="190.9,125.2 191,166 197,166 196.9,129.3 		"/>
		
			<linearGradient id="SVGID_11_" gradientUnits="userSpaceOnUse" x1="231.8" y1="-167.1068" x2="231.8" y2="-114.2844" gradientTransform="matrix(1 0 0 1 0 277.9999)">
			<stop  offset="0" style="stop-color:#BAE2FF"/>
			<stop  offset="0.6042" style="stop-color:#C8DFFA"/>
			<stop  offset="0.9982" style="stop-color:#FFFFFF"/>
		</linearGradient>
		<polygon class="st10" points="235.5,127.2 235.5,124.3 233.8,124.3 233.8,119.9 232.6,119.9 231.9,111.6 231.2,119.9 230.1,119.9 
			230.1,124.3 228.2,124.3 228.2,127.2 226.2,127.2 226.2,166.5 237.4,166.5 237.4,127.2 		"/>
		
			<linearGradient id="SVGID_12_" gradientUnits="userSpaceOnUse" x1="181.1" y1="-168.0096" x2="181.1" y2="-112.8081" gradientTransform="matrix(1 0 0 1 0 277.9999)">
			<stop  offset="0" style="stop-color:#BAE2FF"/>
			<stop  offset="0.6042" style="stop-color:#C8DFFA"/>
			<stop  offset="0.9982" style="stop-color:#FFFFFF"/>
		</linearGradient>
		<polygon class="st11" points="186,144.6 184.3,144.6 184.3,143.7 183.2,143.7 183.2,139.4 184.1,139.4 184.1,138.7 182.8,138.7 
			181.1,135.8 179.4,138.7 178.2,138.7 178.2,139.4 179,139.4 179,143.7 177.9,143.7 177.9,144.6 176.2,144.6 176.2,150.3 
			174.8,150.3 174.8,166.1 187.4,166.1 187.4,150.3 186,150.3 		"/>
		
			<linearGradient id="SVGID_13_" gradientUnits="userSpaceOnUse" x1="274.75" y1="-173.1967" x2="274.75" y2="-111.333" gradientTransform="matrix(1 0 0 1 0 277.9999)">
			<stop  offset="0" style="stop-color:#BAE2FF"/>
			<stop  offset="0.6042" style="stop-color:#C8DFFA"/>
			<stop  offset="0.9982" style="stop-color:#FFFFFF"/>
		</linearGradient>
		<polygon class="st12" points="276.5,146 276.5,141.2 275.1,141.2 275.1,138.1 270.7,143.6 270.7,143.6 270.7,168 278.8,168.2 
			278.8,146 		"/>
		
			<linearGradient id="SVGID_14_" gradientUnits="userSpaceOnUse" x1="245.1" y1="-169.6107" x2="245.1" y2="-114.4088" gradientTransform="matrix(1 0 0 1 0 277.9999)">
			<stop  offset="0" style="stop-color:#BAE2FF"/>
			<stop  offset="0.6042" style="stop-color:#C8DFFA"/>
			<stop  offset="0.9982" style="stop-color:#FFFFFF"/>
		</linearGradient>
		<polygon class="st13" points="251.4,141 251.4,138.7 249.9,138.7 249.9,137.1 245.6,135.1 240.8,137.1 240.8,138.7 238.3,138.7 
			238.3,141.1 237.3,141.1 237.3,166.5 252.9,166.5 252.9,141 		"/>
		
			<linearGradient id="SVGID_15_" gradientUnits="userSpaceOnUse" x1="263.05" y1="-170.8723" x2="263.05" y2="-112.8765" gradientTransform="matrix(1 0 0 1 0 277.9999)">
			<stop  offset="0" style="stop-color:#BAE2FF"/>
			<stop  offset="0.6042" style="stop-color:#C8DFFA"/>
			<stop  offset="0.9982" style="stop-color:#FFFFFF"/>
		</linearGradient>
		<rect x="258.9" y="133.3" class="st14" width="8.3" height="34.4"/>
	</g>
	<g>
		
			<linearGradient id="SVGID_16_" gradientUnits="userSpaceOnUse" x1="321" y1="-169.6107" x2="321" y2="-114.4091" gradientTransform="matrix(1 0 0 1 0 277.9999)">
			<stop  offset="0" style="stop-color:#BAE2FF"/>
			<stop  offset="0.6042" style="stop-color:#C8DFFA"/>
			<stop  offset="0.9982" style="stop-color:#FFFFFF"/>
		</linearGradient>
		<polygon class="st15" points="327,131.3 323.6,131.3 323.6,134.6 316.4,134.6 316.4,128.6 313.7,128.6 313.7,134.6 311.3,134.6 
			311.3,166.3 330.7,166.3 330.7,134.6 327,134.6 		"/>
		
			<linearGradient id="SVGID_17_" gradientUnits="userSpaceOnUse" x1="302.35" y1="-169.6107" x2="302.35" y2="-114.4092" gradientTransform="matrix(1 0 0 1 0 277.9999)">
			<stop  offset="0" style="stop-color:#BAE2FF"/>
			<stop  offset="0.6042" style="stop-color:#C8DFFA"/>
			<stop  offset="0.9982" style="stop-color:#FFFFFF"/>
		</linearGradient>
		<polygon class="st16" points="299.3,125.2 299.4,166 305.4,166 305.3,129.3 		"/>
		
			<linearGradient id="SVGID_18_" gradientUnits="userSpaceOnUse" x1="340.2" y1="-167.1068" x2="340.2" y2="-114.2844" gradientTransform="matrix(1 0 0 1 0 277.9999)">
			<stop  offset="0" style="stop-color:#BAE2FF"/>
			<stop  offset="0.6042" style="stop-color:#C8DFFA"/>
			<stop  offset="0.9982" style="stop-color:#FFFFFF"/>
		</linearGradient>
		<polygon class="st17" points="343.9,127.2 343.9,124.3 342.2,124.3 342.2,119.9 340.9,119.9 340.3,111.6 339.6,119.9 338.5,119.9 
			338.5,124.3 336.6,124.3 336.6,127.2 334.6,127.2 334.6,166.5 345.8,166.5 345.8,127.2 		"/>
		
			<linearGradient id="SVGID_19_" gradientUnits="userSpaceOnUse" x1="289.5" y1="-168.0096" x2="289.5" y2="-112.8081" gradientTransform="matrix(1 0 0 1 0 277.9999)">
			<stop  offset="0" style="stop-color:#BAE2FF"/>
			<stop  offset="0.6042" style="stop-color:#C8DFFA"/>
			<stop  offset="0.9982" style="stop-color:#FFFFFF"/>
		</linearGradient>
		<polygon class="st18" points="294.4,144.6 292.7,144.6 292.7,143.7 291.6,143.7 291.6,139.4 292.4,139.4 292.4,138.7 291.2,138.7 
			289.5,135.8 287.8,138.7 286.5,138.7 286.5,139.4 287.4,139.4 287.4,143.7 286.3,143.7 286.3,144.6 284.6,144.6 284.6,150.3 
			283.2,150.3 283.2,166.1 295.8,166.1 295.8,150.3 294.4,150.3 		"/>
		
			<linearGradient id="SVGID_20_" gradientUnits="userSpaceOnUse" x1="383.1" y1="-173.1967" x2="383.1" y2="-111.333" gradientTransform="matrix(1 0 0 1 0 277.9999)">
			<stop  offset="0" style="stop-color:#BAE2FF"/>
			<stop  offset="0.6042" style="stop-color:#C8DFFA"/>
			<stop  offset="0.9982" style="stop-color:#FFFFFF"/>
		</linearGradient>
		<polygon class="st19" points="384.9,146 384.9,141.2 383.5,141.2 383.5,138.1 379,143.6 379,143.6 379,168 387.2,168.2 387.2,146 
					"/>
		
			<linearGradient id="SVGID_21_" gradientUnits="userSpaceOnUse" x1="353.5" y1="-169.6107" x2="353.5" y2="-114.4088" gradientTransform="matrix(1 0 0 1 0 277.9999)">
			<stop  offset="0" style="stop-color:#BAE2FF"/>
			<stop  offset="0.6042" style="stop-color:#C8DFFA"/>
			<stop  offset="0.9982" style="stop-color:#FFFFFF"/>
		</linearGradient>
		<polygon class="st20" points="359.8,141 359.8,138.7 358.3,138.7 358.3,137.1 354,135.1 349.2,137.1 349.2,138.7 346.7,138.7 
			346.7,141.1 345.7,141.1 345.7,166.5 361.3,166.5 361.3,141 		"/>
		
			<linearGradient id="SVGID_22_" gradientUnits="userSpaceOnUse" x1="371.45" y1="-170.8723" x2="371.45" y2="-112.8765" gradientTransform="matrix(1 0 0 1 0 277.9999)">
			<stop  offset="0" style="stop-color:#BAE2FF"/>
			<stop  offset="0.6042" style="stop-color:#C8DFFA"/>
			<stop  offset="0.9982" style="stop-color:#FFFFFF"/>
		</linearGradient>
		<rect x="367.3" y="133.3" class="st21" width="8.3" height="34.4"/>
	</g>
	<path class="st22" d="M307-3.6c-3.5-1.2-7.3-1.4-10.9-0.6l-1.3,1.3c-4.5-1.6-27,3.8-27,4.7c0,1.2,34.5,0.2,42.6-0.8
		C313.8-0.1,309.2-2.8,307-3.6z"/>
	<path class="st22" d="M173.7,44.9c-3.5-1.2-7.3-1.4-10.9-0.6l-1.3,1.3c-4.5-1.6-27,3.8-27,4.7c0,1.2,34.5,0.2,42.6-0.8
		C180.5,48.4,175.9,45.7,173.7,44.9z"/>
</g>
<ellipse class="st23" cx="237.2" cy="159.4" rx="96.8" ry="10.5"/>
<g>
	<path class="st24" d="M327.5,100c-1.8-2.9-4.7-4.8-7.4-6.6c3-1.3,3.9-6.2,2.1-9.2s-5.3-4.2-8.6-4c-3.3,0.3-6.3,1.8-9.3,3.3
		c-0.1-5.4-0.3-11-2.1-16c-1.8-5-5.9-9.5-10.8-9.9c-5.5-0.5-10.6,4.2-12.8,9.8c-2.2,5.6-2.3,11.9-2.3,18c-3.1-0.5-6.2-0.8-9.2-0.1
		c-3,0.7-6,2.6-7.3,5.7c-0.9,2-1,4.2-1,6.4c0.3,9.3,5,18.4,12.1,23.5c5.9,4.2,13.5,5.9,17.7,12l3-0.9c2.6-1,5.3-2.1,7.9-3.1
		c1.1-0.4,2.2-0.9,3-1.8c1-1,1.4-2.5,2-3.8c1.8-4.4,5.6-7.7,9.8-8.7c4.9-1.2,11-0.2,13.8-4.7C330.1,107,329.4,102.9,327.5,100z"/>
	<path class="st25" d="M284.5,162.4l-3.7-1.2c4.1-13.3,6.5-18.6,8.4-32.6c1.3-9.5,1.5-18.3,0.4-26.4c-0.7-5.3-1.1-10.7-2.8-15.4
		l1.2-0.5c1,3,2.5,5.9,3.2,9.2c2.1,10.1,2.3,21.3,0.6,33.6C289.8,143.3,288.6,149,284.5,162.4z"/>
	<path class="st25" d="M292.7,117.9l-2.3-1.3c1.2-2.7,3.2-5.9,5.5-8.7c0.9-1,1.8-1.9,2.6-2.8c0.9-0.9,1.8-1.8,2.6-2.7
		c0.4-0.5,0.8-1,1.2-1.7c1.2-1.7,3-2.2,4.9-3.2c0.6-0.3,1.2-0.5,1.7-0.7c1-0.4,2.6-1.2,2.9-1.8l1.1,0.6c-0.8,1.8-2.5,2.3-3.8,2.8
		c-0.5,0.2-1,0.4-1.4,0.6c-1.3,0.7-2.3,2.1-3.3,3.6c-0.4,0.6-0.9,1.2-1.3,1.8c-0.9,1.1-1.8,2.1-2.8,3c-0.9,0.9-1.7,1.7-2.5,2.6
		C295.7,112.4,293.8,115.5,292.7,117.9z"/>
	<path class="st25" d="M296.7,87.7c0,0-1,3.1-2.2,6.2s-2.6,7.1-2.6,7.1l-2.2-2.4c0,0,1.5-2.8,3-5.7c1.5-2.9,2.8-5.8,2.8-5.8
		L296.7,87.7z"/>
	<path class="st25" d="M283.2,98.7c0,0,0.2,0.1,0.4,0.3c0.3,0.1,0.7,0.4,1.2,0.7c1,0.6,2.3,1.5,3.4,2.6c1.2,1.1,2.2,2.3,2.9,3.3
		c0.7,1,1.1,1.7,1.1,1.7l-2.2,2.5c0,0-0.4-1.8-1-2.8c-0.5-1-1.3-2.2-2.2-3.4c-0.9-1.2-2-2.2-2.8-2.8c-0.8-0.7-1.5-1.1-1.5-1.1
		L283.2,98.7z"/>
	<path class="st25" d="M313.5,103.8c-0.1,0-0.2-0.1-0.4-0.1c-0.3-0.1-0.7-0.1-1.2-0.2s-1.1-0.1-1.7-0.2s-1.3-0.1-2-0.1
		c-1.3,0-2.7,0.2-3.8,0.3c-1,0.2-1.7,0.3-1.7,0.3l-0.1-2.9c0,0,0.7,0.1,1.8,0.2c1,0.1,2.5,0.3,3.9,0.4c0.7,0.1,1.4,0.2,2,0.3
		c0.7,0.1,1.3,0.2,1.8,0.3c0.5,0.1,0.9,0.2,1.2,0.3c0.1,0,0.3,0.1,0.4,0.1l0.1-0.1C313.8,102.3,313.5,103.8,313.5,103.8z"/>
</g>
<g>
	<path class="st26" d="M154.1,112.6c1.2-3.3,4.6-5.8,8-7.7c-2.9-1.8-3.7-5.2-4.3-8.4c-0.2-1.1-0.4-2.2,0-3.3c1.2-3.2,6.6-3.9,9.3-2
		c1.5,1.1,2.3,2.7,2.8,4.4c0.3-1.4,1.3-2.9,2.6-3.9c2.7-2.1,6.7-2.4,9.6-1.3c0.8,0.3,1.5,0.7,2,1.3c0.4,0.5,0.6,1.1,0.8,1.7
		c1.5,5.3,1.1,11.2-1.3,16.7c1.2-2.8,5.6-4.3,8.5-3.1c2.9,1.2,4.1,4.2,3.7,7.1c-0.4,2.9-2.3,5.7-4.3,8.2l-15.3,13.8
		c-4.1-4.2-16.6-3.7-18.1-7.5c-1.1-2.8-0.2-6.2,1.1-9.2C155.2,119.8,152.9,115.9,154.1,112.6z"/>
	<path class="st27" d="M175.1,127.8l-0.9-0.5c0.6-1.3,1.6-2.9,2.6-4.4c0.4-0.6,0.8-1,1.2-1.5s0.8-0.9,1.2-1.4
		c0.2-0.3,0.4-0.6,0.6-0.8c0.6-0.8,1.3-1.2,2.2-1.8c0.2-0.2,0.5-0.3,0.7-0.4c0.4-0.2,1.1-0.7,1.3-1.1l0.4,0.2
		c-0.4,0.9-1.1,1.2-1.7,1.6c-0.2,0.1-0.4,0.2-0.6,0.3c-0.6,0.4-1,1.1-1.5,1.8c-0.2,0.3-0.4,0.6-0.6,0.9c-0.4,0.6-0.8,1.1-1.3,1.6
		c-0.4,0.4-0.8,0.9-1.1,1.3C176.5,125,175.6,126.5,175.1,127.8z"/>
	<path class="st27" d="M181,160.6l2.3-0.8c-2.3-7.4-7-25.1-8-33c-0.7-5.3-0.7-10.2,0.1-14.8c0.5-3,0.9-6,2-8.7l-0.7-0.3
		c-0.7,1.7-1.7,3.4-2.2,5.2c-1.4,5.7-1.7,12-0.8,18.9C174.7,135.2,178.7,153.2,181,160.6z"/>
	<path class="st27" d="M173.6,127.8l1.5-0.8c-0.7-1.5-1.9-3.2-3.3-4.8c-0.5-0.6-1.1-1.1-1.6-1.5c-0.6-0.5-1.1-0.9-1.6-1.5
		c-0.2-0.3-0.5-0.6-0.7-0.9c-0.7-0.9-1.8-1.2-3-1.7c-0.3-0.2-0.7-0.3-1.1-0.4c-0.7-0.2-1.6-0.6-1.8-1l-0.7,0.4
		c0.5,0.9,1.5,1.3,2.3,1.5c0.3,0.1,0.6,0.2,0.8,0.3c0.8,0.3,1.4,1.1,2,2c0.2,0.3,0.5,0.7,0.8,1c0.6,0.6,1.1,1.1,1.7,1.6
		c0.6,0.4,1.1,0.9,1.5,1.4C171.8,124.8,173,126.5,173.6,127.8z"/>
	<path class="st27" d="M171.2,104.1c0,0,0.6,1.7,1.3,3.5c0.7,1.7,1.5,4,1.5,4l1.4-1.4c0,0-0.9-1.6-1.8-3.1c-0.9-1.6-1.7-3.2-1.7-3.2
		L171.2,104.1z"/>
	<path class="st27" d="M179.5,110c0,0-0.1,0.1-0.3,0.1c-0.2,0.1-0.4,0.2-0.8,0.4c-0.6,0.3-1.4,0.9-2.2,1.5c-0.7,0.6-1.4,1.3-1.9,1.9
		c-0.4,0.6-0.7,1-0.7,1l1.3,1.4c0,0,0.3-1,0.7-1.6c0.3-0.6,0.8-1.3,1.4-2c0.6-0.7,1.3-1.2,1.8-1.7c0.5-0.4,0.9-0.7,0.9-0.7
		L179.5,110z"/>
	<path class="st27" d="M160.9,120.2c0.1,0,0.1,0,0.2-0.1c0.2-0.1,0.4-0.1,0.8-0.1c0.3-0.1,0.7-0.1,1.1-0.1c0.4-0.1,0.8-0.1,1.2-0.1
		c0.8,0,1.7,0.1,2.3,0.1c0.6,0.1,1.1,0.2,1.1,0.2l0.1-1.6c0,0-0.4,0.1-1.1,0.2c-0.7,0.1-1.6,0.2-2.4,0.3c-0.4,0.1-0.9,0.1-1.3,0.2
		c-0.4,0.1-0.8,0.1-1.1,0.2s-0.6,0.1-0.8,0.2c-0.1,0-0.2,0.1-0.2,0.1l-0.1-0.1C160.7,119.4,160.8,120.2,160.9,120.2z"/>
</g>
<g>
	<g>
		<path class="st28" d="M241.5,106.5c0.9,2.6,6.8,16,8.7,17.8c-1.3,1.5-2.6,3.1-3.9,4.6c-2-1.3-6-15.7-6.6-20.7L241.5,106.5z"/>
		<path class="st28" d="M238.1,103.3c-0.8-0.4-1.6-0.6-2.4-0.6c-0.3,0-0.7,0-1,0.1c-0.2,0-0.8,0.1-0.7,0.3c0.1,0.1,0.1,0.1,0.2,0.2
			c0.5,0.2,0.9,0.3,1.3,0.5c0.4,0.1,0.7,0.3,1.1,0.4c0.1,0-0.3,0.3-0.3,0.3c-0.2,0.1-0.3,0.3-0.4,0.5c-0.2,0.4-0.2,0.9,0,1.3
			c0.2,0.6,0.8,1.1,1.4,1.5c0.9,0.5,2,0.8,3,0.8c0.5,0,1.1-0.6,1.2-1.1c0.1-0.5-0.1-1-0.3-1.4c-0.6-1-1.6-1.8-2.6-2.4
			C238.5,103.4,238.3,103.3,238.1,103.3z"/>
	</g>
	<path class="st29" d="M228.2,110.9l5.9,0.1c0.3,0,0.6-0.3,0.5-0.6l-3.1-11.1c-0.1-0.2-0.2-0.4-0.5-0.4l-5.9-0.1
		c-0.3,0-0.6,0.3-0.5,0.6l3.1,11.1C227.7,110.8,227.9,110.9,228.2,110.9z"/>
	<g>
		<g>
			<path class="st30" d="M200.9,153.2c1,2.5,2.6,4.4,4.5,5.8c6.6,5,17.4,4.6,25.1,4.3c15.2-0.6,30.6-2.2,44.9-7.4
				c7.5-2.8,13.5-8.4,15.5-16.3c1.6-6.3,0.9-13-0.6-19.3c-1.3-5.7-3.2-11.4-6.3-16.4c-4-6.4-12-15-20.4-12.9
				c-3.5,0.9-6.3,3.4-8.5,6.3c-2.6,3.3-4.7,7.1-6.1,11.2c-1.3,3.9-2,8.2-4.3,11.7c-2.7,4.1-7.3,6.5-12.1,7.5
				c-5.2,1.1-10.4-0.3-15.6,0.6c-5.6,1-10.9,4.1-14.1,8.8C199.6,141.6,198.7,147.9,200.9,153.2z"/>
			<path class="st31" d="M253.6,113.4c-0.1,4.6-1.2,9.3-4.6,12.5c-2.6,2.5-6,3.9-9.5,4.4c-5.4,0.9-11.5,0-16.5-2.6
				c3.2,0.1,6.3,0.3,9.5-0.3c4.8-1,9.4-3.4,12.1-7.5c2.3-3.5,3-7.7,4.3-11.7c0.9-2.7,2.2-5.3,3.7-7.7
				C253.1,104.9,253.8,109.1,253.6,113.4z"/>
			<path class="st31" d="M225.7,162.2c4.1-0.5,8.2-1.3,12.2-2.1c4.2-0.8,8.4-1.6,12.6-2.6c6.8-1.6,13.5-3.7,19.8-6.8
				c5.4-2.7,10.4-6.1,14.4-10.6c3.1-3.5,5.4-7.5,6.9-11.8c0.3,3.8,0.2,7.5-0.7,11.2c-2,7.9-8,13.5-15.5,16.3
				c-14.3,5.3-29.8,6.9-44.9,7.4c-4,0.2-8.8,0.3-13.5-0.2C219.9,162.8,222.8,162.5,225.7,162.2z"/>
			<path class="st31" d="M259.3,127.6c4.1-5.6,6.8-12.2,7.8-19.1c0.3-1.8,0.4-3.7,1.3-5.3c1.6-2.8,5.4-2.9,5,0.8
				c-0.3,3.1-1.5,6.2-2.8,9c-1.3,2.9-3,5.6-4.9,8.1C263.9,123.4,261,125.2,259.3,127.6z"/>
		</g>
		<path class="st32" d="M174,152.1c0.3,0.8,1.2,1.1,2,1c0.8-0.1,1.6-0.4,2.3-0.7c1.4-0.5,2.9-0.6,4.4-0.3c1.1,0.2,2.4,0.5,3.2-0.3
			c0.7-0.7,0.5-1.8,0.5-2.8c0-1.6,0.9-3.2,2.2-4.1c-0.2,0.2-1.1-1.5-1.4-1.5c-0.7-0.2-1.4-0.6-1.9-0.1c-1,1.1-2.3,3.4-3.4,4.3
			C179.5,149.5,176.8,151.1,174,152.1z"/>
		<path class="st28" d="M170.7,160.3c0.2,0.5,0.9,0.5,1.4,0.4c0.6,0,1.2,0,1.8-0.1c1-0.1,2,0.1,3,0.2c1,0.1,2,0,2.9-0.3
			c1.4-0.3,2.4-0.3,3.8,0c1,0.2,2.8,0.3,3.4-0.7c0.4-0.7,0.1-1.6,0.1-2.5c0-1.3,1-2.5,2-3.4c1.6-1.4,3.3-2.6,3.3-4.9
			c0.1-1.7-2.3-3.2-3.8-2.8c-1.2,0.4-1.8,1.7-2.4,2.8c-0.7,1.5-1.7,2.9-2.8,4.2c-1.2,1.3-3,2-4.6,2.8c0,0.1-1.5,0.8-1.6,0.9
			c-0.6,0.3-1.2,0.6-1.8,0.9c-0.6,0.3-1.2,0.6-1.7,0.9c-0.6,0.3-1.1,0.4-1.8,0.5c-0.3,0-0.6,0.1-0.9,0.2
			C170.8,159.7,170.7,160,170.7,160.3z"/>
		<path class="st33" d="M202.5,134.4c-4.2,2.5-5.1,1.3-9,4.2c-0.7,0.5-3.6,2.4-4.5,2.7c-0.5,0.2-1.9,1.8-2.3,2.1
			c-0.8,0.5-3.1,2.6-3.1,2.8c-0.1,0.5,2.7,3.4,4,4.2c2.4,1.4,4.2,3.1,6.9,3.9c0.4,0.1,4.7-6.1,9-9.3c3-2.2,6.1-4.6,9.6-5.8
			c2.9-1,5.5-2.7,8.7-2.9c2.1-0.2,4.3-0.4,6.5-0.5c0.9-0.1,6.3-0.7,6.7,0c-1.6-2.5-3.2-5-4.8-7.6c-1.4-2.2-1.7-3.3-4.3-2.9
			c-5.3,0.9-10.4,2.7-15.2,4.9C207.9,131.4,205.2,132.8,202.5,134.4z"/>
		<path class="st29" d="M268.9,79.6c0.4,1.4,0.7,2.7,1.5,4c1,1.7,2.2,3.4,3.8,4.4c1.1,0.6,2.3,1,3.4,1.5c1.6,0.8,3.1,2.1,3.6,3.8
			s-0.1,3.8-1.7,4.7c-0.6,0.3-1.3,0.4-1.9,0.7c-0.6,0.3-1.2,0.9-1.2,1.6c0.1,1,1.1,1.6,1,2.7c-0.2,1.6-1.9,1.9-3.1,2.6
			c-1.6,0.9-3.1,2.9-4.9,3.3c-6.8,1.8-5.1-6.8-8.3-9.3c-1.2-1-2.9-0.9-4.4-1.4c-3.2-1.1-4.9-4.5-6.2-7.6c-1.4-3.5-2.7-7.3-1.9-11
			c0.6-2.5,2.1-4.7,4.2-6.1C258.9,69.2,267.1,72.6,268.9,79.6z"/>
		<path class="st34" d="M238.4,127.5c1.5,1.2,2.1,3.1,2.9,4.8c0.8,1.7,1.9,3.5,3.7,4.1c1.3,0.4,2.8,0.1,4.1-0.3
			c5.5-1.8,10.2-5.8,13.4-10.6c3.2-4.8,5.1-10.4,6.3-16.1c0.8-4,1-9.2-3-11.7c-2.1-1.3-4.8-0.9-7.2-0.1c-3,1-6.1,2.7-8.3,5
			c-2.2,2.2-5.2,4.8-5.3,8.1c0,0.1,0,0.2,0,0.3c0,1.8,1,3.5,1.1,5.3c0.1,1.5-0.3,3.3-0.8,4.7c-0.3,0.8-0.7,1.6-1.2,2.3
			c-0.5,0.7-1,1.3-1.6,1.9C242.1,125.6,239.1,128,238.4,127.5z"/>
		<path class="st35" d="M244.2,123.3c0.4,0.8,0.7,1.6,0.8,2.4c2.3-1.8,3.9-4.4,4.4-7.3c0.2-1.4,0.2-2.9-0.7-3.9
			c-0.5-0.6-1.2-0.9-1.9-1.4c-0.8-0.5-1.4-1.3-1.8-2.1c0,1.8,1,3.5,1.1,5.3c0.1,1.5-0.3,3.3-0.8,4.7
			C245.1,121.8,244.7,122.6,244.2,123.3z"/>
		<path class="st28" d="M263.7,96.8c-2.7,1.6-4.4,7.5-14.6,7.1c2.8-2.7,6-7,6.9-9.2c0.7-1.6,1.4-3.2,1.2-4.9
			c-0.2-1.7-1.1-2.8-3.1-3.1c1.5-0.9,3.5-1,5.1-1.6c0.7-0.2,1.5-0.1,1.5-0.1S260.7,92.5,263.7,96.8z"/>
		<path class="st32" d="M256.2,94.4c0.6-1.5,1.2-3,1-4.6c-0.2-1.7-1.1-2.8-3.1-3.1c1.5-0.9,3.5-1,5.1-1.6c0.7-0.2,1.5-0.1,1.5-0.1
			s0,2,0.4,4.6C260.5,92.2,258.3,93.3,256.2,94.4z"/>
		<path class="st36" d="M239.2,139c-2.1-0.1-4.2-0.3-6.4-0.6c-4.9-0.6-9.7-1.1-14.6-1.7c-4.2-0.5-8.2-1.2-12.3-0.7
			c-6.7,0.8-11,2.6-16.7,5.8c-0.9,0.5-3.7,2.5-3.7,2.5c-0.5-0.4-1.7-1.4-2.1-2.2c-0.3-0.6,6.6-5.9,9.7-8.5
			c7.6-6.3,17-10.3,26.7-11.7c4.9-0.7,9.8-0.8,14.7-0.1c4.4,0.6,9.9,1.6,13.4,4.4c1.7,1.4,7.2,5.4,5.3,8.2c-1.6,2.3-4.4,3.3-7.1,3.9
			C243.9,138.9,241.6,139,239.2,139z"/>
		<g>
			<path class="st30" d="M221,145.2c8.4,0.5,16.9,1.1,25.2-0.4c4.1-0.7,8.2-2,11.9-4c2.4-1.3,9.1-4.9,9.4-7.9
				c-5.7-1.7-13.3-0.6-19,0.4c-6.3,1.1-12.5,3.2-18.2,6.1C227,141.1,223.9,143,221,145.2z"/>
			<path class="st37" d="M268.3,135.4c-11.4-1-23,1-33.3,5.8"/>
			<path class="st37" d="M230.4,141.5c-5.1-1.9-11.1-1.3-15.7,1.7"/>
		</g>
		<path class="st28" d="M251.1,88.1c0.6,1.5,1.5,2.9,2.7,3.5c2.9,1.6,5.8-0.9,7.6-3.1c1.7-2.2,2.7-4.9,2.5-7.6
			c-0.1-1.6-0.5-3.7-1.8-4.7c-1.3-1-3.1-1.5-4.8-1.6c-1.9,0-4.4,0.5-5.7,2c-1.2,1.4-1.8,3.4-1.8,5.1C249.8,83.4,250.2,86,251.1,88.1
			z"/>
		<path class="st29" d="M254.9,78.4c0.9,1.2,2.5,1.9,3.7,2.9c2.3,1.9,2.2,4.4,2.4,7.6c2.8-1.6,4.8-4,5.4-7.2s-0.6-6.7-3.2-8.6
			c-2.8-2.1-6.9-2-9.8,0c-2.9,2-4.4,5.6-4.2,9c-0.2-0.7,0.2-1.5,0.7-2c0.5-0.5,1.2-0.8,1.8-1.2c1.4-1,2.1-2.7,2.4-4.4
			C253.8,75.8,254.1,77.3,254.9,78.4z"/>
	</g>
	<path class="st28" d="M265.3,104.8c0.6,1.6,0.2,3.4-0.3,5.1c-2.7,8.8-9.2,16.3-17.5,20.3c-1.5,0.7-3.1,1.3-4.7,1
		c-1.6-0.3-2.9-1.6-3.9-2.9c-1.9-2.3-4.7-13.4-6.6-15.9c-0.9-1.1-1.9-2.2-2.6-3.5c-0.8-1.5-1-3.2-1.2-5c0-0.1,0.2-0.2,0.3-0.1
		c1.2,1.4,4,3.4,5.1,4.1l-0.9-3.2c1.2,0.8,2.3,1.9,2.8,3.6c0.4,1.4,0.3,2.9,0.5,4.3c0.4,2.4,5.1,10.6,6.3,10.6c0.7,0,1.4-0.4,2-0.9
		c5.1-3.7,9.1-8.8,11.6-14.5c0.5-1.2,1-2.5,1.8-3.6C259.8,101.8,264.1,101.5,265.3,104.8z"/>
	<path class="st29" d="M266.6,108.3c-1.3-0.8-2.1-2.2-2.5-3.7s-0.5-3-0.6-4.5c-0.3-2.7-1.1-5.4-1.7-8.1c-0.4-1.7-0.8-3.8,0.6-5
		c4.4,3.3,7.4,8.2,9.1,13.4c0.8,2.3,0.9,4.4-0.2,6.6C270.4,108.7,268.3,109.3,266.6,108.3z"/>
</g>
</svg>
