<?xml version="1.0" encoding="utf-8"?>
<!-- Generator: Adobe Illustrator 24.1.2, SVG Export Plug-In . SVG Version: 6.00 Build 0)  -->
<svg version="1.1" id="Layer_1" xmlns="http://www.w3.org/2000/svg" xmlns:xlink="http://www.w3.org/1999/xlink" x="0px" y="0px"
	 viewBox="0 0 460.1 180" style="enable-background:new 0 0 460.1 180;" xml:space="preserve">
<style type="text/css">
	.st0{fill:url(#SVGID_1_);}
	.st1{fill:url(#SVGID_2_);}
	.st2{fill:url(#SVGID_3_);}
	.st3{fill:url(#SVGID_4_);}
	.st4{fill:url(#SVGID_5_);}
	.st5{fill:url(#SVGID_6_);}
	.st6{fill:url(#SVGID_7_);}
	.st7{fill:url(#SVGID_8_);}
	.st8{fill:url(#SVGID_9_);}
	.st9{fill:url(#SVGID_10_);}
	.st10{fill:url(#SVGID_11_);}
	.st11{fill:url(#SVGID_12_);}
	.st12{fill:url(#SVGID_13_);}
	.st13{fill:url(#SVGID_14_);}
	.st14{fill:url(#SVGID_15_);}
	.st15{fill:url(#SVGID_16_);}
	.st16{fill:url(#SVGID_17_);}
	.st17{fill:url(#SVGID_18_);}
	.st18{fill:url(#SVGID_19_);}
	.st19{fill:url(#SVGID_20_);}
	.st20{fill:url(#SVGID_21_);}
	.st21{fill:url(#SVGID_22_);}
	.st22{fill:#FFFFFF;}
	.st23{opacity:0.4;fill:#A8C4E5;enable-background:new    ;}
	.st24{fill:#C1D9FA;}
	.st25{fill:#A1CCF5;}
	.st26{fill:#A3C4F0;}
	.st27{fill:#C4E2FF;}
	.st28{fill:#6C5BF7;}
	.st29{fill:#DD4078;}
	.st30{fill:#D8E3F0;}
	.st31{fill:#DEA749;}
	.st32{fill:#7D8AFF;}
	.st33{fill:#4432DB;}
	.st34{fill:#E655BE;}
	.st35{fill:#FF80DB;}
	.st36{fill:#C74AA4;}
	.st37{fill:#3B2AD1;}
	.st38{fill:#2C1F9C;}
	.st39{fill:#C6D2F2;}
	.st40{fill:#FFC2B0;}
	.st41{fill:#FFBA82;}
	.st42{fill:none;stroke:#FFFFFF;stroke-width:3.1204;stroke-linecap:round;stroke-linejoin:round;stroke-miterlimit:10;}
	.st43{fill:#FFCC46;}
	.st44{fill:#F09A82;}
	.st45{fill:#21DED5;}
	.st46{fill:#A8C4E5;}
	.st47{fill:#E1EAF4;}
	.st48{fill:#5F6CCF;}
</style>
<g>
	
		<linearGradient id="SVGID_1_" gradientUnits="userSpaceOnUse" x1="230.5775" y1="955.0788" x2="230.5775" y2="1126.4377" gradientTransform="matrix(1 0 0 -1 0 1119.8896)">
		<stop  offset="0" style="stop-color:#E1F5FF"/>
		<stop  offset="1" style="stop-color:#F8FCFF"/>
	</linearGradient>
	<path class="st0" d="M169.7,1.6c-16.8,6.8-21.4,10.9-40.2,20.8c-14.3,7.5-40-3.7-60.5,7.7c-35.1,19.5-9.7,40.3-41.7,65.3
		C-4,119.7,2,158.6,67.3,161.7c20.8,1,109.9,1.6,164.4-0.9c38.9-1.8,164,3.3,185.2-1c44-8.9,40.1-38.5,24.4-60.3
		c-13-18.1-38.9-15.1-29.8-27.8c21.8-30.4-33.2-66.3-97.4-82.6C268.1-22.6,217.6-17.8,169.7,1.6z"/>
	<g>
		
			<linearGradient id="SVGID_2_" gradientUnits="userSpaceOnUse" x1="104.7" y1="1011.5005" x2="104.7" y2="956.2989" gradientTransform="matrix(1 0 0 -1 0 1119.8896)">
			<stop  offset="0" style="stop-color:#BAE2FF"/>
			<stop  offset="0.6042" style="stop-color:#C8DFFA"/>
			<stop  offset="0.9982" style="stop-color:#FFFFFF"/>
		</linearGradient>
		<polygon class="st1" points="110.7,131.3 107.3,131.3 107.3,134.6 100.2,134.6 100.2,128.6 97.5,128.6 97.5,134.6 95,134.6 
			95,166.3 114.4,166.3 114.4,134.6 110.7,134.6 		"/>
		
			<linearGradient id="SVGID_3_" gradientUnits="userSpaceOnUse" x1="86.05" y1="1011.5005" x2="86.05" y2="956.299" gradientTransform="matrix(1 0 0 -1 0 1119.8896)">
			<stop  offset="0" style="stop-color:#BAE2FF"/>
			<stop  offset="0.6042" style="stop-color:#C8DFFA"/>
			<stop  offset="0.9982" style="stop-color:#FFFFFF"/>
		</linearGradient>
		<polygon class="st2" points="83,125.2 83.1,166 89.1,166 89,129.3 		"/>
		
			<linearGradient id="SVGID_4_" gradientUnits="userSpaceOnUse" x1="123.95" y1="1008.9966" x2="123.95" y2="956.1742" gradientTransform="matrix(1 0 0 -1 0 1119.8896)">
			<stop  offset="0" style="stop-color:#BAE2FF"/>
			<stop  offset="0.6042" style="stop-color:#C8DFFA"/>
			<stop  offset="0.9982" style="stop-color:#FFFFFF"/>
		</linearGradient>
		<polygon class="st3" points="127.6,127.2 127.6,124.3 125.9,124.3 125.9,119.9 124.7,119.9 124,111.6 123.4,119.9 122.3,119.9 
			122.3,124.3 120.3,124.3 120.3,127.2 118.3,127.2 118.3,166.5 129.6,166.5 129.6,127.2 		"/>
		
			<linearGradient id="SVGID_5_" gradientUnits="userSpaceOnUse" x1="73.2" y1="1009.8994" x2="73.2" y2="954.6978" gradientTransform="matrix(1 0 0 -1 0 1119.8896)">
			<stop  offset="0" style="stop-color:#BAE2FF"/>
			<stop  offset="0.6042" style="stop-color:#C8DFFA"/>
			<stop  offset="0.9982" style="stop-color:#FFFFFF"/>
		</linearGradient>
		<polygon class="st4" points="78.1,144.6 76.5,144.6 76.5,143.7 75.3,143.7 75.3,139.4 76.2,139.4 76.2,138.7 75,138.7 73.2,135.8 
			71.5,138.7 70.3,138.7 70.3,139.4 71.1,139.4 71.1,143.7 70,143.7 70,144.6 68.3,144.6 68.3,150.3 66.9,150.3 66.9,166.1 
			79.5,166.1 79.5,150.3 78.1,150.3 		"/>
		
			<linearGradient id="SVGID_6_" gradientUnits="userSpaceOnUse" x1="166.85" y1="1015.0865" x2="166.85" y2="953.2228" gradientTransform="matrix(1 0 0 -1 0 1119.8896)">
			<stop  offset="0" style="stop-color:#BAE2FF"/>
			<stop  offset="0.6042" style="stop-color:#C8DFFA"/>
			<stop  offset="0.9982" style="stop-color:#FFFFFF"/>
		</linearGradient>
		<polygon class="st5" points="168.7,146 168.7,141.2 167.3,141.2 167.3,138.1 162.8,143.6 162.8,143.6 162.8,168 170.9,168.2 
			170.9,146 		"/>
		
			<linearGradient id="SVGID_7_" gradientUnits="userSpaceOnUse" x1="137.2" y1="1011.5005" x2="137.2" y2="956.2986" gradientTransform="matrix(1 0 0 -1 0 1119.8896)">
			<stop  offset="0" style="stop-color:#BAE2FF"/>
			<stop  offset="0.6042" style="stop-color:#C8DFFA"/>
			<stop  offset="0.9982" style="stop-color:#FFFFFF"/>
		</linearGradient>
		<polygon class="st6" points="143.5,141 143.5,138.7 142,138.7 142,137.1 137.7,135.1 132.9,137.1 132.9,138.7 130.4,138.7 
			130.4,141.1 129.4,141.1 129.4,166.5 145,166.5 145,141 		"/>
		
			<linearGradient id="SVGID_8_" gradientUnits="userSpaceOnUse" x1="155.15" y1="1012.7621" x2="155.15" y2="954.7663" gradientTransform="matrix(1 0 0 -1 0 1119.8896)">
			<stop  offset="0" style="stop-color:#BAE2FF"/>
			<stop  offset="0.6042" style="stop-color:#C8DFFA"/>
			<stop  offset="0.9982" style="stop-color:#FFFFFF"/>
		</linearGradient>
		<rect x="151" y="133.3" class="st7" width="8.3" height="34.4"/>
	</g>
	<g>
		
			<linearGradient id="SVGID_9_" gradientUnits="userSpaceOnUse" x1="212.6" y1="1011.5005" x2="212.6" y2="956.2989" gradientTransform="matrix(1 0 0 -1 0 1119.8896)">
			<stop  offset="0" style="stop-color:#BAE2FF"/>
			<stop  offset="0.6042" style="stop-color:#C8DFFA"/>
			<stop  offset="0.9982" style="stop-color:#FFFFFF"/>
		</linearGradient>
		<polygon class="st8" points="218.6,131.3 215.2,131.3 215.2,134.6 208,134.6 208,128.6 205.3,128.6 205.3,134.6 202.9,134.6 
			202.9,166.3 222.3,166.3 222.3,134.6 218.6,134.6 		"/>
		
			<linearGradient id="SVGID_10_" gradientUnits="userSpaceOnUse" x1="193.95" y1="1011.5005" x2="193.95" y2="956.299" gradientTransform="matrix(1 0 0 -1 0 1119.8896)">
			<stop  offset="0" style="stop-color:#BAE2FF"/>
			<stop  offset="0.6042" style="stop-color:#C8DFFA"/>
			<stop  offset="0.9982" style="stop-color:#FFFFFF"/>
		</linearGradient>
		<polygon class="st9" points="190.9,125.2 191,166 197,166 196.9,129.3 		"/>
		
			<linearGradient id="SVGID_11_" gradientUnits="userSpaceOnUse" x1="231.8" y1="1008.9966" x2="231.8" y2="956.1742" gradientTransform="matrix(1 0 0 -1 0 1119.8896)">
			<stop  offset="0" style="stop-color:#BAE2FF"/>
			<stop  offset="0.6042" style="stop-color:#C8DFFA"/>
			<stop  offset="0.9982" style="stop-color:#FFFFFF"/>
		</linearGradient>
		<polygon class="st10" points="235.5,127.2 235.5,124.3 233.8,124.3 233.8,119.9 232.6,119.9 231.9,111.6 231.2,119.9 230.1,119.9 
			230.1,124.3 228.2,124.3 228.2,127.2 226.2,127.2 226.2,166.5 237.4,166.5 237.4,127.2 		"/>
		
			<linearGradient id="SVGID_12_" gradientUnits="userSpaceOnUse" x1="181.1" y1="1009.8994" x2="181.1" y2="954.6978" gradientTransform="matrix(1 0 0 -1 0 1119.8896)">
			<stop  offset="0" style="stop-color:#BAE2FF"/>
			<stop  offset="0.6042" style="stop-color:#C8DFFA"/>
			<stop  offset="0.9982" style="stop-color:#FFFFFF"/>
		</linearGradient>
		<polygon class="st11" points="186,144.6 184.3,144.6 184.3,143.7 183.2,143.7 183.2,139.4 184.1,139.4 184.1,138.7 182.8,138.7 
			181.1,135.8 179.4,138.7 178.2,138.7 178.2,139.4 179,139.4 179,143.7 177.9,143.7 177.9,144.6 176.2,144.6 176.2,150.3 
			174.8,150.3 174.8,166.1 187.4,166.1 187.4,150.3 186,150.3 		"/>
		
			<linearGradient id="SVGID_13_" gradientUnits="userSpaceOnUse" x1="274.75" y1="1015.0865" x2="274.75" y2="953.2228" gradientTransform="matrix(1 0 0 -1 0 1119.8896)">
			<stop  offset="0" style="stop-color:#BAE2FF"/>
			<stop  offset="0.6042" style="stop-color:#C8DFFA"/>
			<stop  offset="0.9982" style="stop-color:#FFFFFF"/>
		</linearGradient>
		<polygon class="st12" points="276.5,146 276.5,141.2 275.1,141.2 275.1,138.1 270.7,143.6 270.7,143.6 270.7,168 278.8,168.2 
			278.8,146 		"/>
		
			<linearGradient id="SVGID_14_" gradientUnits="userSpaceOnUse" x1="245.1" y1="1011.5005" x2="245.1" y2="956.2986" gradientTransform="matrix(1 0 0 -1 0 1119.8896)">
			<stop  offset="0" style="stop-color:#BAE2FF"/>
			<stop  offset="0.6042" style="stop-color:#C8DFFA"/>
			<stop  offset="0.9982" style="stop-color:#FFFFFF"/>
		</linearGradient>
		<polygon class="st13" points="251.4,141 251.4,138.7 249.9,138.7 249.9,137.1 245.6,135.1 240.8,137.1 240.8,138.7 238.3,138.7 
			238.3,141.1 237.3,141.1 237.3,166.5 252.9,166.5 252.9,141 		"/>
		
			<linearGradient id="SVGID_15_" gradientUnits="userSpaceOnUse" x1="263.05" y1="1012.7621" x2="263.05" y2="954.7663" gradientTransform="matrix(1 0 0 -1 0 1119.8896)">
			<stop  offset="0" style="stop-color:#BAE2FF"/>
			<stop  offset="0.6042" style="stop-color:#C8DFFA"/>
			<stop  offset="0.9982" style="stop-color:#FFFFFF"/>
		</linearGradient>
		<rect x="258.9" y="133.3" class="st14" width="8.3" height="34.4"/>
	</g>
	<g>
		
			<linearGradient id="SVGID_16_" gradientUnits="userSpaceOnUse" x1="321" y1="1011.5005" x2="321" y2="956.2989" gradientTransform="matrix(1 0 0 -1 0 1119.8896)">
			<stop  offset="0" style="stop-color:#BAE2FF"/>
			<stop  offset="0.6042" style="stop-color:#C8DFFA"/>
			<stop  offset="0.9982" style="stop-color:#FFFFFF"/>
		</linearGradient>
		<polygon class="st15" points="327,131.3 323.6,131.3 323.6,134.6 316.4,134.6 316.4,128.6 313.7,128.6 313.7,134.6 311.3,134.6 
			311.3,166.3 330.7,166.3 330.7,134.6 327,134.6 		"/>
		
			<linearGradient id="SVGID_17_" gradientUnits="userSpaceOnUse" x1="302.35" y1="1011.5005" x2="302.35" y2="956.299" gradientTransform="matrix(1 0 0 -1 0 1119.8896)">
			<stop  offset="0" style="stop-color:#BAE2FF"/>
			<stop  offset="0.6042" style="stop-color:#C8DFFA"/>
			<stop  offset="0.9982" style="stop-color:#FFFFFF"/>
		</linearGradient>
		<polygon class="st16" points="299.3,125.2 299.4,166 305.4,166 305.3,129.3 		"/>
		
			<linearGradient id="SVGID_18_" gradientUnits="userSpaceOnUse" x1="340.2" y1="1008.9966" x2="340.2" y2="956.1742" gradientTransform="matrix(1 0 0 -1 0 1119.8896)">
			<stop  offset="0" style="stop-color:#BAE2FF"/>
			<stop  offset="0.6042" style="stop-color:#C8DFFA"/>
			<stop  offset="0.9982" style="stop-color:#FFFFFF"/>
		</linearGradient>
		<polygon class="st17" points="343.9,127.2 343.9,124.3 342.2,124.3 342.2,119.9 340.9,119.9 340.3,111.6 339.6,119.9 338.5,119.9 
			338.5,124.3 336.6,124.3 336.6,127.2 334.6,127.2 334.6,166.5 345.8,166.5 345.8,127.2 		"/>
		
			<linearGradient id="SVGID_19_" gradientUnits="userSpaceOnUse" x1="289.5" y1="1009.8994" x2="289.5" y2="954.6978" gradientTransform="matrix(1 0 0 -1 0 1119.8896)">
			<stop  offset="0" style="stop-color:#BAE2FF"/>
			<stop  offset="0.6042" style="stop-color:#C8DFFA"/>
			<stop  offset="0.9982" style="stop-color:#FFFFFF"/>
		</linearGradient>
		<polygon class="st18" points="294.4,144.6 292.7,144.6 292.7,143.7 291.6,143.7 291.6,139.4 292.4,139.4 292.4,138.7 291.2,138.7 
			289.5,135.8 287.8,138.7 286.5,138.7 286.5,139.4 287.4,139.4 287.4,143.7 286.3,143.7 286.3,144.6 284.6,144.6 284.6,150.3 
			283.2,150.3 283.2,166.1 295.8,166.1 295.8,150.3 294.4,150.3 		"/>
		
			<linearGradient id="SVGID_20_" gradientUnits="userSpaceOnUse" x1="383.1" y1="1015.0865" x2="383.1" y2="953.2228" gradientTransform="matrix(1 0 0 -1 0 1119.8896)">
			<stop  offset="0" style="stop-color:#BAE2FF"/>
			<stop  offset="0.6042" style="stop-color:#C8DFFA"/>
			<stop  offset="0.9982" style="stop-color:#FFFFFF"/>
		</linearGradient>
		<polygon class="st19" points="384.9,146 384.9,141.2 383.5,141.2 383.5,138.1 379,143.6 379,143.6 379,168 387.2,168.2 387.2,146 
					"/>
		
			<linearGradient id="SVGID_21_" gradientUnits="userSpaceOnUse" x1="353.5" y1="1011.5005" x2="353.5" y2="956.2986" gradientTransform="matrix(1 0 0 -1 0 1119.8896)">
			<stop  offset="0" style="stop-color:#BAE2FF"/>
			<stop  offset="0.6042" style="stop-color:#C8DFFA"/>
			<stop  offset="0.9982" style="stop-color:#FFFFFF"/>
		</linearGradient>
		<polygon class="st20" points="359.8,141 359.8,138.7 358.3,138.7 358.3,137.1 354,135.1 349.2,137.1 349.2,138.7 346.7,138.7 
			346.7,141.1 345.7,141.1 345.7,166.5 361.3,166.5 361.3,141 		"/>
		
			<linearGradient id="SVGID_22_" gradientUnits="userSpaceOnUse" x1="371.45" y1="1012.7621" x2="371.45" y2="954.7663" gradientTransform="matrix(1 0 0 -1 0 1119.8896)">
			<stop  offset="0" style="stop-color:#BAE2FF"/>
			<stop  offset="0.6042" style="stop-color:#C8DFFA"/>
			<stop  offset="0.9982" style="stop-color:#FFFFFF"/>
		</linearGradient>
		<rect x="367.3" y="133.3" class="st21" width="8.3" height="34.4"/>
	</g>
	<path class="st22" d="M307-3.6c-3.5-1.2-7.3-1.4-10.9-0.6l-1.3,1.3c-4.5-1.6-27,3.8-27,4.7c0,1.2,34.5,0.2,42.6-0.8
		C313.8-0.1,309.2-2.8,307-3.6z"/>
	<path class="st22" d="M173.7,44.9c-3.5-1.2-7.3-1.4-10.9-0.6l-1.3,1.3c-4.5-1.6-27,3.8-27,4.7c0,1.2,34.5,0.2,42.6-0.8
		C180.5,48.4,175.9,45.7,173.7,44.9z"/>
</g>
<ellipse class="st23" cx="237.2" cy="159.4" rx="96.8" ry="10.5"/>
<g>
	<path class="st24" d="M327.5,100c-1.8-2.9-4.7-4.8-7.4-6.6c3-1.3,3.9-6.2,2.1-9.2s-5.3-4.2-8.6-4c-3.3,0.3-6.3,1.8-9.3,3.3
		c-0.1-5.4-0.3-11-2.1-16c-1.8-5-5.9-9.5-10.8-9.9c-5.5-0.5-10.6,4.2-12.8,9.8c-2.2,5.6-2.3,11.9-2.3,18c-3.1-0.5-6.2-0.8-9.2-0.1
		c-3,0.7-6,2.6-7.3,5.7c-0.9,2-1,4.2-1,6.4c0.3,9.3,5,18.4,12.1,23.5c5.9,4.2,13.5,5.9,17.7,12l3-0.9c2.6-1,5.3-2.1,7.9-3.1
		c1.1-0.4,2.2-0.9,3-1.8c1-1,1.4-2.5,2-3.8c1.8-4.4,5.6-7.7,9.8-8.7c4.9-1.2,11-0.2,13.8-4.7C330.1,107,329.4,102.9,327.5,100z"/>
	<path class="st25" d="M284.5,162.4l-3.7-1.2c4.1-13.3,6.5-18.6,8.4-32.6c1.3-9.5,1.5-18.3,0.4-26.4c-0.7-5.3-1.1-10.7-2.8-15.4
		l1.2-0.5c1,3,2.5,5.9,3.2,9.2c2.1,10.1,2.3,21.3,0.6,33.6C289.8,143.3,288.6,149,284.5,162.4z"/>
	<path class="st25" d="M292.7,117.9l-2.3-1.3c1.2-2.7,3.2-5.9,5.5-8.7c0.9-1,1.8-1.9,2.6-2.8c0.9-0.9,1.8-1.8,2.6-2.7
		c0.4-0.5,0.8-1,1.2-1.7c1.2-1.7,3-2.2,4.9-3.2c0.6-0.3,1.2-0.5,1.7-0.7c1-0.4,2.6-1.2,2.9-1.8l1.1,0.6c-0.8,1.8-2.5,2.3-3.8,2.8
		c-0.5,0.2-1,0.4-1.4,0.6c-1.3,0.7-2.3,2.1-3.3,3.6c-0.4,0.6-0.9,1.2-1.3,1.8c-0.9,1.1-1.8,2.1-2.8,3c-0.9,0.9-1.7,1.7-2.5,2.6
		C295.7,112.4,293.8,115.5,292.7,117.9z"/>
	<path class="st25" d="M296.7,87.7c0,0-1,3.1-2.2,6.2s-2.6,7.1-2.6,7.1l-2.2-2.4c0,0,1.5-2.8,3-5.7c1.5-2.9,2.8-5.8,2.8-5.8
		L296.7,87.7z"/>
	<path class="st25" d="M283.2,98.7c0,0,0.2,0.1,0.4,0.3c0.3,0.1,0.7,0.4,1.2,0.7c1,0.6,2.3,1.5,3.4,2.6c1.2,1.1,2.2,2.3,2.9,3.3
		c0.7,1,1.1,1.7,1.1,1.7l-2.2,2.5c0,0-0.4-1.8-1-2.8c-0.5-1-1.3-2.2-2.2-3.4c-0.9-1.2-2-2.2-2.8-2.8c-0.8-0.7-1.5-1.1-1.5-1.1
		L283.2,98.7z"/>
	<path class="st25" d="M313.5,103.8c-0.1,0-0.2-0.1-0.4-0.1c-0.3-0.1-0.7-0.1-1.2-0.2s-1.1-0.1-1.7-0.2s-1.3-0.1-2-0.1
		c-1.3,0-2.7,0.2-3.8,0.3c-1,0.2-1.7,0.3-1.7,0.3l-0.1-2.9c0,0,0.7,0.1,1.8,0.2c1,0.1,2.5,0.3,3.9,0.4c0.7,0.1,1.4,0.2,2,0.3
		c0.7,0.1,1.3,0.2,1.8,0.3c0.5,0.1,0.9,0.2,1.2,0.3c0.1,0,0.3,0.1,0.4,0.1l0.1-0.1C313.8,102.3,313.5,103.8,313.5,103.8z"/>
</g>
<g>
	<path class="st26" d="M154.1,112.6c1.2-3.3,4.6-5.8,8-7.7c-2.9-1.8-3.7-5.2-4.3-8.4c-0.2-1.1-0.4-2.2,0-3.3c1.2-3.2,6.6-3.9,9.3-2
		c1.5,1.1,2.3,2.7,2.8,4.4c0.3-1.4,1.3-2.9,2.6-3.9c2.7-2.1,6.7-2.4,9.6-1.3c0.8,0.3,1.5,0.7,2,1.3c0.4,0.5,0.6,1.1,0.8,1.7
		c1.5,5.3,1.1,11.2-1.3,16.7c1.2-2.8,5.6-4.3,8.5-3.1c2.9,1.2,4.1,4.2,3.7,7.1c-0.4,2.9-2.3,5.7-4.3,8.2l-15.3,13.8
		c-4.1-4.2-16.6-3.7-18.1-7.5c-1.1-2.8-0.2-6.2,1.1-9.2C155.2,119.8,152.9,115.9,154.1,112.6z"/>
	<path class="st27" d="M175.1,127.8l-0.9-0.5c0.6-1.3,1.6-2.9,2.6-4.4c0.4-0.6,0.8-1,1.2-1.5s0.8-0.9,1.2-1.4
		c0.2-0.3,0.4-0.6,0.6-0.8c0.6-0.8,1.3-1.2,2.2-1.8c0.2-0.2,0.5-0.3,0.7-0.4c0.4-0.2,1.1-0.7,1.3-1.1l0.4,0.2
		c-0.4,0.9-1.1,1.2-1.7,1.6c-0.2,0.1-0.4,0.2-0.6,0.3c-0.6,0.4-1,1.1-1.5,1.8c-0.2,0.3-0.4,0.6-0.6,0.9c-0.4,0.6-0.8,1.1-1.3,1.6
		c-0.4,0.4-0.8,0.9-1.1,1.3C176.5,125,175.6,126.5,175.1,127.8z"/>
	<path class="st27" d="M181,160.6l2.3-0.8c-2.3-7.4-7-25.1-8-33c-0.7-5.3-0.7-10.2,0.1-14.8c0.5-3,0.9-6,2-8.7l-0.7-0.3
		c-0.7,1.7-1.7,3.4-2.2,5.2c-1.4,5.7-1.7,12-0.8,18.9C174.7,135.2,178.7,153.2,181,160.6z"/>
	<path class="st27" d="M173.6,127.8l1.5-0.8c-0.7-1.5-1.9-3.2-3.3-4.8c-0.5-0.6-1.1-1.1-1.6-1.5c-0.6-0.5-1.1-0.9-1.6-1.5
		c-0.2-0.3-0.5-0.6-0.7-0.9c-0.7-0.9-1.8-1.2-3-1.7c-0.3-0.2-0.7-0.3-1.1-0.4c-0.7-0.2-1.6-0.6-1.8-1l-0.7,0.4
		c0.5,0.9,1.5,1.3,2.3,1.5c0.3,0.1,0.6,0.2,0.8,0.3c0.8,0.3,1.4,1.1,2,2c0.2,0.3,0.5,0.7,0.8,1c0.6,0.6,1.1,1.1,1.7,1.6
		c0.6,0.4,1.1,0.9,1.5,1.4C171.8,124.8,173,126.5,173.6,127.8z"/>
	<path class="st27" d="M171.2,104.1c0,0,0.6,1.7,1.3,3.5c0.7,1.7,1.5,4,1.5,4l1.4-1.4c0,0-0.9-1.6-1.8-3.1c-0.9-1.6-1.7-3.2-1.7-3.2
		L171.2,104.1z"/>
	<path class="st27" d="M179.5,110c0,0-0.1,0.1-0.3,0.1c-0.2,0.1-0.4,0.2-0.8,0.4c-0.6,0.3-1.4,0.9-2.2,1.5c-0.7,0.6-1.4,1.3-1.9,1.9
		c-0.4,0.6-0.7,1-0.7,1l1.3,1.4c0,0,0.3-1,0.7-1.6c0.3-0.6,0.8-1.3,1.4-2c0.6-0.7,1.3-1.2,1.8-1.7c0.5-0.4,0.9-0.7,0.9-0.7
		L179.5,110z"/>
	<path class="st27" d="M160.9,120.2c0.1,0,0.1,0,0.2-0.1c0.2-0.1,0.4-0.1,0.8-0.1c0.3-0.1,0.7-0.1,1.1-0.1c0.4-0.1,0.8-0.1,1.2-0.1
		c0.8,0,1.7,0.1,2.3,0.1c0.6,0.1,1.1,0.2,1.1,0.2l0.1-1.6c0,0-0.4,0.1-1.1,0.2c-0.7,0.1-1.6,0.2-2.4,0.3c-0.4,0.1-0.9,0.1-1.3,0.2
		c-0.4,0.1-0.8,0.1-1.1,0.2s-0.6,0.1-0.8,0.2c-0.1,0-0.2,0.1-0.2,0.1l-0.1-0.1C160.7,119.4,160.8,120.2,160.9,120.2z"/>
</g>
<g>
	<g>
		<g>
			<path class="st28" d="M227.9,167l-43.4-17.3c-0.5-0.2-0.5-0.6,0.1-0.8l62.3-15c0.3-0.1,0.6,0,0.8,0.1l43.4,17.3
				c0.5,0.2-5.3-0.4-0.1,0.8l-62.3,15C228.5,167.1,228.2,167.1,227.9,167z"/>
			
				<rect x="184.2" y="148.3" transform="matrix(0.9974 7.188442e-02 -7.188442e-02 0.9974 11.1781 -12.9193)" class="st28" width="1.8" height="1"/>
			
				<rect x="289.7" y="150.4" transform="matrix(0.9974 7.188442e-02 -7.188442e-02 0.9974 11.5964 -20.4939)" class="st29" width="1.6" height="0.9"/>
		</g>
		<path class="st28" d="M228,166.1l-43.4-17.3c-0.5-0.2-0.5-0.6,0.1-0.8l62.3-15c0.3-0.1,0.6,0,0.8,0.1l43.4,17.3
			c-0.2,0.2-0.5,0.5-0.1,0.8l-62.3,15C228.5,166.2,228.2,166.2,228,166.1z"/>
		<polygon class="st30" points="189,138.6 188.9,140.6 188.5,146.1 188.3,148.1 226.1,163.2 226.3,161.3 226.7,155.7 226.8,153.8 		
			"/>
		<g>
			<path class="st28" d="M228.7,156.1l-43.4-17.3c-0.5-0.2-0.5-0.6,0.1-0.8l62.3-15c0.3-0.1,0.6,0,0.8,0.1l43.4,17.3
				c-0.6,0.1-1.1,0.5-0.1,0.8l-62.3,15C229.2,156.3,228.9,156.2,228.7,156.1z"/>
			
				<rect x="185" y="137.6" transform="matrix(0.9974 7.188442e-02 -7.188442e-02 0.9974 10.4004 -13.0036)" class="st28" width="1.8" height="0.9"/>
			
				<rect x="290.4" y="140.1" transform="matrix(0.9974 7.188442e-02 -7.188442e-02 0.9974 10.846 -20.5786)" class="st31" width="1.8" height="0.7"/>
		</g>
		<path class="st32" d="M228.7,155.3L185.4,138c-0.5-0.2-0.5-0.6,0.1-0.8l62.3-15c0.3-0.1,0.6,0,0.8,0.1l43.4,17.3
			c0.5,0.2,0.5,0.6-0.1,0.8l-62.3,15C229.3,155.4,229,155.4,228.7,155.3z"/>
		<path class="st33" d="M229.6,155.4l-0.3,4.2l-0.2,3.3l-0.3,4.2l61.8-15c0.6-0.2,0.8-0.8,0.9-1.2l0.1-3.4l0.2-2.4l0.5-5.1
			L229.6,155.4z"/>
		<g>
			<g>
				<path class="st22" d="M237.1,160.1c-0.1,2,2.3,2.9,5.5,2.2c3.2-0.8,5.8-3,6-4.9c0.1-2-2.3-2.9-5.5-2.2
					C239.9,155.9,237.2,158.1,237.1,160.1z"/>
			</g>
		</g>
		<path class="st22" d="M262.6,156.8l19.1-4.6c2.2-0.5,4-2.2,4.1-3.8l0.2-2.2c0.1-1.6-1.6-2.4-3.7-1.9l-19.1,4.6
			c-2.2,0.5-4,2.2-4.1,3.8l-0.2,2.2C258.8,156.5,260.4,157.3,262.6,156.8z"/>
	</g>
	<g>
		<g>
			<path class="st34" d="M228.9,153.4L185.5,136c-0.5-0.2-0.5-0.6,0.1-0.8l62.3-15c0.3-0.1,0.6,0,0.8,0.1l43.4,17.3
				c0.5,0.2-5.3-0.4-0.1,0.8l-62.3,15C229.4,153.5,229.1,153.5,228.9,153.4z"/>
			
				<rect x="185.2" y="134.8" transform="matrix(0.9974 7.188442e-02 -7.188442e-02 0.9974 10.2036 -13.0249)" class="st34" width="1.8" height="1"/>
			
				<rect x="290.7" y="136.8" transform="matrix(0.9974 7.188442e-02 -7.188442e-02 0.9974 10.6219 -20.5995)" class="st29" width="1.6" height="0.9"/>
		</g>
		<path class="st34" d="M228.9,152.5l-43.4-17.3c-0.5-0.2-0.5-0.6,0.1-0.8l62.3-15c0.3-0.1,0.6,0,0.8,0.1l43.4,17.3
			c-0.2,0.2-0.5,0.5-0.1,0.8l-62.3,15C229.5,152.7,229.2,152.6,228.9,152.5z"/>
		<polygon class="st30" points="190,125.1 189.9,127 189.5,132.6 189.3,134.5 227.1,149.6 227.2,147.7 227.6,142.1 227.8,140.2 		
			"/>
		<g>
			<path class="st34" d="M229.7,142.5l-43.4-17.3c-0.5-0.2-0.5-0.6,0.1-0.8l62.3-15c0.3-0.1,0.6,0,0.8,0.1l43.4,17.3
				c-0.6,0.1-1.1,0.5-0.1,0.8l-62.3,15C230.2,142.7,229.9,142.6,229.7,142.5z"/>
			
				<rect x="185.9" y="124" transform="matrix(0.9974 7.188442e-02 -7.188442e-02 0.9974 9.4259 -13.1092)" class="st34" width="1.8" height="0.9"/>
			
				<rect x="291.4" y="126.5" transform="matrix(0.9974 7.188442e-02 -7.188442e-02 0.9974 9.8715 -20.6842)" class="st31" width="1.8" height="0.7"/>
		</g>
		<path class="st35" d="M229.7,141.7l-43.4-17.3c-0.5-0.2-0.5-0.6,0.1-0.8l62.3-15c0.3-0.1,0.6,0,0.8,0.1l43.4,17.3
			c0.5,0.2,0.5,0.6-0.1,0.8l-62.3,15C230.3,141.8,230,141.8,229.7,141.7z"/>
		<path class="st36" d="M230.6,141.8l-0.3,4.2l-0.2,3.3l-0.3,4.2l61.8-15c0.6-0.2,0.8-0.8,0.9-1.2l0.1-3.4l0.2-2.4l0.5-5.1
			L230.6,141.8z"/>
		<g>
			<g>
				
					<ellipse transform="matrix(0.9279 -0.3727 0.3727 0.9279 -36.513 101.3182)" class="st22" cx="243.8" cy="145.1" rx="6" ry="3.3"/>
			</g>
		</g>
		<path class="st22" d="M263.6,143.2l19.1-4.6c2.2-0.5,4-2.2,4.1-3.8l0.2-2.2c0.1-1.6-1.6-2.4-3.7-1.9l-19.1,4.6
			c-2.2,0.5-4,2.2-4.1,3.8l-0.2,2.2C259.7,142.9,261.4,143.7,263.6,143.2z"/>
	</g>
</g>
<g>
	<path class="st37" d="M213.7,129.5c1.2,0,25.3,8.7,25.3-11.3s-30.8,2.8-30.8,2.8L213.7,129.5z"/>
	<path class="st38" d="M185.9,172.8l7.9-8c1.1-0.6,3.5-0.9,5.1-0.7c0.7,0.1,1.3,0.7,1.4,1.4l0.1,1.6c0.3,2.3,0.1,2.6-1.3,3.5l-8.4,5
		c-1.4,0.8-3.6,1-4.8,0.3l-0.4-0.2C184.4,174.8,184.5,173.6,185.9,172.8z"/>
	<path class="st39" d="M199.8,165c0,2.4-5.8,2.4-5.8,0v-7.7h5.8V165z"/>
	<path class="st38" d="M201.1,181.3l6.9-9c1-0.8,3.3-1.4,5-1.4c0.7,0,1.4,0.5,1.5,1.3l0.3,1.6c0.6,2.2,0.4,2.6-0.9,3.6l-7.7,6
		c-1.3,1-3.4,1.4-4.7,0.9l-0.4-0.2C199.9,183.5,199.8,182.3,201.1,181.3z"/>
	<path class="st39" d="M213.9,171.9c0.3,2.4-5.4,3.1-5.7,0.7l-1-7.6l5.7-0.7L213.9,171.9z"/>
	<path class="st37" d="M212.6,111.2c0,0-17.8,9.1-18.6,13.9c-0.7,4.2-1.4,28.9-1,34.7c0.1,0.8,0.6,1.6,1.3,1.9c1.8,0.8,5,1.8,6-1.8
		c1.5-5.1,1-22.4,4.6-27.4c3.6-5,21.5-12,21.5-12L212.6,111.2z"/>
	<path class="st37" d="M224.6,119.5c0,0-20,10-20.6,14.5c-0.5,4,2,26.5,2.6,32.1c0.1,0.9,0.7,1.6,1.5,1.9c1.8,0.7,4.9,1.4,5.9-2
		c1.3-4.9,0.2-21.3,3.7-26.1c1.9-2.6,6.7-5.6,14.8-9.4c3.7-1.8,6.4-9.1,1.9-9.7L224.6,119.5z"/>
	<path class="st40" d="M207.2,83.5l-3.8,14.6c-0.3,1.7-0.9,4.3-1.3,7.2c-0.7,4.6,0.7,9.6,3.5,13.1c0,0,1.4-7.1,2.7-10.5
		c2.4-5.9,4.3-12.9,4.3-13.1C212.6,94.4,207.2,83.5,207.2,83.5z"/>
	<path class="st41" d="M212.9,73.6l-9,15.4c1.2,4.9,3.9,7.4,7.2,8.7l2.8-19L212.9,73.6z"/>
	<path class="st42" d="M206,87.1c0,0,1.4,4.3,9.5,7"/>
	<path class="st43" d="M210.2,110.5c1.4-7.6,1.1-12.2-0.2-22.6c0-14.5,4.4-19.9,13.5-16.5l3.8,1c11,5.9,16.6,5.6,14.6,17.3
		l-1.9,25.5C240,128.3,209.5,125.9,210.2,110.5z"/>
	<path class="st38" d="M222.1,71.4c0,0,1.4,1.3,2.2,1.5c0.7,0.2,8.6-6.2,5.7-13.3c-1.8-4.5-10.3-1-10.3-1L222.1,71.4z"/>
	<path class="st40" d="M224.7,77.6l-0.4,0.1c-1.5,0.3-2.9-0.8-3.1-2.2l-1.4-8.3c-0.3-1.5,0.8-2.9,2.2-3.1l0.4-0.1
		c1.5-0.3,2.9,0.8,3.1,2.2l2.5,7.8C228.3,75.4,226.2,77.4,224.7,77.6z"/>
	<path class="st44" d="M220.7,72.7c0,0,3.6,0.1,5.9-3.4c0,0-2.3,5.2-5.5,5.7L220.7,72.7z"/>
	<path class="st40" d="M223.3,68.6c-0.8,4-3.6,5.3-6.3,2.9c-2.6-2.4-4.1-7.5-3.3-11.5c0.8-4,3.6-5.3,6.3-2.9
		C222.7,59.5,224.2,64.6,223.3,68.6z"/>
	<path class="st40" d="M227.4,67.1c-0.8,4-4.9,5.7-7.5,3.3c-2.6-2.4-4.1-7.5-3.3-11.5c0.8-4,3.6-5.3,6.3-2.9
		C225.5,58.3,228.2,63.1,227.4,67.1z"/>
	<path class="st38" d="M221.5,58.7c0,0,0.4,7.5,6.5,8.2c0,0,6-4.9-0.1-11.2c-5.3-5.5-11.4,0.4-11.4,0.4L221.5,58.7z"/>
	<path class="st45" d="M213.5,61.9c0,0,1.5-2.9,5.6-3.4l-2.6-2.5C216.6,56.1,213.4,56.1,213.5,61.9z"/>
	<path class="st38" d="M225.3,62.5c-1.7-1.6-4.6-1-8.6,1.4c-3.9,0.9-5.2-3.5-5.2-3.5c-1-2.3,0.4-3.7,2.7-4.7l6-2.7
		c3.4-1.5,7.3,0.8,8.3,3.1l0.2,0.4C229.7,58.8,227.6,61.5,225.3,62.5z"/>
	
		<ellipse transform="matrix(0.3845 -0.9231 0.9231 0.3845 77.1728 250.9182)" class="st40" cx="226.7" cy="67.6" rx="1.8" ry="1.8"/>
	<path class="st22" d="M220.7,72.7c0,0-3,4.2,1.2,6c6.8,2.9,8.9-4.8,7.8-5.2l-2.1-1.1c0,0,1.5,2.1-0.7,3.9c-1.6,1.3-4.4,1.6-5.7-0.5
		L220.7,72.7z"/>
	<polygon class="st43" points="232.2,87.9 232.2,112.6 236.7,110 	"/>
	<g>
		<path class="st46" d="M227.2,122.3l-2.1-0.7l-0.2-0.2l-0.2-0.3l-15.9-8.3c-0.2-0.1-0.5-0.1-0.7,0l-6.1,3.6l0-0.1l-1.1,0.5l0.1,0.5
			h0c0,0,0.1,0.1,0.1,0.1l16.6,8.6c0,0,0,0,0,0.1c0.3,1.3,0.9,2.4,2,1.7l6.7-4C226.9,123.4,227.2,122.9,227.2,122.3L227.2,122.3z"/>
		<path class="st47" d="M218.3,127.2l-19.1-9.9c-0.2-0.1-0.2-0.3,0-0.5l8.1-4.8c0.2-0.1,0.6-0.1,0.8,0l19.1,9.9
			c0.2,0.1,0.2,0.3,0,0.5l-8.1,4.8C218.9,127.3,218.5,127.3,218.3,127.2z"/>
		<path class="st46" d="M218.8,120.8l-4.6-2.4c-0.1,0-0.1-0.1,0-0.1l2-1.2c0.1,0,0.1,0,0.2,0l4.6,2.4c0.1,0,0.1,0.1,0,0.1l-2,1.2
			C219,120.8,218.9,120.8,218.8,120.8z"/>
		<path class="st22" d="M216.6,116c-0.1-0.5-0.6-1-1-1.2l-18.9-9.7c-0.2-0.1-0.3-0.1-0.4-0.1l0,0l0,0c0,0-0.1,0-0.1,0.1l-0.5,0.6
			l0.5,0l2.8,10.5c0.1,0.5,0.6,1,1,1.2l17.9,9.2l0.6,0.6l0.1,0.1c0.3,0.1,1.1-0.5,1.1-0.5L216.6,116z"/>
		<path class="st48" d="M218.4,127.7c0,0-19.8-10.4-19.9-10.9l-2.9-10.6c-0.1-0.5,0.1-0.7,0.5-0.4l18.9,9.7c0.4,0.2,0.8,0.7,1,1.2
			l2.9,10.6C219,127.7,218.8,127.9,218.4,127.7z"/>
		<path class="st22" d="M207.8,117.4c0.2,0.6-0.4,0.7-1.2,0.3c-0.8-0.4-1.6-1.2-1.7-1.8s0.4-0.7,1.2-0.3
			C206.9,116.1,207.6,116.9,207.8,117.4z"/>
	</g>
	<path class="st40" d="M232.9,87.9l2.5,22.2c0.1,1.2-18.2,7-18.2,7l1.5,6.4l18.7-4.8c4.9-2.1,4.8-5.8,4.8-8.9l-0.3-19.2L232.9,87.9z
		"/>
	<path class="st41" d="M232.4,90.3l1.6,16.5c0.5,1.4,12.8-1.4,12.3-3.5c-0.1-0.4-1.4-20.1-6.9-24.6C234.9,75,231.3,82.7,232.4,90.3z
		"/>
	<path class="st42" d="M233.9,102.4c0,0,5.1,1.3,11.4-3.3"/>
</g>
</svg>
