<?xml version="1.0" encoding="utf-8"?>
<!-- Generator: Adobe Illustrator 24.1.2, SVG Export Plug-In . SVG Version: 6.00 Build 0)  -->
<svg version="1.1" id="Layer_1" xmlns="http://www.w3.org/2000/svg" xmlns:xlink="http://www.w3.org/1999/xlink" x="0px" y="0px"
	 viewBox="0 0 178.87 47.95" style="enable-background:new 0 0 178.87 47.95;" xml:space="preserve">
<style type="text/css">
	.st0{fill-rule:evenodd;clip-rule:evenodd;fill:#715112;}
	.st1{fill-rule:evenodd;clip-rule:evenodd;fill:#1B303F;}
	.st2{fill-rule:evenodd;clip-rule:evenodd;fill:#132029;}
	.st3{fill-rule:evenodd;clip-rule:evenodd;fill:#2F4758;}
	.st4{fill:#FFFFFF;}
	.st5{fill:#FAB316;}
	.st6{fill-rule:evenodd;clip-rule:evenodd;fill:#FAB316;}
	.st7{enable-background:new    ;}
	.st8{fill:#999696;}
</style>
<g>
	<g id="Color_Fill_4">
		<g>
			<path class="st0" d="M26.7,21.09c-0.45-4.53-7.08-1.13-7.08-1.13C8.9,26.37,7.29,24.57,7.29,24.57c-2.59-0.6,0.81-4.9,0.81-4.9
				c-6.72,6.91-4.64,9.99-4.64,9.99c0.56,1.46,5.14,1.73,5.14,1.73c2.38,0.24,8.7-3.03,8.7-3.03c1.98-1.09,5.91-2.54,5.91-2.54
				c1.94-0.82,1.65,0.25,1.65,0.25C26.76,23.4,26.7,21.09,26.7,21.09z"/>
		</g>
	</g>
	<g id="Ellipse_1">
		<g>
			<ellipse class="st1" cx="15.54" cy="24.73" rx="10.68" ry="10.68"/>
		</g>
	</g>
	<g id="Ellipse_1_copy_2">
		<g>
			<path class="st2" d="M22.46,23.3c-0.8-3.81-4.54-6.27-8.36-5.47s-6.27,4.54-5.47,8.36c0.8,3.81,4.54,6.27,8.36,5.47
				C20.8,30.85,23.26,27.11,22.46,23.3z"/>
		</g>
	</g>
	<g id="Ellipse_5">
		<g>
			<path class="st3" d="M23.89,18.3c-3.63-4.64-10.33-5.43-14.96-1.81C4.3,20.12,3.5,26.83,7.13,31.45s10.31,5.43,14.94,1.81
				S27.53,22.92,23.89,18.3z M21.77,32.85c-4.4,3.45-10.77,2.68-14.23-1.73c-3.45-4.4-2.68-10.77,1.73-14.23
				c4.4-3.45,10.77-2.68,14.23,1.73C26.93,23.03,26.16,29.39,21.77,32.85z"/>
		</g>
	</g>
	<g>
		<path class="st4" d="M12.32,24.47c-0.01,0-0.04,0-0.04,0c-0.28-0.03-0.48-0.28-0.45-0.56c0.21-2.23,2.19-3.87,4.41-3.65
			c1.29,0.12,2.44,0.85,3.11,1.97c0.15,0.24,0.07,0.56-0.16,0.7c-0.24,0.15-0.56,0.07-0.7-0.16c0-0.01-0.01-0.01-0.01-0.01
			c-0.56-0.94-1.55-1.5-2.62-1.5c-1.57-0.01-2.88,1.18-3.03,2.75C12.8,24.28,12.59,24.47,12.32,24.47z"/>
		<path class="st4" d="M19.75,23.39l-1.81-0.09c-0.28-0.01-0.5-0.25-0.48-0.53c0.01-0.28,0.25-0.5,0.53-0.48l0,0l0.82,0.04
			l0.07-0.77c0.01-0.28,0.25-0.49,0.54-0.48c0.28,0.01,0.49,0.25,0.48,0.54c0,0.01,0,0.01,0,0.01L19.75,23.39z"/>
		<path class="st4" d="M15.79,28.24c-1.42,0-2.76-0.76-3.49-1.99c-0.15-0.24-0.07-0.56,0.17-0.69c0.24-0.15,0.56-0.07,0.69,0.17
			c0.85,1.45,2.71,1.91,4.16,1.08c0.78-0.46,1.32-1.26,1.45-2.17c0.04-0.28,0.31-0.48,0.58-0.43c0.28,0.04,0.48,0.31,0.43,0.58
			C19.51,26.75,17.77,28.24,15.79,28.24z"/>
		<path class="st4" d="M12.26,27.39c-0.01,0-0.03,0-0.04,0c-0.28-0.01-0.49-0.27-0.46-0.54l0.15-1.75l1.81,0.09
			c0.28,0.01,0.5,0.25,0.48,0.53c-0.01,0.28-0.25,0.5-0.53,0.48l-0.82-0.04l-0.07,0.77C12.75,27.19,12.54,27.39,12.26,27.39z"/>
	</g>
	<g id="Color_Fill_2_2_">
		<g>
			<path class="st5" d="M9.75,2.83l6.38,1.83C2.19,11.81,1.29,21.33,1.29,21.33c4.12-5.84,5.82-5.96,6.28-5.53
				c0.54,0.53-1.21,1.73-1.86,2.4c-1.47,1.55-3.19,3.31-4.09,6.39c-1.16,3.96,1.85,5.33,1.85,5.33
				c-2.2-8.55,18.16-18.78,18.16-18.78l0.82,4.17l4.66-13.08L9.75,2.83z"/>
		</g>
	</g>
	<g id="Color_Fill_3">
		<g>
			<path class="st6" d="M30.47,24.52c0,0-4.72,9.6-7.94,11.52c0,0-2.52,1.9-1.26-1.22c0,0,5.57-5.33,7.54-10.77
				c0,0,2.72-4.72-4.2-5.35c0,0,4.49,0.88,0.32,7.16c0,0-4.29,8.16-16.01,13.68c0,0-2.95,1.18-1.87,2.78c0,0,0.23,0.74,3.98-1.29
				l4.77-2.83c0,0,2.71-1.43,1.3,0.28l-2.39,2.13c0,0-1.05,0.86-0.44,1.54c0,0,0.37,0.92,2.14-0.52l2.95-2.31
				c0,0,1.7-0.89,0.69,0.65c0,0-1.09,1.51-0.72,1.89c0,0,0.8,1.22,2.59-0.53c0,0,5.95-5.13,8.05-11.85
				C29.96,29.47,30.67,26.44,30.47,24.52z M4.82,41.88l-2.43,1.45c-0.43,0.25-0.57,0.81-0.32,1.24s0.81,0.57,1.24,0.32l2.43-1.45
				c0.43-0.25,0.57-0.81,0.32-1.24C5.81,41.77,5.26,41.63,4.82,41.88z M12.51,42.42l-2.43,1.45c-0.43,0.25-0.57,0.81-0.32,1.24
				c0.25,0.43,0.81,0.57,1.24,0.32l2.43-1.45c0.43-0.25,0.57-0.81,0.32-1.24C13.51,42.32,12.93,42.17,12.51,42.42z M17.88,42.56
				l-2.2,1.78c-0.4,0.32-0.45,0.88-0.13,1.28c0.32,0.4,0.88,0.45,1.28,0.13l2.2-1.78c0.4-0.32,0.45-0.88,0.13-1.28
				C18.83,42.29,18.26,42.24,17.88,42.56z"/>
		</g>
	</g>
</g>
<g class="st7">
	<path class="st8" d="M46.71,22.08v-0.81c2.1,0.27,4.29,0.46,6.73,0.46c4.19,0,6.42-0.73,6.42-3.08c0-0.85-0.29-1.46-1.06-1.9
		c-0.88-0.48-2.33-0.71-4.98-1.06c-2.62-0.33-4.25-0.71-5.29-1.35c-1.04-0.69-1.48-1.65-1.48-3c0-3.37,3.17-4.37,7.89-4.37
		c2.1,0,4.21,0.23,6.1,0.56v0.81c-1.85-0.27-3.73-0.44-5.77-0.44c-3.81,0-5.69,0.69-5.69,2.69c0,0.79,0.23,1.38,0.88,1.79
		c0.79,0.46,2.15,0.75,4.79,1.06c2.65,0.33,4.35,0.67,5.48,1.31c1.19,0.71,1.69,1.71,1.69,3.17c0,3.64-3.6,4.73-8.62,4.73
		C51.23,22.64,48.85,22.39,46.71,22.08z"/>
	<path class="st8" d="M70.08,22.66l-6.56-10.14h3.08l4.92,7.73l4.58-7.73h1.1l-8.35,14.14h-1.12L70.08,22.66z"/>
	<path class="st8" d="M79.04,12.52h2.6v0.83c1-0.52,2.85-1.02,4.6-1.02c3.5,0,5.23,1.19,5.23,4.1v6.06h-2.69v-6.04
		c0-2.31-1.17-3.04-3.67-3.04c-1.31,0-2.54,0.25-3.39,0.52v8.56h-2.69V12.52z"/>
	<path class="st8" d="M94.04,17.51c0-3.69,2.71-5.12,6.89-5.12c1.58,0,2.92,0.15,4.1,0.35v0.75c-1.08-0.12-2.15-0.25-3.33-0.25
		c-3.17,0-4.87,0.79-4.87,4.23s1.81,4.27,4.87,4.27c1.19,0,2.29-0.1,3.4-0.25v0.75c-1.19,0.21-2.58,0.38-4.17,0.38
		C96.6,22.62,94.04,21.08,94.04,17.51z"/>
	<path class="st8" d="M107.38,14.83c0-4.87,3.19-7.94,9.39-7.94c6.23,0,9.43,3.06,9.43,7.94c0,4.83-3.21,7.89-9.43,7.89
		C110.56,22.72,107.38,19.66,107.38,14.83z M123.27,14.79c0-4.94-1.92-7-6.5-7c-4.58,0-6.46,2.12-6.46,7c0,4.92,1.87,7.02,6.46,7.02
		C121.35,21.8,123.27,19.7,123.27,14.79z"/>
	<path class="st8" d="M127.92,12.52h2.12v-1.88c0-2.81,1.58-3.64,4-3.64c0.77,0,1.46,0.08,2.15,0.23v0.75
		c-0.48-0.06-0.9-0.12-1.35-0.12c-1.46,0-2.12,0.44-2.12,2.25v2.42h3.48v0.79h-3.48v9.19h-2.67v-9.19h-2.12V12.52z"/>
	<path class="st8" d="M136.79,12.52h2.12v-1.88c0-2.81,1.58-3.64,4-3.64c0.77,0,1.46,0.08,2.15,0.23v0.75
		c-0.48-0.06-0.9-0.12-1.35-0.12c-1.46,0-2.12,0.44-2.12,2.25v2.42h3.48v0.79h-3.48v9.19h-2.67v-9.19h-2.12V12.52z"/>
	<path class="st8" d="M146.79,8.27h2.69v2.27h-2.69V8.27z M146.79,12.52h2.69v9.98h-2.69V12.52z"/>
	<path class="st8" d="M152.12,17.51c0-3.69,2.71-5.12,6.89-5.12c1.58,0,2.92,0.15,4.1,0.35v0.75c-1.08-0.12-2.14-0.25-3.33-0.25
		c-3.17,0-4.87,0.79-4.87,4.23s1.81,4.27,4.87,4.27c1.19,0,2.29-0.1,3.39-0.25v0.75c-1.19,0.21-2.58,0.38-4.17,0.38
		C154.69,22.62,152.12,21.08,152.12,17.51z"/>
	<path class="st8" d="M164.71,17.49c0-3.44,2.69-5.17,6.25-5.17c3.96,0,6.27,1.65,6.27,5.02c0,0.17-0.02,0.35-0.06,0.6h-9.75
		c0.08,3.02,1.46,3.79,4.77,3.79c1.54,0,3.02-0.08,4.48-0.29v0.75c-1.5,0.25-2.96,0.42-4.94,0.42
		C167.64,22.62,164.71,21.49,164.71,17.49z M167.42,17.14h7.23c-0.08-2.81-0.92-3.94-3.69-3.94
		C168.52,13.2,167.48,14.35,167.42,17.14z"/>
</g>
<g>
	<path class="st8" d="M51.66,34.34c-0.17-0.24-0.39-0.43-0.66-0.57s-0.59-0.22-0.97-0.22c-0.19,0-0.39,0.03-0.59,0.09
		c-0.2,0.06-0.38,0.15-0.55,0.27c-0.16,0.12-0.29,0.28-0.4,0.46s-0.15,0.41-0.15,0.66s0.05,0.46,0.14,0.62
		c0.1,0.16,0.22,0.3,0.38,0.42s0.34,0.21,0.54,0.28c0.2,0.07,0.42,0.15,0.64,0.22c0.27,0.09,0.55,0.19,0.83,0.29
		c0.28,0.1,0.53,0.24,0.75,0.41c0.22,0.17,0.4,0.38,0.54,0.63s0.21,0.58,0.21,0.97c0,0.39-0.08,0.73-0.23,1.02
		c-0.15,0.29-0.34,0.52-0.58,0.71s-0.51,0.32-0.82,0.41c-0.31,0.09-0.62,0.13-0.93,0.13c-0.24,0-0.48-0.02-0.71-0.07
		c-0.24-0.05-0.46-0.12-0.68-0.22c-0.22-0.1-0.42-0.22-0.6-0.37s-0.35-0.32-0.49-0.51l0.69-0.51c0.17,0.28,0.41,0.52,0.72,0.71
		c0.31,0.19,0.67,0.28,1.09,0.28c0.2,0,0.4-0.03,0.61-0.09c0.21-0.06,0.4-0.16,0.56-0.29s0.3-0.29,0.41-0.48
		c0.11-0.19,0.16-0.41,0.16-0.66c0-0.27-0.05-0.5-0.16-0.68c-0.11-0.18-0.25-0.33-0.43-0.46s-0.38-0.22-0.61-0.31
		c-0.23-0.08-0.47-0.16-0.72-0.24c-0.26-0.08-0.52-0.17-0.77-0.28c-0.25-0.1-0.48-0.24-0.68-0.41c-0.2-0.17-0.36-0.37-0.48-0.62
		s-0.18-0.55-0.18-0.9c0-0.38,0.08-0.71,0.23-0.98c0.15-0.27,0.35-0.5,0.6-0.68c0.24-0.18,0.52-0.31,0.81-0.39
		c0.3-0.08,0.59-0.12,0.88-0.12c0.53,0,0.99,0.09,1.37,0.28s0.66,0.41,0.86,0.67L51.66,34.34z"/>
	<path class="st8" d="M58.34,40.96h-0.8v-3.4l-2.95-4.49h1l2.37,3.82l2.39-3.82h0.94l-2.95,4.49V40.96z"/>
	<path class="st8" d="M69.71,39.79h0.02v-6.71h0.8v7.88h-1l-4.59-6.78h-0.02v6.78h-0.8v-7.88h1L69.71,39.79z"/>
	<path class="st8" d="M81.04,39.67c-0.13,0.2-0.29,0.39-0.48,0.57s-0.41,0.34-0.66,0.47c-0.25,0.14-0.52,0.24-0.82,0.32
		c-0.3,0.08-0.63,0.12-0.98,0.12c-0.59,0-1.14-0.1-1.65-0.31c-0.5-0.21-0.94-0.5-1.3-0.86c-0.36-0.37-0.65-0.8-0.85-1.31
		s-0.31-1.06-0.31-1.66c0-0.6,0.1-1.15,0.31-1.66c0.21-0.5,0.5-0.94,0.86-1.31c0.37-0.37,0.8-0.66,1.3-0.86
		c0.5-0.21,1.04-0.31,1.63-0.31c0.29,0,0.57,0.03,0.85,0.09s0.54,0.15,0.78,0.25c0.25,0.11,0.47,0.24,0.67,0.39
		c0.2,0.15,0.37,0.33,0.5,0.52l-0.67,0.49c-0.08-0.13-0.19-0.25-0.33-0.38c-0.14-0.13-0.3-0.24-0.48-0.33
		c-0.19-0.1-0.39-0.17-0.61-0.23s-0.45-0.09-0.71-0.09c-0.51,0-0.97,0.09-1.38,0.28c-0.4,0.18-0.75,0.43-1.03,0.75
		s-0.5,0.68-0.65,1.09c-0.15,0.42-0.22,0.85-0.22,1.31c0,0.46,0.08,0.9,0.23,1.31s0.37,0.78,0.65,1.09
		c0.28,0.31,0.62,0.56,1.03,0.75c0.4,0.19,0.86,0.28,1.36,0.28c0.45,0,0.88-0.09,1.29-0.28s0.75-0.48,1.02-0.89L81.04,39.67z"/>
	<path class="st8" d="M91.2,40.96h-0.8v-3.4l-2.95-4.49h1l2.37,3.82l2.39-3.82h0.94l-2.95,4.49V40.96z"/>
	<path class="st8" d="M104.51,37.01c0,0.6-0.1,1.15-0.31,1.66s-0.5,0.94-0.86,1.31c-0.37,0.37-0.8,0.66-1.3,0.86
		s-1.04,0.31-1.63,0.31c-0.59,0-1.13-0.1-1.63-0.31s-0.94-0.5-1.3-0.86c-0.37-0.37-0.66-0.8-0.86-1.31
		c-0.21-0.5-0.31-1.06-0.31-1.66c0-0.6,0.1-1.15,0.31-1.66c0.21-0.5,0.5-0.94,0.86-1.31s0.8-0.66,1.3-0.86
		c0.5-0.21,1.04-0.31,1.63-0.31c0.59,0,1.13,0.1,1.63,0.31c0.5,0.21,0.94,0.5,1.3,0.86c0.37,0.37,0.66,0.8,0.86,1.31
		C104.41,35.86,104.51,36.41,104.51,37.01z M103.66,37.02c0-0.46-0.07-0.9-0.22-1.31s-0.36-0.78-0.65-1.09
		c-0.28-0.32-0.62-0.57-1.03-0.75c-0.4-0.18-0.86-0.28-1.36-0.28s-0.96,0.09-1.36,0.28c-0.41,0.19-0.75,0.44-1.03,0.75
		c-0.28,0.31-0.5,0.68-0.65,1.09s-0.22,0.85-0.22,1.31s0.07,0.9,0.22,1.31s0.36,0.78,0.65,1.09c0.28,0.31,0.62,0.56,1.03,0.75
		c0.4,0.19,0.86,0.28,1.36,0.28s0.96-0.09,1.36-0.28s0.75-0.43,1.03-0.75c0.28-0.31,0.5-0.67,0.65-1.09S103.66,37.48,103.66,37.02z"
		/>
	<path class="st8" d="M110.87,41.16c-0.59,0-1.08-0.1-1.46-0.31c-0.38-0.2-0.68-0.46-0.9-0.77c-0.22-0.31-0.38-0.65-0.46-1.02
		s-0.13-0.71-0.13-1.04v-4.94h0.8v4.85c0,0.32,0.04,0.63,0.11,0.93s0.19,0.57,0.36,0.8c0.17,0.23,0.39,0.42,0.66,0.57
		c0.27,0.14,0.61,0.22,1.01,0.22c0.4,0,0.74-0.07,1.01-0.22c0.27-0.14,0.5-0.33,0.66-0.57c0.17-0.23,0.29-0.5,0.36-0.8
		c0.07-0.3,0.11-0.61,0.11-0.93v-4.85h0.8v4.94c0,0.33-0.04,0.67-0.13,1.04c-0.08,0.37-0.24,0.71-0.46,1.02
		c-0.22,0.31-0.53,0.57-0.91,0.77C111.94,41.05,111.45,41.16,110.87,41.16z"/>
	<path class="st8" d="M118.45,40.96h-0.8v-7.88h2.32c0.39,0,0.74,0.04,1.07,0.11s0.62,0.2,0.86,0.36s0.43,0.38,0.56,0.65
		c0.13,0.27,0.2,0.59,0.2,0.98c0,0.29-0.05,0.55-0.16,0.79c-0.1,0.24-0.24,0.44-0.42,0.62c-0.18,0.17-0.39,0.31-0.63,0.42
		c-0.25,0.1-0.51,0.17-0.8,0.2l2.3,3.75h-0.98l-2.18-3.69h-1.34V40.96z M118.45,36.58h1.39c0.65,0,1.14-0.12,1.49-0.35
		c0.35-0.23,0.52-0.58,0.52-1.05c0-0.26-0.05-0.48-0.14-0.66c-0.1-0.18-0.23-0.32-0.4-0.43c-0.17-0.11-0.38-0.19-0.62-0.25
		s-0.52-0.08-0.81-0.08h-1.42V36.58z"/>
	<path class="st8" d="M138.45,37.01c0,0.6-0.1,1.15-0.31,1.66s-0.5,0.94-0.86,1.31c-0.37,0.37-0.8,0.66-1.3,0.86
		s-1.04,0.31-1.63,0.31c-0.59,0-1.13-0.1-1.63-0.31s-0.94-0.5-1.3-0.86c-0.37-0.37-0.66-0.8-0.86-1.31
		c-0.21-0.5-0.31-1.06-0.31-1.66c0-0.6,0.1-1.15,0.31-1.66c0.21-0.5,0.5-0.94,0.86-1.31s0.8-0.66,1.3-0.86
		c0.5-0.21,1.04-0.31,1.63-0.31c0.59,0,1.13,0.1,1.63,0.31c0.5,0.21,0.94,0.5,1.3,0.86c0.37,0.37,0.66,0.8,0.86,1.31
		C138.35,35.86,138.45,36.41,138.45,37.01z M137.61,37.02c0-0.46-0.07-0.9-0.22-1.31s-0.36-0.78-0.65-1.09
		c-0.28-0.32-0.62-0.57-1.03-0.75c-0.4-0.18-0.86-0.28-1.36-0.28s-0.96,0.09-1.36,0.28c-0.41,0.19-0.75,0.44-1.03,0.75
		c-0.28,0.31-0.5,0.68-0.65,1.09s-0.22,0.85-0.22,1.31s0.07,0.9,0.22,1.31s0.36,0.78,0.65,1.09c0.28,0.31,0.62,0.56,1.03,0.75
		c0.4,0.19,0.86,0.28,1.36,0.28s0.96-0.09,1.36-0.28s0.75-0.43,1.03-0.75c0.28-0.31,0.5-0.67,0.65-1.09S137.61,37.48,137.61,37.02z"
		/>
	<path class="st8" d="M142.71,40.96h-0.8v-7.88h4.75v0.71h-3.95v2.73h3.67v0.71h-3.67V40.96z"/>
	<path class="st8" d="M150.75,40.96h-0.8v-7.88h4.75v0.71h-3.95v2.73h3.67v0.71h-3.67V40.96z"/>
	<path class="st8" d="M158.78,40.96h-0.8v-7.88h0.8V40.96z"/>
	<path class="st8" d="M169.29,39.67c-0.13,0.2-0.29,0.39-0.48,0.57c-0.19,0.18-0.41,0.34-0.66,0.47c-0.25,0.14-0.52,0.24-0.82,0.32
		c-0.3,0.08-0.63,0.12-0.99,0.12c-0.59,0-1.14-0.1-1.65-0.31s-0.94-0.5-1.3-0.86c-0.36-0.37-0.65-0.8-0.85-1.31
		s-0.31-1.06-0.31-1.66c0-0.6,0.1-1.15,0.31-1.66c0.21-0.5,0.5-0.94,0.86-1.31s0.8-0.66,1.3-0.86c0.5-0.21,1.04-0.31,1.63-0.31
		c0.29,0,0.57,0.03,0.85,0.09s0.54,0.15,0.79,0.25c0.25,0.11,0.47,0.24,0.67,0.39s0.37,0.33,0.5,0.52l-0.67,0.49
		c-0.08-0.13-0.19-0.25-0.33-0.38c-0.14-0.13-0.3-0.24-0.48-0.33c-0.19-0.1-0.39-0.17-0.61-0.23c-0.22-0.06-0.46-0.09-0.71-0.09
		c-0.51,0-0.97,0.09-1.38,0.28c-0.41,0.18-0.75,0.43-1.03,0.75s-0.5,0.68-0.65,1.09c-0.15,0.42-0.22,0.85-0.22,1.31
		c0,0.46,0.08,0.9,0.23,1.31c0.15,0.41,0.37,0.78,0.65,1.09c0.28,0.31,0.62,0.56,1.03,0.75c0.4,0.19,0.86,0.28,1.36,0.28
		c0.45,0,0.88-0.09,1.29-0.28s0.75-0.48,1.02-0.89L169.29,39.67z"/>
	<path class="st8" d="M173.26,40.24h4.22v0.71h-5.02v-7.88h4.89v0.71h-4.09v2.71h3.82v0.71h-3.82V40.24z"/>
</g>
</svg>
