<?xml version="1.0" encoding="utf-8"?>
<!-- Generator: Adobe Illustrator 24.1.2, SVG Export Plug-In . SVG Version: 6.00 Build 0)  -->
<svg version="1.1" id="Layer_1" xmlns="http://www.w3.org/2000/svg" xmlns:xlink="http://www.w3.org/1999/xlink" x="0px" y="0px"
	 viewBox="0 0 174.3 40" style="enable-background:new 0 0 174.3 40;" xml:space="preserve">
<style type="text/css">
	.st0{fill-rule:evenodd;clip-rule:evenodd;fill:#715112;}
	.st1{fill-rule:evenodd;clip-rule:evenodd;fill:#1B303F;}
	.st2{fill-rule:evenodd;clip-rule:evenodd;fill:#132029;}
	.st3{fill-rule:evenodd;clip-rule:evenodd;fill:#2F4758;}
	.st4{fill:#FFFFFF;}
	.st5{fill:#FAB316;}
	.st6{fill-rule:evenodd;clip-rule:evenodd;fill:#FAB316;}
	.st7{enable-background:new    ;}
	.st8{fill:#999696;}
</style>
<g>
	<g id="Color_Fill_4">
		<g>
			<path class="st0" d="M25.9,18.4c-0.3-3.4-5.3-0.9-5.3-0.9c-8.1,4.8-9.3,3.5-9.3,3.5c-1.9-0.5,0.6-3.7,0.6-3.7
				c-5.1,5.2-3.5,7.5-3.5,7.5c0.4,1.1,3.9,1.3,3.9,1.3c1.8,0.2,6.6-2.3,6.6-2.3c1.5-0.8,4.5-1.9,4.5-1.9c1.5-0.6,1.2,0.2,1.2,0.2
				C26,20.2,25.9,18.4,25.9,18.4z"/>
		</g>
	</g>
	<g id="Ellipse_1">
		<g>
			<ellipse class="st1" cx="17.5" cy="21.2" rx="8" ry="8"/>
		</g>
	</g>
	<g id="Ellipse_1_copy_2">
		<g>
			<path class="st2" d="M22.7,20.1c-0.6-2.9-3.4-4.7-6.3-4.1c-2.9,0.6-4.7,3.4-4.1,6.3c0.6,2.9,3.4,4.7,6.3,4.1S23.3,23,22.7,20.1z"
				/>
		</g>
	</g>
	<g id="Ellipse_5">
		<g>
			<path class="st3" d="M23.8,16.3c-2.7-3.5-7.8-4.1-11.3-1.4c-3.5,2.7-4.1,7.8-1.4,11.3s7.8,4.1,11.3,1.4S26.6,19.8,23.8,16.3z
				 M22.2,27.3c-3.3,2.6-8.1,2-10.7-1.3c-2.6-3.3-2-8.1,1.3-10.7c3.3-2.6,8.1-2,10.7,1.3C26.1,19.9,25.5,24.7,22.2,27.3z"/>
		</g>
	</g>
	<g>
		<path class="st4" d="M15.1,21C15.1,21,15.1,21,15.1,21c-0.2,0-0.4-0.2-0.4-0.4c0.2-1.7,1.6-2.9,3.3-2.8c1,0.1,1.8,0.6,2.3,1.5
			c0.1,0.2,0,0.4-0.1,0.5c-0.2,0.1-0.4,0-0.5-0.1c0,0,0,0,0,0c-0.4-0.7-1.2-1.1-2-1.1c-1.2,0-2.2,0.9-2.3,2.1
			C15.5,20.8,15.3,21,15.1,21z"/>
		<path class="st4" d="M20.7,20.2l-1.4-0.1c-0.2,0-0.4-0.2-0.4-0.4c0-0.2,0.2-0.4,0.4-0.4l0,0l0.6,0l0-0.6c0-0.2,0.2-0.4,0.4-0.4
			c0.2,0,0.4,0.2,0.4,0.4c0,0,0,0,0,0L20.7,20.2z"/>
		<path class="st4" d="M17.7,23.8c-1.1,0-2.1-0.6-2.6-1.5c-0.1-0.2-0.1-0.4,0.1-0.5c0.2-0.1,0.4,0,0.5,0.1c0.6,1.1,2,1.4,3.1,0.8
			c0.6-0.4,1-1,1.1-1.6c0-0.2,0.2-0.4,0.4-0.3c0.2,0,0.4,0.2,0.3,0.4C20.5,22.7,19.2,23.8,17.7,23.8z"/>
		<path class="st4" d="M15.1,23.2C15.1,23.2,15,23.2,15.1,23.2c-0.2,0-0.4-0.2-0.4-0.4l0.1-1.3l1.4,0.1c0.2,0,0.4,0.2,0.4,0.4
			c0,0.2-0.2,0.4-0.4,0.4l-0.6,0l-0.1,0.6C15.4,23,15.3,23.2,15.1,23.2z"/>
	</g>
	<g id="Color_Fill_2_2_">
		<g>
			<path class="st5" d="M13.2,4.7L18,6.1C7.5,11.4,6.8,18.6,6.8,18.6c3.1-4.4,4.4-4.5,4.7-4.2c0.4,0.4-0.9,1.3-1.4,1.8
				c-1.1,1.2-2.4,2.5-3.1,4.8c-0.9,3,1.4,4,1.4,4c-1.7-6.4,13.7-14.1,13.7-14.1l0.6,3.1l3.5-9.9L13.2,4.7z"/>
		</g>
	</g>
	<g id="Color_Fill_3">
		<g>
			<path class="st6" d="M28.8,21c0,0-3.5,7.2-6,8.7c0,0-1.9,1.4-1-0.9c0,0,4.2-4,5.7-8.1c0,0,2-3.5-3.2-4c0,0,3.4,0.7,0.2,5.4
				c0,0-3.2,6.1-12.1,10.3c0,0-2.2,0.9-1.4,2.1c0,0,0.2,0.6,3-1l3.6-2.1c0,0,2-1.1,1,0.2l-1.8,1.6c0,0-0.8,0.7-0.3,1.2
				c0,0,0.3,0.7,1.6-0.4l2.2-1.7c0,0,1.3-0.7,0.5,0.5c0,0-0.8,1.1-0.5,1.4c0,0,0.6,0.9,2-0.4c0,0,4.5-3.9,6.1-8.9
				C28.4,24.7,28.9,22.5,28.8,21z M9.5,34.1l-1.8,1.1c-0.3,0.2-0.4,0.6-0.2,0.9s0.6,0.4,0.9,0.2l1.8-1.1c0.3-0.2,0.4-0.6,0.2-0.9
				C10.2,34,9.8,33.9,9.5,34.1z M15.2,34.5l-1.8,1.1c-0.3,0.2-0.4,0.6-0.2,0.9c0.2,0.3,0.6,0.4,0.9,0.2l1.8-1.1
				c0.3-0.2,0.4-0.6,0.2-0.9C16,34.4,15.6,34.3,15.2,34.5z M19.3,34.6l-1.7,1.3c-0.3,0.2-0.3,0.7-0.1,1s0.7,0.3,1,0.1l1.7-1.3
				c0.3-0.2,0.3-0.7,0.1-1S19.6,34.3,19.3,34.6z"/>
		</g>
	</g>
</g>
<g class="st7">
	<path class="st8" d="M41.2,26.1v-0.8c2.1,0.3,4.3,0.5,6.7,0.5c4.2,0,6.4-0.7,6.4-3.1c0-0.9-0.3-1.5-1.1-1.9c-0.9-0.5-2.3-0.7-5-1.1
		c-2.6-0.3-4.2-0.7-5.3-1.4c-1-0.7-1.5-1.6-1.5-3c0-3.4,3.2-4.4,7.9-4.4c2.1,0,4.2,0.2,6.1,0.6v0.8c-1.9-0.3-3.7-0.4-5.8-0.4
		c-3.8,0-5.7,0.7-5.7,2.7c0,0.8,0.2,1.4,0.9,1.8c0.8,0.5,2.1,0.7,4.8,1.1c2.6,0.3,4.4,0.7,5.5,1.3c1.2,0.7,1.7,1.7,1.7,3.2
		c0,3.6-3.6,4.7-8.6,4.7C45.7,26.6,43.4,26.4,41.2,26.1z"/>
	<path class="st8" d="M64.6,26.7L58,16.5h3.1l4.9,7.7l4.6-7.7h1.1l-8.4,14.1h-1.1L64.6,26.7z"/>
	<path class="st8" d="M73.6,16.5h2.6v0.8c1-0.5,2.9-1,4.6-1c3.5,0,5.2,1.2,5.2,4.1v6.1h-2.7v-6c0-2.3-1.2-3-3.7-3
		c-1.3,0-2.5,0.2-3.4,0.5v8.6h-2.7V16.5z"/>
	<path class="st8" d="M88.6,21.5c0-3.7,2.7-5.1,6.9-5.1c1.6,0,2.9,0.1,4.1,0.4v0.8c-1.1-0.1-2.1-0.2-3.3-0.2c-3.2,0-4.9,0.8-4.9,4.2
		s1.8,4.3,4.9,4.3c1.2,0,2.3-0.1,3.4-0.2v0.8c-1.2,0.2-2.6,0.4-4.2,0.4C91.1,26.6,88.6,25.1,88.6,21.5z"/>
	<path class="st8" d="M101.9,18.8c0-4.9,3.2-7.9,9.4-7.9c6.2,0,9.4,3.1,9.4,7.9c0,4.8-3.2,7.9-9.4,7.9
		C105.1,26.7,101.9,23.7,101.9,18.8z M117.8,18.8c0-4.9-1.9-7-6.5-7c-4.6,0-6.5,2.1-6.5,7c0,4.9,1.9,7,6.5,7
		C115.9,25.8,117.8,23.7,117.8,18.8z"/>
	<path class="st8" d="M122.4,16.5h2.1v-1.9c0-2.8,1.6-3.6,4-3.6c0.8,0,1.5,0.1,2.1,0.2V12c-0.5-0.1-0.9-0.1-1.4-0.1
		c-1.5,0-2.1,0.4-2.1,2.2v2.4h3.5v0.8h-3.5v9.2h-2.7v-9.2h-2.1V16.5z"/>
	<path class="st8" d="M131.3,16.5h2.1v-1.9c0-2.8,1.6-3.6,4-3.6c0.8,0,1.5,0.1,2.1,0.2V12c-0.5-0.1-0.9-0.1-1.4-0.1
		c-1.5,0-2.1,0.4-2.1,2.2v2.4h3.5v0.8h-3.5v9.2h-2.7v-9.2h-2.1V16.5z"/>
	<path class="st8" d="M141.3,12.3h2.7v2.3h-2.7V12.3z M141.3,16.5h2.7v10h-2.7V16.5z"/>
	<path class="st8" d="M146.6,21.5c0-3.7,2.7-5.1,6.9-5.1c1.6,0,2.9,0.1,4.1,0.4v0.8c-1.1-0.1-2.1-0.2-3.3-0.2
		c-3.2,0-4.9,0.8-4.9,4.2s1.8,4.3,4.9,4.3c1.2,0,2.3-0.1,3.4-0.2v0.8c-1.2,0.2-2.6,0.4-4.2,0.4C149.2,26.6,146.6,25.1,146.6,21.5z"
		/>
	<path class="st8" d="M159.2,21.5c0-3.4,2.7-5.2,6.2-5.2c4,0,6.3,1.6,6.3,5c0,0.2,0,0.4-0.1,0.6h-9.7c0.1,3,1.5,3.8,4.8,3.8
		c1.5,0,3-0.1,4.5-0.3v0.7c-1.5,0.2-3,0.4-4.9,0.4C162.2,26.6,159.2,25.5,159.2,21.5z M161.9,21.1h7.2c-0.1-2.8-0.9-3.9-3.7-3.9
		C163,17.2,162,18.3,161.9,21.1z"/>
</g>
</svg>
